<?xml version="1.0" encoding="UTF-8" standalone="no"?>
<!-- Created with Inkscape (http://www.inkscape.org/) -->

<svg
   width="385.71338mm"
   height="318.21399mm"
   viewBox="0 0 385.71336 318.21399"
   version="1.1"
   id="svg5"
   xml:space="preserve"
   inkscape:version="1.2 (dc2aedaf03, 2022-05-15)"
   sodipodi:docname="fav.svg"
   inkscape:export-filename="ocandequen-black.svg"
   inkscape:export-xdpi="96"
   inkscape:export-ydpi="96"
   xmlns:inkscape="http://www.inkscape.org/namespaces/inkscape"
   xmlns:sodipodi="http://sodipodi.sourceforge.net/DTD/sodipodi-0.dtd"
   xmlns="http://www.w3.org/2000/svg"
   xmlns:svg="http://www.w3.org/2000/svg"><sodipodi:namedview
     id="namedview7"
     pagecolor="#ffffff"
     bordercolor="#666666"
     borderopacity="1.0"
     inkscape:showpageshadow="2"
     inkscape:pageopacity="0.0"
     inkscape:pagecheckerboard="0"
     inkscape:deskcolor="#d1d1d1"
     inkscape:document-units="mm"
     showgrid="false"
     inkscape:zoom="0.18863812"
     inkscape:cx="177.58871"
     inkscape:cy="943.60567"
     inkscape:window-width="1920"
     inkscape:window-height="1027"
     inkscape:window-x="1912"
     inkscape:window-y="22"
     inkscape:window-maximized="1"
     inkscape:current-layer="layer7" /><defs
     id="defs2" /><g
     inkscape:groupmode="layer"
     id="layer7"
     inkscape:label="logo"
     transform="translate(-327.4185,-90.470006)"
     inkscape:export-filename="..\ocandequen-back.svg"
     inkscape:export-xdpi="96"
     inkscape:export-ydpi="96"><g
       inkscape:groupmode="layer"
       id="layer2"
       inkscape:label="perro"><path
         d="m 409.38239,230.29108 c 0,-63.59469 47.88581,-127.7675 110.8928,-127.7675 h 7.23191 c 67.98517,0 113.30368,60.95492 113.30368,130.17842 0,36.36451 -19.28548,62.2717 -19.28548,74.73188 0,7.9296 7.23187,10.4334 7.23187,21.6964 v 9.64282 c 0,34.47708 -56.9232,57.85729 -96.42838,57.85729 h -14.46452 c -34.87339,0 -94.01739,-23.57021 -94.01739,-50.62541 v -21.6964 c 0,-10.42659 4.82102,-9.71589 4.82102,-16.8747 0,-15.52018 -19.28551,-44.86677 -19.28551,-77.1428 z m 243.48199,-12.05361 c 0,-30.56967 -18.8317,-63.28579 -31.33908,-81.96389 37.04307,0 79.55297,24.9362 79.55297,60.2675 v 24.10721 c 0,16.54062 -20.4609,77.1429 -33.75,77.1429 -6.21379,0 -16.35199,-23.21419 -16.9786,-31.28659 -0.93479,-12.0324 2.51471,-27.30941 2.51471,-43.44539 z M 339.4721,186.89828 c 0,-38.3244 56.80558,-60.26739 98.8392,-60.26739 -16.86299,25.18209 -32.5452,40.3484 -38.08522,77.62932 -3.6866,24.81036 -5.49339,86.29837 -29.41479,86.29837 -13.12308,0 -31.33919,-62.297 -31.33919,-81.9639 z m 113.30308,-72.3211 c -55.42868,0 -125.35668,21.039 -125.35668,69.91033 v 21.69639 c 0,27.15631 20.2033,96.42828 40.98191,96.42828 h 7.23187 c 11.2207,0 23.0317,-23.23119 24.10732,-36.16018 l 3.25409,0.5364 13.62121,38.0347 c -2.50652,4.73629 -4.8217,7.1089 -4.8217,14.46449 v 24.10721 c 0,37.58018 63.04259,65.08919 106.07107,65.08919 h 12.05371 c 46.3278,0 110.8928,-27.49461 110.8928,-67.50011 V 326.7195 c 0,-9.7221 -7.23191,-16.43602 -7.23191,-19.28562 0,-7.14989 6.2472,-9.86409 7.23191,-21.6964 h 4.82109 c 0.86642,10.40882 11.04219,24.10732 21.6964,24.10732 24.36551,0 45.8036,-66.01989 45.8036,-91.60733 v -21.69639 c 0,-46.7528 -56.13858,-74.73199 -106.0711,-74.73199 -19.37568,-12.97471 -37.86589,-31.339084 -69.91088,-31.339084 h -24.10661 c -23.64669,0 -45.887,14.476804 -60.2681,24.107174"
         style="fill:#f9c516;fill-opacity:1;fill-rule:evenodd;stroke:none;stroke-width:0.352778"
         id="path1836" /><path
         d="m 532.32879,329.13028 c 20.44728,-9.81089 23.24488,-14.1768 28.92831,-38.5717 -5.95062,-8.8863 -19.15573,-12.05297 -33.75,-12.05297 -18.58783,0 -23.02412,4.17117 -36.16022,7.23187 v 9.64283 c 0,24.18168 26.51739,30.49037 26.51739,38.57099 0,4.71449 -11.35789,12.05368 -19.28548,12.05368 -17.05229,0 -18.50651,-12.8245 -21.6964,-26.5175 -6.8055,0.56653 -9.64279,-0.056 -9.64279,7.23191 v 2.41089 c 0,14.4816 14.44678,28.9283 28.92827,28.9283 h 4.8218 c 11.34431,0 17.27172,-7.47589 24.10721,-12.0536 6.8356,4.57771 12.7623,12.0536 24.10661,12.0536 16.48111,0 33.75,-10.61448 33.75,-26.51738 v -4.82181 c 0,-6.88611 -0.7578,-4.40831 -4.82102,-7.23191 -9.58268,7.02081 -4.09187,26.5175 -26.51809,26.5175 -12.2887,0 -16.93831,-6.79799 -19.28559,-16.8747"
         style="fill:#f9c516;fill-opacity:1;fill-rule:evenodd;stroke:none;stroke-width:0.352778"
         id="path1838" /><path
         d="m 549.20349,227.8802 c 0,9.21709 -0.74009,0.8775 2.93229,8.067 l 9.12132,-5.65612 v -12.05361 c 6.71117,-4.49368 8.33208,-9.64279 19.28558,-9.64279 17.05229,0 18.50651,12.8245 21.69629,26.5181 6.80621,-0.56649 9.6435,0.0561 9.6435,-7.23258 v -2.41082 c 0,-14.48159 -14.44667,-28.9283 -28.92898,-28.9283 h -4.82102 c -16.2856,0 -28.92898,14.16653 -28.92898,31.33912"
         style="fill:#f9c516;fill-opacity:1;fill-rule:evenodd;stroke:none;stroke-width:0.352778"
         id="path1840" /><path
         d="m 440.72147,223.05921 v 4.82099 c 0,6.7891 1.04281,4.46369 4.82174,7.23258 9.58267,-7.02138 4.09186,-26.5181 26.51749,-26.5181 h 2.41078 c 16.123,0 15.19032,26.5181 21.69639,26.5181 3.94572,0 7.23262,-1.44318 7.23262,-4.8217 0,-17.25598 -12.97129,-33.75 -28.92901,-33.75 h -9.64269 c -8.35399,0 -24.10732,14.82051 -24.10732,26.51813"
         style="fill:#f9c516;fill-opacity:1;fill-rule:evenodd;stroke:none;stroke-width:0.352778"
         id="path1842" /></g></g></svg>
