<?xml version="1.0" encoding="UTF-8" standalone="no"?>
<!-- Created with Inkscape (http://www.inkscape.org/) -->

<svg
   width="1137.4298mm"
   height="153.1425mm"
   viewBox="0 0 1137.4297 153.1425"
   version="1.1"
   id="svg5"
   xml:space="preserve"
   inkscape:version="1.2 (dc2aedaf03, 2022-05-15)"
   sodipodi:docname="logobar.svg"
   inkscape:export-filename="ocandequen-black.svg"
   inkscape:export-xdpi="96"
   inkscape:export-ydpi="96"
   xmlns:inkscape="http://www.inkscape.org/namespaces/inkscape"
   xmlns:sodipodi="http://sodipodi.sourceforge.net/DTD/sodipodi-0.dtd"
   xmlns="http://www.w3.org/2000/svg"
   xmlns:svg="http://www.w3.org/2000/svg"><sodipodi:namedview
     id="namedview7"
     pagecolor="#ffffff"
     bordercolor="#666666"
     borderopacity="1.0"
     inkscape:showpageshadow="2"
     inkscape:pageopacity="0.0"
     inkscape:pagecheckerboard="0"
     inkscape:deskcolor="#d1d1d1"
     inkscape:document-units="mm"
     showgrid="false"
     inkscape:zoom="0.18863812"
     inkscape:cx="2565.7592"
     inkscape:cy="1235.1692"
     inkscape:window-width="1920"
     inkscape:window-height="1027"
     inkscape:window-x="1912"
     inkscape:window-y="22"
     inkscape:window-maximized="1"
     inkscape:current-layer="layer7" /><defs
     id="defs2" /><g
     inkscape:groupmode="layer"
     id="layer7"
     inkscape:label="logo"
     transform="translate(-348.88928,-86.044216)"
     inkscape:export-filename="..\ocandequen-back.svg"
     inkscape:export-xdpi="96"
     inkscape:export-ydpi="96"><g
       inkscape:groupmode="layer"
       id="layer3"
       inkscape:label="o can de quen"
       transform="translate(-374.4935,-86.961038)"><g
         inkscape:groupmode="layer"
         id="layer5"
         inkscape:label="quen"
         transform="translate(587.6883,-35.897031)"><path
           d="m 1167.0792,223.5398 v -14.63743 l 74.1474,76.04563 v -61.4082 h 31.8977 v 138.50489 l -74.1475,-75.6962 v 61.12591 h -109.3812 v -31.9556 h 0.01 v -10.91441 c -0.4361,3.03322 -1.049,6.04171 -1.8589,9.005 -1.8253,6.59681 -4.7146,12.79159 -8.8946,18.23061 -4.2052,5.47539 -9.5645,9.63249 -15.8254,12.53599 -6.7931,3.14939 -14.2879,4.33299 -21.764,4.36369 -7.5112,-0.0297 -15.1118,-1.1919 -21.9756,-4.35688 -6.2867,-2.8986 -11.6391,-7.06109 -15.8337,-12.56961 -4.16096,-5.4627 -6.98855,-11.66728 -8.71906,-18.27139 -1.89089,-7.045 -2.63899,-14.35301 -2.63899,-21.63572 V 223.5398 h 31.89775 v 73.42561 c 0.019,3.81529 0.591,7.69638 2.2384,11.15688 1.2828,2.67349 3.077,4.79679 5.5945,6.36111 2.8364,1.74798 6.1619,2.3362 9.4527,2.35899 3.2836,-0.0228 6.5662,-0.61591 9.3826,-2.3513 2.5472,-1.5827 4.3467,-3.72149 5.6519,-6.40531 1.6669,-3.45028 2.2312,-7.32007 2.2506,-11.09949 V 223.5398 h 108.5171 z m 0,92.03728 v -60.14007 h -50.3583 v 14.32239 h 43.1402 v 31.69609 h -43.1402 v 14.06331 h 4.7719 v 0.0583 z m -235.81552,32.97203 v 0.61009 l -3.71232,-0.2202 -4.0827,0.42869 v -0.67081 l -0.97899,-0.0583 c -8.13389,-0.48222 -15.9966,-2.42281 -23.38479,-5.91291 -7.09171,-3.3993 -13.45272,-7.9774 -18.8897,-13.67931 -5.43701,-5.73501 -9.70982,-12.35319 -12.7266,-19.66659 -3.12173,-7.5982 -4.58582,-15.61729 -4.64901,-23.82322 v -0.12827 c 0.0641,-8.19323 1.53071,-16.20552 4.6476,-23.79162 3.0099,-7.32839 7.27731,-13.91888 12.7241,-19.66359 5.42921,-5.72921 11.77671,-10.3058 18.9,-13.6876 7.36,-3.51102 15.21241,-5.4224 23.34531,-5.93721 l 1.01208,-0.0641 v -0.68831 l 4.03261,0.4336 3.76241,-0.23819 v 0.64159 l 1.37368,0.14782 c 7.81022,0.83901 15.32431,3.02158 22.3042,6.62989 6.7946,3.51159 12.8398,8.11731 17.96711,13.77449 5.18089,5.6786 9.1887,12.16322 12.0378,19.30351 2.95349,7.39941 4.35441,15.21149 4.387,23.20389 -0.0325,7.8378 -1.36789,15.4589 -4.17999,22.7421 -1.79853,4.6597 -4.10651,9.03023 -6.92732,13.07701 l 24.47794,26.16281 h -41.90753 l -5.4253,-5.88331 c -2.39941,1.2439 -4.8756,2.3313 -7.41111,3.26172 -4.9499,1.853 -10.08888,3.00217 -15.3422,3.55388 z m -4.31211,-31.51862 3.65351,-0.5104 c 0.59838,-0.0846 1.19478,-0.1852 1.78879,-0.30331 l -8.92521,-9.915 v -16.29399 h 25.39859 l 6.4491,6.90019 c 0.0845,-0.21728 0.16672,-0.43699 0.24793,-0.65719 1.2833,-3.4532 1.8457,-7.0829 1.87187,-10.75979 -0.0268,-3.86641 -0.6538,-7.65412 -2.04057,-11.2721 -1.32951,-3.47081 -3.20491,-6.61631 -5.6558,-9.41141 -2.42073,-2.76341 -5.27611,-5.0607 -8.52322,-6.8321 -3.3244,-1.83688 -6.924,-2.96418 -10.67721,-3.51931 l -3.34087,-0.49439 -3.52672,0.2956 c -3.9908,0.33489 -7.83629,1.3178 -11.43099,3.06821 -3.46301,1.6975 -6.5351,3.93449 -9.1591,6.76409 -2.63952,2.84611 -4.67631,6.05921 -6.119,9.66601 -1.5011,3.7556 -2.19861,7.6993 -2.22581,11.73688 0.0268,4.02921 0.71352,7.97782 2.22391,11.73102 1.44371,3.60779 3.47461,6.84668 6.10439,9.68259 2.63511,2.81841 5.70872,5.08261 9.1658,6.77672 3.60451,1.75528 7.45,2.73819 11.4408,3.07308 z"
           style="display:inline;fill:#231f20;fill-opacity:1;fill-rule:evenodd;stroke:none;stroke-width:0.352778"
           id="path1844"
           inkscape:label="fondo" /><path
           d="m 1249.51,231.7901 v 73.4863 l -74.1473,-76.04612 v 21.14042 l 89.478,91.34641 V 231.7901 Z"
           style="fill:#f9c516;fill-opacity:1;fill-rule:evenodd;stroke:none;stroke-width:0.352778"
           id="path1866"
           inkscape:label="n (2)" /><path
           d="m 1175.3627,339.15728 h 15.3306 V 278.7583 l -15.3306,-15.4161 z"
           style="fill:#f9c516;fill-opacity:1;fill-rule:evenodd;stroke:none;stroke-width:0.352778"
           id="path1868"
           inkscape:label="n (1)" /><path
           d="m 1113.2094,323.76989 h -15.3296 v 15.38739 h 61.3483 v -15.3295 h -46.0187 z"
           style="fill:#f9c516;fill-opacity:1;fill-rule:evenodd;stroke:none;stroke-width:0.352778"
           id="path1870"
           inkscape:label="e (2)" /><path
           d="m 1108.4372,247.12059 v 30.89011 h 43.1402 v 15.12778 h -43.1402 v 20.52591 h -10.5491 v -20.52591 h -0.01 V 278.0107 h 0.01 v -30.89011 h -0.01 V 231.7901 h 61.3484 v 15.33049 h -50.7909 z"
           style="fill:#f9c516;fill-opacity:1;fill-rule:evenodd;stroke:none;stroke-width:0.352778"
           id="path1878"
           inkscape:label="e (1)" /><path
           d="m 1066.8459,231.7901 v 65.1745 c -0.029,5.57939 -1.0354,10.4691 -3.0776,14.69658 -2.0425,4.19901 -4.947,7.47822 -8.7433,9.83671 -3.8256,2.35811 -8.3988,3.56599 -13.7479,3.5952 -5.3792,-0.0292 -9.9805,-1.23709 -13.8056,-3.5952 -3.7969,-2.35849 -6.7018,-5.6377 -8.7153,-9.83671 -2.013,-4.22748 -3.0201,-9.11719 -3.0483,-14.69658 v -65.1745 h -15.3305 v 60.0831 c 0,7.10428 0.7768,13.60389 2.3589,19.50078 1.5532,5.92501 3.9973,11.0441 7.3057,15.3869 3.3069,4.34333 7.535,7.6798 12.7124,10.06662 5.1769,2.38718 11.3606,3.56701 18.5227,3.59519 7.0172,-0.0282 13.115,-1.20801 18.2632,-3.59519 5.1483,-2.38682 9.405,-5.72329 12.7411,-10.06662 3.3371,-4.3428 5.8385,-9.46189 7.478,-15.3869 1.6116,-5.89689 2.4451,-12.3965 2.4165,-19.50078 v -60.0831 z"
           style="fill:#f9c516;fill-opacity:1;fill-rule:evenodd;stroke:none;stroke-width:0.352778"
           id="path1872"
           inkscape:label="u" /><path
           d="m 967.30176,321.7278 c 4.37201,-4.83232 7.7373,-10.32559 10.12402,-16.5093 2.38717,-6.1832 3.59519,-12.74109 3.62429,-19.7589 -0.0289,-7.13299 -1.29441,-13.8635 -3.79691,-20.1337 -2.50239,-6.2701 -5.98191,-11.8782 -10.469,-16.7966 -4.45801,-4.91832 -9.69281,-8.916 -15.64661,-11.99352 -5.95319,-3.07739 -12.42508,-5.00479 -19.38549,-5.7519 v 15.44471 c 4.8605,0.71949 9.34759,2.1855 13.46052,4.45802 4.1129,2.24338 7.70809,5.1483 10.75729,8.62827 3.077,3.50961 5.46428,7.47812 7.16121,11.90791 1.6975,4.42881 2.56029,9.17459 2.58847,14.23681 -0.0282,4.83129 -0.805,9.37588 -2.38668,13.6331 -1.5536,4.25629 -3.73909,8.08189 -6.55849,11.47579 l -11.50391,-12.3099 h -13.51841 v 4.83182 l 14.78372,16.42279 c -2.18602,1.29448 -4.54413,2.41639 -7.01731,3.27918 -2.5025,0.89101 -5.0914,1.52393 -7.76641,1.89822 v 15.44529 c 4.6597,-0.48948 9.089,-1.49621 13.31712,-3.07848 4.22807,-1.55262 8.19658,-3.56602 11.84959,-6.03931 l 7.50679,8.13918 h 19.1843 z"
           style="fill:#f9c516;fill-opacity:1;fill-rule:evenodd;stroke:none;stroke-width:0.352778"
           id="path1874"
           inkscape:label="q (2)" /><path
           d="m 871.12308,285.4596 c 0.0573,7.3921 1.37999,14.2942 4.02629,20.73688 2.64629,6.4136 6.3567,12.13791 11.0733,17.1136 4.7171,4.94651 10.21048,8.916 16.45151,11.90692 6.2702,2.96231 13.02889,4.68799 20.30578,5.11958 v -15.35867 c -5.1483,-0.43173 -9.9514,-1.72572 -14.3807,-3.88303 -4.40069,-2.15678 -8.28358,-5.03297 -11.59101,-8.57077 -3.30789,-3.56651 -5.89587,-7.65023 -7.73677,-12.25261 -1.8403,-4.5732 -2.78973,-9.51971 -2.8188,-14.8119 0.0289,-5.26341 0.9785,-10.21052 2.8188,-14.81282 1.8409,-4.60139 4.42888,-8.65689 7.73677,-12.22298 3.30743,-3.5669 7.19032,-6.41399 11.59101,-8.5708 4.4293,-2.15731 9.2324,-3.45179 14.3807,-3.88352 v -15.38739 c -7.27689,0.46041 -14.03558,2.1573 -20.30578,5.14829 -6.24103,2.96281 -11.73441,6.93121 -16.45151,11.90791 -4.7166,4.97569 -8.42701,10.66991 -11.0733,17.11262 -2.6463,6.44267 -3.969,13.34579 -4.02629,20.70869 z"
           style="fill:#f9c516;fill-opacity:1;fill-rule:evenodd;stroke:none;stroke-width:0.352778"
           id="path1876"
           inkscape:label="q (1)" /></g><g
         inkscape:groupmode="layer"
         id="layer6"
         inkscape:label="can de"
         transform="translate(6.822645,120.82476)"><path
           d="m 1025.7668,135.3323 h 8.0503 l -4.0249,-8.86742 z m 60.9148,-38.269512 V 52.180494 l 74.1479,76.046016 V 66.817808 h 31.8976 V 205.32299 L 1118.5798,129.627 v 61.1258 h -59.6237 l -10.3831,-23.0095 h -0.045 l -2.4027,-5.2941 h -32.6677 l -2.4028,5.2941 h -0.044 l -10.3831,23.0095 h -34.96353 l 3.85858,-8.29581 c -1.68628,1.1073 -3.4362,2.11839 -5.24397,3.02941 -4.25383,2.1597 -8.7527,3.79638 -13.39342,4.89839 -4.53288,1.07622 -9.161,1.63329 -13.82081,1.63329 -6.8948,0 -13.7069,-1.04758 -20.26387,-3.20919 -6.28961,-2.08639 -12.20153,-5.06229 -17.57631,-8.9433 -5.31449,-3.83868 -9.96262,-8.41188 -13.88981,-13.65931 -3.95729,-5.2863 -7.00998,-11.12139 -9.1712,-17.376 -2.20828,-6.4559 -3.26319,-13.20387 -3.2948,-20.02049 v -0.0772 c 0.0317,-6.82339 1.09333,-13.55199 3.30111,-20.03989 2.16169,-6.22403 5.21731,-12.054208 9.16489,-17.328412 3.92719,-5.247393 8.57532,-9.820593 13.88981,-13.658921 5.37478,-3.881896 11.2867,-6.857788 17.58308,-8.945598 6.53803,-2.155895 13.3477,-3.203892 20.24743,-3.236383 4.63737,0 9.25728,0.551709 13.7746,1.59191 4.64559,1.069375 9.1512,2.707569 13.4318,4.830868 4.37049,2.184506 8.39978,4.943122 11.98958,8.259234 l 4.40259,4.067668 -14.12208,30.969304 -8.45181,-8.8519 c -1.82919,-1.91618 -3.88589,-3.6049 -6.15548,-4.9995 -2.1548,-1.33329 -4.49051,-2.269593 -6.90012,-2.919974 -2.89179,-0.754415 -5.91531,-1.021221 -8.8761,-1.021221 -4.21651,0.02187 -8.30838,0.778193 -12.19091,2.438718 -3.76428,1.609967 -7.10279,3.830497 -9.99758,6.725607 -2.89472,2.89517 -5.11609,6.23418 -6.72659,9.99758 -1.65421,3.86891 -2.41342,7.96081 -2.46641,12.15929 0.053,4.21101 0.8074,8.30743 2.46641,12.18692 1.6105,3.7639 3.83187,7.10329 6.72708,9.99808 2.8943,2.89521 6.23281,5.11612 9.99709,6.7261 3.88253,1.66003 7.98562,2.41642 12.18061,2.43871 2.93461,0 5.99171,-0.27068 8.8864,-1.05089 2.43441,-0.63482 4.74722,-1.61582 6.87101,-2.92971 2.26808,-1.4175 4.31751,-3.12611 6.15199,-5.06998 l 8.45231,-8.95393 10.78699,23.65351 52.50584,-112.867513 56.8894,122.291513 z m 193.1159,61.792692 c 3.7633,-0.0462 7.5164,-0.6883 10.9833,-2.28317 3.2544,-1.46512 6.0859,-3.51692 8.4757,-6.19094 2.5253,-2.80137 4.383,-6.00868 5.6945,-9.52697 1.4287,-3.87572 2.0476,-7.9628 2.0737,-12.08342 -0.026,-4.14058 -0.6508,-8.2 -2.0702,-12.0742 -1.3081,-3.5087 -3.1471,-6.70141 -5.6689,-9.476 l -0.048,-0.0525 c -2.3911,-2.67599 -5.2138,-4.7166 -8.4673,-6.20359 -3.4605,-1.569088 -7.1724,-2.228183 -10.9358,-2.249209 h -17.2524 v 60.139999 z m 81.9624,-0.0583 h 4.8025 v 0.0583 h 46.0189 v 31.89732 h -77.916 v -25.2095 h -0.022 v -12.58661 c -2.7756,7.29879 -6.8851,13.8684 -12.274,19.52321 -5.6674,5.94639 -12.4781,10.3728 -20.0748,13.46239 -8.3672,3.4047 -17.4096,4.75072 -26.4335,4.81051 h -40.4239 v -31.89732 h 0.029 V 98.715481 h -0.029 V 66.817808 h 40.4302 c 9.108,0.02963 18.2539,1.370789 26.7242,4.801694 7.6298,3.077492 14.4735,7.494199 20.0919,13.498901 5.2727,5.567292 9.2426,12.012506 11.9599,19.181907 V 77.633481 h 0.022 V 66.817808 h 77.916 v 31.897673 h -50.8214 v 14.322429 h 43.1708 v 31.69599 h -43.1708 z"
           style="fill:#231f20;fill-opacity:1;fill-rule:evenodd;stroke:none;stroke-width:0.352778"
           id="path1850"
           inkscape:label="fondo" /><path
           d="m 1358.2789,167.04818 h -15.3301 v 15.38739 h 61.3489 v -15.32949 h -46.0188 z"
           style="fill:#f9c516;fill-opacity:1;fill-rule:evenodd;stroke:none;stroke-width:0.352778"
           id="path1852"
           inkscape:label="e (2)" /><path
           d="m 1342.9488,75.068399 v 10.815602 h -0.022 v 71.342069 h 10.5493 v -20.80926 h 43.1707 v -15.12793 h -43.1707 V 90.398886 h 50.8214 V 75.068399 Z"
           style="fill:#f9c516;fill-opacity:1;fill-rule:evenodd;stroke:none;stroke-width:0.352778"
           id="path1854"
           inkscape:label="e (1)" /><path
           d="m 1275.8474,75.068399 h -32.1262 v 15.330487 h 0.028 v 64.725304 h 10.5492 V 90.398886 h 25.5468 c 5.2348,0.02822 10.0379,1.034909 14.3516,2.990991 4.3438,1.984728 8.0823,4.717098 11.2177,8.225723 3.1635,3.48001 5.58,7.53551 7.3055,12.1661 1.697,4.63049 2.5599,9.60618 2.588,14.95619 -0.028,5.349 -0.891,10.35389 -2.588,14.95581 -1.7255,4.63098 -4.142,8.68598 -7.3055,12.19468 -3.1354,3.50911 -6.8739,6.24201 -11.2177,8.19753 -4.3137,1.9848 -9.1168,2.96227 -14.3516,3.02017 h -36.1243 v 15.32949 h 32.1262 c 8.7435,-0.0573 16.5385,-1.43778 23.3255,-4.19886 6.7877,-2.76151 12.5121,-6.58612 17.1999,-11.50493 4.6599,-4.88918 8.2258,-10.58429 10.6417,-17.05529 2.4165,-6.47189 3.6243,-13.46048 3.6243,-20.9386 0,-7.47811 -1.1792,-14.43859 -3.5091,-20.90998 -2.3584,-6.47093 -5.8385,-12.166003 -10.4691,-17.055714 -4.6024,-4.918287 -10.3257,-8.743421 -17.1708,-11.504401 -6.8166,-2.761615 -14.6973,-4.170292 -23.6424,-4.199396 z"
           style="fill:#f9c516;fill-opacity:1;fill-rule:evenodd;stroke:none;stroke-width:0.352778"
           id="path1856"
           inkscape:label="d" /><path
           d="m 1169.113,75.068399 v 73.486191 l -74.1474,-76.045982 v 21.140385 l 89.478,91.346407 V 75.068399 Z"
           style="fill:#f9c516;fill-opacity:1;fill-rule:evenodd;stroke:none;stroke-width:0.352778"
           id="path1858"
           inkscape:label="n (2)" /><path
           d="m 1094.9656,182.43557 h 15.3301 V 122.0366 l -15.3301,-15.41611 z"
           style="fill:#f9c516;fill-opacity:1;fill-rule:evenodd;stroke:none;stroke-width:0.352778"
           id="path1860"
           inkscape:label="n (1)" /><path
           d="M 1029.7922,72.508608 978.65376,182.43557 h 16.62402 l 10.38312,-23.00936 h 0.057 l 24.074,-53.03612 16.8822,37.19269 h -26.2149 v 10.54982 h 31.0024 l 2.4033,5.29361 h 0.058 l 10.3829,23.00936 h 16.6242 z"
           style="fill:#f9c516;fill-opacity:1;fill-rule:evenodd;stroke:none;stroke-width:0.352778"
           id="path1862"
           inkscape:label="a" /><path
           d="m 936.11536,168.37138 c -5.49339,-0.0292 -10.64168,-1.06457 -15.41611,-3.10621 -4.77449,-2.04208 -8.97389,-4.86046 -12.5972,-8.48479 -3.6244,-3.62388 -6.44278,-7.82328 -8.48529,-12.59721 -2.04209,-4.77498 -3.07749,-9.92318 -3.13489,-15.44528 0.0574,-5.49338 1.0928,-10.64161 3.13489,-15.4166 2.04251,-4.77439 4.86089,-8.97329 8.48529,-12.59769 3.62331,-3.623806 7.82271,-6.442712 12.5972,-8.484307 4.77443,-2.04209 9.92272,-3.077493 15.41611,-3.106703 4.02682,0 7.70802,0.431695 11.01591,1.294518 3.3074,0.891999 6.3567,2.157272 9.1459,3.882884 2.76158,1.697003 5.37821,3.796983 7.79459,6.327598 l 6.558,-14.380703 c -3.0202,-2.79019 -6.38538,-5.090901 -10.06708,-6.931307 -3.71041,-1.841289 -7.59241,-3.250495 -11.59101,-4.17068 -3.99771,-0.920221 -7.9667,-1.381019 -11.90702,-1.381019 -6.1836,0.02928 -12.07999,0.978499 -17.65939,2.818906 -5.55169,1.840794 -10.67078,4.429301 -15.33048,7.795013 -4.65882,3.3643 -8.6856,7.333791 -12.10832,11.906991 -3.42308,4.573199 -6.06891,9.606209 -7.96759,15.070909 -1.86899,5.49339 -2.81842,11.27461 -2.8466,17.37219 0.0282,6.09759 0.97761,11.90699 2.8466,17.3717 1.89868,5.49342 4.54451,10.52742 7.96759,15.09959 3.42272,4.5737 7.4495,8.54273 12.10832,11.90791 4.6597,3.3648 9.77879,5.9533 15.33048,7.79459 5.5794,1.84041 11.47579,2.7892 17.65939,2.7892 3.94032,0 7.90931,-0.45928 11.90702,-1.40867 3.9986,-0.94933 7.8806,-2.35903 11.56279,-4.22801 3.70992,-1.86962 7.0751,-4.1994 10.0953,-6.96052 l -6.558,-14.3807 c -2.41638,2.55982 -5.03301,4.68792 -7.79459,6.4136 -2.7892,1.72611 -5.8385,3.04882 -9.1459,3.9116 -3.30789,0.89151 -6.98909,1.3232 -11.01591,1.3232 z"
           style="fill:#f9c516;fill-opacity:1;fill-rule:evenodd;stroke:none;stroke-width:0.352778"
           id="path1864"
           inkscape:label="c" /></g><g
         inkscape:groupmode="layer"
         id="layer4"
         inkscape:label="o"
         transform="translate(0,120.78752)"><path
           d="m 785.96468,162.12538 3.62888,-0.41628 c 4.09501,-0.46961 7.99712,-1.58439 11.65232,-3.47962 3.5355,-1.8452 6.62771,-4.24529 9.29711,-7.21247 2.68848,-2.9888 4.73579,-6.34873 6.20518,-10.10613 1.53039,-3.8874 2.21439,-7.96417 2.24159,-12.13609 -0.0279,-4.16101 -0.7135,-8.25429 -2.24018,-12.13269 -1.47221,-3.74001 -3.51712,-7.11969 -6.19262,-10.09442 -2.68288,-2.95819 -5.78641,-5.3564 -9.34018,-7.19928 -3.64201,-1.900908 -7.54789,-3.011417 -11.62272,-3.478601 l -3.62988,-0.415925 -3.60401,0.415431 c -4.064,0.468595 -7.9919,1.581997 -11.63539,3.483787 -3.54531,1.838188 -6.64841,4.236398 -9.3219,7.183788 -2.68482,2.98553 -4.72691,6.35572 -6.1921,10.0783 -1.50932,3.89692 -2.22292,7.98442 -2.25051,12.15961 0.0275,4.18702 0.7389,8.25571 2.24769,12.1521 1.46703,3.75039 3.51102,7.10132 6.19961,10.09061 2.67212,2.97039 5.77152,5.3696 9.32572,7.21247 3.63498,1.89714 7.56338,3.01093 11.62787,3.47963 z m 2.63359,29.44721 v 0.44559 l -2.62329,-0.22278 -2.62329,0.22278 v -0.44559 l -2.38901,-0.20299 c -7.88681,-0.67021 -15.48959,-2.693 -22.58032,-6.2164 -6.91589,-3.42061 -13.0423,-7.99761 -18.29929,-13.66721 -5.22869,-5.6738 -9.32278,-12.1581 -12.2344,-19.3311 -2.99371,-7.45789 -4.43399,-15.31838 -4.46589,-23.3523 v -0.056 c 0.0317,-8.02072 1.4774,-15.87751 4.47111,-23.33541 2.90449,-7.156023 6.99618,-13.672817 12.23998,-19.330596 5.24951,-5.661625 11.3726,-10.234824 18.28292,-13.652606 7.0963,-3.525696 14.69908,-5.548595 22.58539,-6.218802 l 2.38951,-0.203412 v -0.445981 l 2.62329,0.223202 2.62329,-0.223202 v 0.445981 l 2.38961,0.203412 c 7.88628,0.670207 15.4891,2.693106 22.57968,6.215909 6.916,3.420675 13.03542,7.990099 18.27872,13.644175 5.2729,5.654005 9.33979,12.171821 12.2555,19.3542 2.98859,7.44562 4.43357,15.30241 4.4655,23.32313 v 0.056 c -0.0321,8.03392 -1.47183,15.89441 -4.47061,23.365 -2.9125,7.17392 -6.98169,13.6597 -12.24061,19.33071 -5.2499,5.6611 -11.37529,10.23571 -18.28561,13.65349 -7.09069,3.5234 -14.69629,5.5476 -22.58306,6.21781 z"
           style="display:inline;fill:#231f20;fill-opacity:1;fill-rule:evenodd;stroke:none;stroke-width:0.352778"
           id="path1846"
           inkscape:label="fondo" /><path
           d="m 730.42949,128.78171 c 0.0289,7.37789 1.36609,14.2893 3.95319,20.73409 2.61609,6.44479 6.24949,12.1605 10.8713,17.17629 4.65078,5.0159 10.05738,9.06939 16.24881,12.13139 6.16239,3.06201 12.84799,4.8992 20.05679,5.51163 v -15.6016 c -5.05781,-0.58332 -9.7668,-1.98311 -14.06882,-4.2285 -4.33108,-2.2455 -8.08079,-5.1617 -11.3073,-8.74861 -3.22657,-3.5869 -5.72639,-7.64042 -7.52859,-12.24802 -1.7731,-4.57838 -2.7033,-9.47759 -2.7323,-14.72667 0.0289,-5.22002 0.9592,-10.14832 2.7323,-14.72671 1.8022,-4.57849 4.30202,-8.66112 7.52859,-12.24802 3.22651,-3.5578 6.97622,-6.474003 11.3073,-8.719398 4.30202,-2.245501 9.01101,-3.645288 14.06882,-4.2285 V 73.257484 c -7.2088,0.612423 -13.8944,2.449619 -20.05679,5.511624 -6.19143,3.06197 -11.59803,7.115493 -16.24881,12.131287 -4.62181,4.98669 -8.25521,10.731605 -10.8713,17.176395 -2.5871,6.44469 -3.9242,13.3561 -3.95319,20.70492 z m 59.96668,-55.524226 v 15.601598 c 5.0868,0.583212 9.76672,1.982999 14.06881,4.2285 4.33109,2.245395 8.08069,5.161598 11.3073,8.719398 3.22651,3.5869 5.72629,7.66953 7.52849,12.24802 1.8022,4.57839 2.7033,9.50669 2.73241,14.72671 -0.0289,5.24908 -0.93021,10.14829 -2.73241,14.72667 -1.8022,4.6076 -4.30198,8.66112 -7.52849,12.24802 -3.22661,3.58691 -6.97621,6.50311 -11.2783,8.74861 -4.33109,2.24539 -9.01101,3.64518 -14.09781,4.2285 v 15.6016 c 7.2088,-0.61243 13.8944,-2.44962 20.05672,-5.51163 6.19139,-3.062 11.59799,-7.11549 16.24887,-12.13139 4.65081,-5.01579 8.25511,-10.7315 10.87131,-17.17629 2.58699,-6.44479 3.92419,-13.3562 3.95319,-20.73409 -0.0289,-7.34882 -1.3662,-14.26023 -3.95319,-20.70492 -2.6162,-6.44479 -6.2205,-12.189705 -10.87131,-17.176395 -4.65088,-5.015794 -10.05748,-9.069317 -16.24887,-12.131287 -6.16232,-3.062005 -12.84792,-4.899201 -20.05672,-5.511624 z"
           style="display:inline;fill:#f9c516;fill-opacity:1;fill-rule:nonzero;stroke:none;stroke-width:0.352778"
           id="path1848"
           inkscape:label="o" /></g></g></g></svg>
