<?xml version="1.0" encoding="UTF-8" standalone="no"?>
<!-- Created with Inkscape (http://www.inkscape.org/) -->

<svg
   width="1085.163mm"
   height="394.79199mm"
   viewBox="0 0 1085.1629 394.79199"
   version="1.1"
   id="svg5"
   xml:space="preserve"
   inkscape:version="1.2 (dc2aedaf03, 2022-05-15)"
   sodipodi:docname="ocandequen.svg"
   inkscape:export-filename="ocandequen-black.svg"
   inkscape:export-xdpi="96"
   inkscape:export-ydpi="96"
   xmlns:inkscape="http://www.inkscape.org/namespaces/inkscape"
   xmlns:sodipodi="http://sodipodi.sourceforge.net/DTD/sodipodi-0.dtd"
   xmlns="http://www.w3.org/2000/svg"
   xmlns:svg="http://www.w3.org/2000/svg"><sodipodi:namedview
     id="namedview7"
     pagecolor="#ffffff"
     bordercolor="#666666"
     borderopacity="1.0"
     inkscape:showpageshadow="2"
     inkscape:pageopacity="0.0"
     inkscape:pagecheckerboard="0"
     inkscape:deskcolor="#d1d1d1"
     inkscape:document-units="mm"
     showgrid="false"
     inkscape:zoom="0.18863812"
     inkscape:cx="487.70631"
     inkscape:cy="3127.6818"
     inkscape:window-width="1920"
     inkscape:window-height="1027"
     inkscape:window-x="1912"
     inkscape:window-y="22"
     inkscape:window-maximized="1"
     inkscape:current-layer="layer7" /><defs
     id="defs2" /><g
     inkscape:groupmode="layer"
     id="layer7"
     inkscape:label="logo"
     transform="translate(-327.41851,-52.180503)"
     inkscape:export-filename="..\ocandequen-back.svg"
     inkscape:export-xdpi="96"
     inkscape:export-ydpi="96"><g
       inkscape:groupmode="layer"
       id="layer1"
       inkscape:label="peluqueria canina"><path
         d="m 881.93706,426.00958 c 0.0877,0.0293 0.16563,0.0488 0.23382,0.0682 0.078,0.01 0.14608,0.0195 0.22408,0.0195 0.1656,0 0.32142,-0.0487 0.4481,-0.14608 0.13631,-0.0974 0.25322,-0.24349 0.35059,-0.42859 0.0487,-0.0779 0.10721,-0.19481 0.16563,-0.34093 0.0585,-0.13638 0.13638,-0.3799 0.24359,-0.7209 0.0974,-0.34089 0.24349,-0.85718 0.42859,-1.5391 0.185,-0.67207 0.43829,-1.59748 0.75001,-2.75667 0.31171,-1.16893 0.70139,-2.6398 1.1787,-4.43223 0.40912,-1.51959 0.71109,-2.6203 0.9059,-3.29248 0.1948,-0.67211 0.31171,-1.0033 0.35069,-0.98379 0.039,-0.0195 0.10721,-0.0293 0.20461,-0.039 0.0876,-0.0195 0.19481,-0.0292 0.31168,-0.0487 0.42863,-0.0584 0.95462,-0.15593 1.57801,-0.2825 0.6235,-0.13642 1.2566,-0.28251 1.8995,-0.4578 2.46451,-0.70143 4.86082,-1.67552 7.1695,-2.93212 2.31842,-1.25659 4.55881,-2.78588 6.73111,-4.59779 2.49371,-2.1917 4.364,-4.43222 5.61079,-6.7311 1.23719,-2.29891 1.86062,-4.66602 1.86062,-7.0817 0,-0.66241 -0.0293,-1.25659 -0.0974,-1.78272 -0.0682,-0.526 -0.1754,-1.04229 -0.33123,-1.55847 -0.2728,-0.87662 -0.6235,-1.67541 -1.05209,-2.42552 -0.41878,-0.74031 -0.9254,-1.43189 -1.50978,-2.05529 -1.01311,-1.07149 -2.23072,-1.93851 -3.64321,-2.61062 -1.41252,-0.67219 -3.0197,-1.1592 -4.8316,-1.4417 -0.69159,-0.0974 -1.38321,-0.1754 -2.0943,-0.23379 -0.7111,-0.0487 -1.43189,-0.0779 -2.1625,-0.0779 -1.87032,0 -3.7211,0.15579 -5.57191,0.4675 -1.85078,0.31179 -3.69189,0.78909 -5.533,1.41249 -3.68208,1.25659 -6.67258,2.97099 -8.98119,5.13351 -0.85729,0.81831 -1.50989,1.60719 -1.95799,2.37681 -0.43833,0.76948 -0.68192,1.51959 -0.7306,2.25019 v 0.22398 c 0.01,0.62343 0.16559,1.12021 0.4773,1.48061 0.30198,0.3605 0.7111,0.55531 1.2372,0.57482 0.1168,0.01 0.21427,0 0.3019,-0.0195 0.0877,-0.0195 0.20458,-0.0585 0.341,-0.13642 0.13628,-0.0779 0.34089,-0.20447 0.61369,-0.37987 1.39291,-0.88643 3.01971,-1.80213 4.88019,-2.74701 0.9254,-0.4578 1.8216,-0.86692 2.66911,-1.23712 0.85718,-0.37017 1.68519,-0.68189 2.46451,-0.95459 1.47091,-0.52588 2.93208,-0.9351 4.39317,-1.2078 1.46121,-0.28251 2.93212,-0.4384 4.40302,-0.47731 h 0.59419 c 3.8282,0 6.50702,0.76951 8.04612,2.30851 0.2728,0.2728 0.50659,0.56501 0.69158,0.87669 0.18511,0.31171 0.341,0.6527 0.4481,1.0131 0.0585,0.14612 0.0974,0.28251 0.11691,0.39942 0.0194,0.12661 0.0293,0.27269 0.0293,0.4481 0,0.11691 0,0.25318 0,0.40908 -0.01,0.15582 -0.01,0.34092 -0.0293,0.53573 -0.0194,0.38967 -0.0389,0.69169 -0.0584,0.89619 -0.0293,0.20458 -0.0585,0.37991 -0.10717,0.5358 -0.0389,0.14609 -0.0974,0.34089 -0.1753,0.56501 -0.2728,0.85718 -0.70143,1.7241 -1.2858,2.59108 -0.57482,0.87669 -1.31512,1.76311 -2.19181,2.65931 -1.33449,1.33449 -2.80539,2.5424 -4.42239,3.64321 -1.61713,1.1007 -3.38991,2.0846 -5.30891,2.95148 -0.37021,0.1754 -0.75012,0.34099 -1.14949,0.50659 -0.40912,0.15582 -0.75982,0.2922 -1.05202,0.3896 -0.30198,0.10721 -0.48708,0.1559 -0.5455,0.1559 h -0.0293 c 0,-0.039 0.0487,-0.20458 0.15578,-0.48708 0.0974,-0.28251 0.2436,-0.68192 0.4481,-1.18841 0.39942,-1.03261 0.8865,-2.23068 1.4514,-3.60418 0.2728,-0.66242 0.5455,-1.32483 0.8183,-1.95803 0.2727,-0.6429 0.5357,-1.26629 0.8085,-1.86048 0.25329,-0.58451 0.46761,-1.1008 0.65271,-1.5488 0.1948,-0.4579 0.31168,-0.76962 0.3799,-0.93521 0.0584,-0.1851 0.0974,-0.3604 0.12658,-0.53569 0.0293,-0.17541 0.039,-0.3507 0.039,-0.51629 0,-0.42863 -0.0682,-0.82801 -0.21442,-1.19821 -0.14609,-0.37991 -0.3701,-0.7208 -0.67208,-1.03251 -0.2922,-0.31168 -0.6332,-0.5455 -1.02281,-0.7014 -0.3799,-0.16559 -0.79879,-0.24348 -1.25659,-0.24348 -0.71109,0 -1.34429,0.1851 -1.88002,0.5455 -0.5455,0.36039 -1.00337,0.89619 -1.37347,1.62669 -0.33123,0.6235 -0.71113,1.4417 -1.15923,2.4451 -0.4384,1.0033 -0.93518,2.19171 -1.49038,3.57488 -0.57471,1.38331 -1.091,2.68862 -1.56831,3.8965 -0.46761,1.21761 -0.88639,2.35733 -1.25659,3.40931 l -0.5455,1.5391 -0.94492,-0.0487 c -1.13968,-0.0487 -2.16249,-0.17533 -3.05869,-0.37991 -0.8962,-0.21431 -1.67548,-0.49682 -2.32808,-0.84741 -0.58452,-0.30201 -1.04232,-0.67221 -1.37351,-1.12031 -0.33122,-0.43829 -0.5455,-0.95458 -0.62339,-1.5391 -0.0293,-0.2727 -0.078,-0.4675 -0.12672,-0.60389 -0.0584,-0.12661 -0.11691,-0.1948 -0.1948,-0.1948 -0.039,0 -0.0974,0.0195 -0.1656,0.0584 -0.0584,0.039 -0.12661,0.0974 -0.20461,0.17537 -0.2824,0.32141 -0.49668,0.69162 -0.6429,1.1007 -0.13628,0.40911 -0.21428,0.84751 -0.21428,1.32482 0,0.0974 0.01,0.1948 0.0194,0.29221 0.01,0.10717 0.0293,0.20457 0.039,0.30197 0.30201,1.4417 1.06179,2.68852 2.2891,3.75031 1.21768,1.06179 2.89309,1.94822 5.01671,2.6398 0.30198,0.10721 0.52599,0.18511 0.67208,0.2436 0.14612,0.0584 0.21431,0.1071 0.21431,0.12661 0,0.0292 -0.0293,0.13638 -0.0779,0.34089 -0.0487,0.20461 -0.10721,0.4579 -0.1753,0.75011 -0.24363,1.0813 -0.42862,2.11381 -0.55531,3.09771 -0.12661,0.98379 -0.1851,1.91897 -0.1948,2.80539 0,0.33119 0.01,0.65271 0.0293,0.96439 0.0194,0.31171 0.0487,0.62339 0.0877,0.92541 0.0779,0.53569 0.1753,1.07149 0.28247,1.60729 0.1071,0.53569 0.23382,1.03251 0.36043,1.50011 0.13639,0.4578 0.27277,0.84748 0.41889,1.1689 0.20451,0.40908 0.43829,0.75011 0.69159,1.0131 0.24352,0.263 0.51632,0.4578 0.8182,0.58438 z m 36.29529,-25.9794 c -0.95458,0 -1.9092,0.23382 -2.84438,0.69162 -0.94491,0.4578 -1.88002,1.14938 -2.80539,2.07479 -1.0813,1.03262 -2.01641,2.25019 -2.78603,3.65291 -0.76948,1.39298 -1.39287,2.9906 -1.86048,4.77319 -0.11691,0.46761 -0.21431,0.9059 -0.2825,1.2858 -0.0779,0.38961 -0.13639,0.74031 -0.1753,1.06179 -0.0585,0.31172 -0.0974,0.66241 -0.11691,1.05202 -0.0194,0.38968 -0.0293,0.81831 -0.0293,1.28581 v 0.5455 c 0,0.41889 0.01,0.78909 0.0389,1.10077 0.0293,0.32142 0.0682,0.62343 0.12672,0.8962 0.0487,0.2825 0.11677,0.57471 0.20447,0.88642 1.11051,3.4483 3.3704,5.48418 6.76032,6.0784 0.1754,0.0195 0.34099,0.0293 0.51629,0.039 0.16559,0.01 0.34092,0.0195 0.51632,0.0195 2.20148,0 4.42228,-0.94488 6.68228,-2.82491 0.40912,-0.33118 0.82801,-0.7209 1.2566,-1.1787 0.42862,-0.44809 0.86691,-0.96438 1.30531,-1.5391 0.88639,-1.1105 2.02611,-2.70799 3.42879,-4.79259 1.05212,-1.61699 1.84111,-2.90279 2.37691,-3.84771 0.52599,-0.95469 0.78899,-1.56827 0.78899,-1.84108 0,-0.0195 -0.01,-0.0487 -0.0194,-0.0682 -0.01,-0.01 -0.0194,-0.0292 -0.039,-0.0389 h -0.0584 c -0.10721,0 -0.33122,0.13628 -0.66241,0.42859 -0.33119,0.29221 -0.77932,0.7208 -1.33449,1.30531 -1.75341,1.85078 -3.20481,3.32169 -4.3543,4.4419 -1.13972,1.11051 -1.9969,1.86048 -2.5522,2.24039 -0.50652,0.3605 -1.04232,0.67221 -1.61703,0.94491 -0.56497,0.263 -1.12988,0.47731 -1.68519,0.6235 -0.54539,0.15579 -1.05191,0.23368 -1.51948,0.23368 -0.30201,0 -0.60392,-0.0389 -0.8962,-0.12658 -0.3019,-0.0779 -0.60392,-0.2045 -0.90593,-0.36039 -0.46757,-0.23383 -0.8085,-0.48712 -1.05198,-0.75982 -0.23379,-0.2728 -0.39942,-0.6332 -0.48712,-1.06179 v -0.0292 c -0.0293,-0.11691 -0.0487,-0.21431 -0.0682,-0.2825 -0.01,-0.0779 -0.0194,-0.13639 -0.0194,-0.1753 0,-0.0682 0.0194,-0.12668 0.0585,-0.15589 0.039,-0.039 0.0974,-0.0584 0.1656,-0.0779 0,-0.01 0,-0.0195 0.01,-0.0195 0,0 0.01,-0.01 0.0194,-0.01 0.50649,-0.25319 1.02278,-0.57471 1.56828,-0.96428 0.5455,-0.38972 1.11051,-0.84752 1.69502,-1.37351 0.56498,-0.52602 1.10071,-1.05202 1.57787,-1.58781 0.48712,-0.5358 0.91571,-1.0813 1.30532,-1.63651 0.48711,-0.7403 0.906,-1.50008 1.25659,-2.2697 0.3507,-0.76948 0.6429,-1.5586 0.85722,-2.35729 0.0682,-0.33119 0.12668,-0.65271 0.16559,-0.9839 0.039,-0.32138 0.0585,-0.6429 0.0585,-0.95458 0,-0.20461 -0.01,-0.38961 -0.0194,-0.56501 -0.0194,-0.1753 -0.039,-0.34089 -0.0682,-0.49682 -0.25319,-1.03247 -0.76948,-1.841 -1.5488,-2.41579 -0.78899,-0.565 -1.76308,-0.85721 -2.93201,-0.86691 z m 1.88972,4.13992 c 0.0877,0 0.13639,0.0585 0.1656,0.1754 0.0487,0.12661 0.0779,0.25319 0.1071,0.38961 0.0293,0.13638 0.039,0.2825 0.039,0.43839 0,0.35059 -0.0584,0.75001 -0.1851,1.18841 -0.12658,0.43829 -0.31168,0.90589 -0.5552,1.40267 -0.4578,0.87673 -1.05188,1.7924 -1.78248,2.75672 -0.7306,0.96438 -1.58782,1.96768 -2.59119,3.01981 -0.37991,0.37987 -0.66241,0.65257 -0.84741,0.8182 -0.1754,0.15589 -0.2825,0.23378 -0.32152,0.23378 -0.0194,0 -0.0293,0 -0.0293,0 0,-0.01 0,-0.01 0,-0.0292 0,-0.0682 0.0293,-0.25329 0.0974,-0.5358 0.0584,-0.2922 0.13639,-0.60388 0.22398,-0.94488 0.0877,-0.34092 0.1656,-0.62339 0.24359,-0.85721 0.37991,-1.12998 0.80854,-2.17219 1.28581,-3.12688 0.48701,-0.95462 1.02281,-1.81183 1.60733,-2.59112 0.20447,-0.263 0.45779,-0.5552 0.74026,-0.86699 0.29221,-0.31171 0.56491,-0.58441 0.81813,-0.828 0.2533,-0.25319 0.4384,-0.39931 0.55527,-0.4675 0.19481,-0.11691 0.34093,-0.1754 0.42863,-0.1754 z m 24.19678,-29.67119 c -1.7339,0.0779 -3.39957,0.9936 -4.96788,2.73717 -1.0813,1.3541 -2.23069,3.1854 -3.4289,5.48432 -1.1981,2.29891 -2.4645,5.07499 -3.78929,8.32848 -0.75981,1.91901 -1.43192,3.85752 -2.02611,5.8057 -0.60399,1.94821 -1.11051,3.9159 -1.5391,5.89333 -0.42862,1.9872 -0.75011,3.86718 -0.96442,5.63037 -0.21428,1.77292 -0.32138,3.41912 -0.32138,4.94852 0,0.25319 0,0.50648 0,0.75 0.01,0.24349 0.0194,0.49678 0.0293,0.73061 0.14608,3.08789 0.62339,5.43549 1.4514,7.03308 0.47727,0.96432 1.06179,1.7339 1.75337,2.31831 0.69162,0.58449 1.50012,0.9839 2.41583,1.19818 0.12657,0.0292 0.26299,0.0487 0.41888,0.0682 0.14609,0.01 0.30191,0.0195 0.4578,0.0195 0.30202,0 0.59422,-0.0195 0.88639,-0.0585 0.28251,-0.0389 0.55531,-0.0974 0.82801,-0.1753 0.70139,-0.22408 1.38331,-0.58448 2.03591,-1.091 0.66238,-0.50659 1.29558,-1.14949 1.90931,-1.93851 0.34089,-0.42859 0.70128,-0.93507 1.091,-1.51959 0.37987,-0.59419 0.77928,-1.2664 1.1981,-2.01641 0.40919,-0.75978 0.7988,-1.5294 1.1787,-2.29888 0.37987,-0.77932 0.75008,-1.5683 1.10067,-2.3671 0.0877,-0.20461 0.1851,-0.48701 0.31182,-0.83771 0.13631,-0.35069 0.263,-0.71109 0.38961,-1.08129 0.13638,-0.3701 0.24348,-0.68192 0.33119,-0.95462 0.0877,-0.263 0.13638,-0.41889 0.13638,-0.46757 0,-0.01 0,-0.0292 -0.01,-0.0389 -0.01,-0.01 -0.0293,-0.0195 -0.0682,-0.0195 -0.0487,-0.01 -0.14608,0.0779 -0.31167,0.25319 -0.15583,0.1754 -0.41882,0.48711 -0.76952,0.94491 -0.3507,0.45791 -0.84748,1.11051 -1.4612,1.94822 -0.4481,0.57478 -0.83768,1.0813 -1.18841,1.51959 -0.34089,0.44809 -0.64286,0.828 -0.89619,1.13979 -0.2727,0.31171 -0.5455,0.61362 -0.8085,0.89609 -0.263,0.29231 -0.52599,0.5553 -0.79879,0.8183 -0.59419,0.58452 -1.15909,1.05202 -1.68519,1.39301 -0.52603,0.34089 -1.013,0.56491 -1.4514,0.66241 -0.0877,0.0194 -0.15582,0.0292 -0.22401,0.0389 -0.0585,0.01 -0.10721,0.0195 -0.14609,0.0195 -0.039,0 -0.0682,0 -0.0877,-0.01 -0.0194,-0.01 -0.0487,-0.039 -0.0877,-0.078 -0.34092,-0.48701 -0.62343,-1.37351 -0.85721,-2.65931 -0.22402,-1.28577 -0.34089,-2.65927 -0.34089,-4.11067 0,-0.14612 0,-0.29231 0,-0.42863 0.01,-0.14608 0.01,-0.29227 0.0293,-0.42859 0.0293,-0.94491 0.11691,-1.97749 0.25333,-3.10741 0.13628,-1.12998 0.33119,-2.3574 0.57467,-3.67238 l 0.19481,-1.05212 0.51629,-0.42859 c 0.36043,-0.30191 0.75981,-0.70129 1.1981,-1.19811 0.4384,-0.48708 0.91571,-1.07149 1.43203,-1.74367 0.51629,-0.67211 1.02278,-1.38321 1.51959,-2.12351 0.50649,-0.75011 1.0033,-1.5391 1.50979,-2.3574 0.52609,-0.85722 1.02291,-1.7144 1.47101,-2.57161 0.4578,-0.86699 0.88639,-1.7242 1.26629,-2.60089 0.38961,-0.85722 0.7988,-1.84111 1.21762,-2.95152 0.42859,-1.11047 0.88649,-2.33789 1.35399,-3.69178 0.46761,-1.4417 0.82801,-2.7275 1.06179,-3.84771 0.24349,-1.12999 0.3604,-2.09441 0.3604,-2.8931 0,-0.12668 0,-0.24359 0,-0.3605 -0.01,-0.11691 -0.0194,-0.22398 -0.0293,-0.32138 -0.14608,-0.84752 -0.4578,-1.51963 -0.94488,-2.02622 -0.48701,-0.51618 -1.14942,-0.85721 -1.9872,-1.03251 -0.1168,-0.01 -0.23371,-0.0195 -0.34092,-0.0195 -0.11688,0 -0.23379,-0.01 -0.3507,0 z m 0.94492,6.55567 c 0.0194,0.13642 0.0194,0.2631 0.0293,0.38971 0,0.12662 0,0.2533 0,0.37991 0,0.98379 -0.20451,2.14298 -0.62343,3.4581 -0.40908,1.31488 -1.03247,2.81499 -1.86048,4.48078 -0.2825,0.59421 -0.57481,1.1884 -0.88649,1.75341 -0.30191,0.57471 -0.61373,1.13972 -0.94492,1.69492 -0.32138,0.56497 -0.70129,1.1884 -1.13968,1.88979 -0.43833,0.70129 -0.92541,1.47091 -1.48061,2.30858 -0.3507,0.52603 -0.65271,1.00341 -0.92541,1.432 -0.2728,0.42862 -0.52599,0.80853 -0.7306,1.13972 -0.0487,0.0682 -0.0877,0.13631 -0.12658,0.1948 -0.039,0.0487 -0.078,0.1071 -0.10721,0.14608 -0.16559,0.29221 -0.30201,0.50652 -0.3896,0.6234 -0.0877,0.11691 -0.13639,0.1754 -0.1559,0.1754 v -0.0292 c 0.01,-0.039 0.0487,-0.19491 0.11691,-0.44809 0.0779,-0.26303 0.1656,-0.58452 0.28247,-0.96443 0.11691,-0.3799 0.23382,-0.76948 0.3604,-1.1884 0.12672,-0.40908 0.24352,-0.78899 0.36043,-1.13968 0.36047,-1.091 0.75978,-2.22102 1.20788,-3.36071 0.4579,-1.14938 0.94491,-2.32808 1.47091,-3.5458 0.52609,-1.1981 1.05209,-2.32809 1.57811,-3.38011 0.51629,-1.06179 1.04228,-2.05528 1.56828,-2.98069 0.15589,-0.30201 0.33122,-0.60388 0.52602,-0.9254 0.19488,-0.31168 0.39938,-0.6332 0.61369,-0.95458 0.21428,-0.33123 0.40909,-0.61373 0.58449,-0.85722 0.16559,-0.24349 0.32141,-0.42859 0.4481,-0.57471 l 0.16559,-0.22408 0.0584,0.50648 z m 13.57909,44.36082 c 0.0682,0.01 0.13631,0.0195 0.21431,0.0293 0.0779,0 0.15578,0 0.24348,0 0.24353,0 0.49682,-0.0195 0.75012,-0.0585 0.25318,-0.0389 0.4773,-0.0877 0.67211,-0.14609 0.43829,-0.12661 0.94488,-0.40911 1.51959,-0.84751 0.57471,-0.43829 1.20791,-1.03251 1.9093,-1.77289 0.89609,-0.95461 1.78259,-2.104 2.6495,-3.44829 0.86699,-1.34433 1.7145,-2.89313 2.54251,-4.627 0.51618,-1.11051 0.76948,-1.88983 0.76948,-2.31842 0,-0.1071 -0.0194,-0.1948 -0.0487,-0.2533 -0.0293,-0.0584 -0.0779,-0.0876 -0.15592,-0.0876 -0.0779,0 -0.1656,0.0292 -0.25319,0.0876 -0.12668,0.0585 -0.28251,0.1656 -0.45791,0.32149 -0.17529,0.16563 -0.37987,0.37991 -0.62339,0.65271 -0.24349,0.263 -0.5552,0.6429 -0.92541,1.12021 -0.37987,0.47731 -0.83767,1.06179 -1.3637,1.76308 -0.58448,0.76962 -1.1008,1.43203 -1.5586,1.9872 -0.4578,0.565 -0.84748,1.0228 -1.17867,1.3735 -0.33122,0.3604 -0.6332,0.67211 -0.91563,0.93511 -0.29228,0.2728 -0.55528,0.47731 -0.7988,0.6332 -0.0293,0.0195 -0.0487,0.0292 -0.0779,0.0487 -0.0293,0.01 -0.0488,0.0292 -0.0585,0.039 -0.1656,0.1071 -0.30201,0.1851 -0.40912,0.25319 -0.10717,0.0585 -0.1754,0.0877 -0.1948,0.0877 -0.039,-0.0195 -0.078,-0.1071 -0.0974,-0.23379 -0.0293,-0.13638 -0.039,-0.32141 -0.039,-0.56501 -0.01,-0.1071 0,-0.23368 0,-0.36039 0,-0.12658 0.01,-0.263 0.0194,-0.40908 0.0487,-0.4384 0.13627,-0.97413 0.25319,-1.60733 0.12671,-0.62339 0.29231,-1.3443 0.49681,-2.15279 0.19488,-0.8182 0.40919,-1.6267 0.6332,-2.42549 0.22398,-0.79879 0.4578,-1.58782 0.7014,-2.3768 0.24348,-0.74031 0.42859,-1.36381 0.57467,-1.87029 0.15582,-0.50652 0.26303,-0.93511 0.33122,-1.28581 0.0584,-0.34099 0.0974,-0.65271 0.0974,-0.9254 0,-0.12672 -0.01,-0.2533 -0.0194,-0.37991 -0.01,-0.12668 -0.0194,-0.25329 -0.039,-0.38971 -0.0876,-0.58438 -0.25322,-1.07149 -0.49682,-1.47087 -0.23371,-0.38961 -0.5552,-0.68192 -0.95461,-0.86692 -0.18507,-0.0877 -0.37987,-0.14619 -0.56498,-0.19491 -0.18499,-0.0389 -0.3799,-0.0584 -0.58441,-0.0584 -0.4676,0 -0.93521,0.11692 -1.39301,0.34089 -0.4578,0.23383 -0.91567,0.58452 -1.37347,1.05213 -0.26303,0.2727 -0.50652,0.60388 -0.7403,0.98379 -0.23383,0.38968 -0.4578,0.86699 -0.69163,1.4514 -0.23378,0.58448 -0.48708,1.30528 -0.75977,2.1626 -0.078,0.21431 -0.13642,0.42859 -0.20461,0.63309 -0.0584,0.21431 -0.12662,0.40919 -0.19481,0.59419 -0.14608,0.42862 -0.23378,0.71112 -0.26299,0.85732 -0.0293,0.14608 -0.14609,0.36039 -0.341,0.6623 -0.1948,0.29228 -0.51622,0.75008 -0.97409,1.3638 -0.89623,1.20788 -1.68522,2.24039 -2.35733,3.09768 -0.67218,0.85721 -1.24689,1.51962 -1.71439,2.0066 -0.17541,0.1754 -0.37998,0.36043 -0.6235,0.5553 -0.24349,0.20451 -0.47731,0.37991 -0.69159,0.52603 -0.21431,0.14609 -0.3507,0.22398 -0.42859,0.23379 -0.0194,-0.01 -0.0293,-0.078 -0.039,-0.21432 -0.01,-0.14608 -0.0194,-0.31168 -0.0194,-0.49678 0,-0.29231 0.01,-0.61369 0.0293,-0.95472 0.01,-0.34089 0.0389,-0.6526 0.0876,-0.93507 0.19491,-1.06183 0.49681,-2.27941 0.89619,-3.6334 0.40912,-1.35403 0.91571,-2.85422 1.5294,-4.50042 0.12661,-0.3507 0.25319,-0.68189 0.3604,-0.9839 0.1071,-0.30191 0.1851,-0.52599 0.23382,-0.66231 0.0487,-0.16559 0.0779,-0.32148 0.0876,-0.49678 0.0194,-0.1754 0.0293,-0.35069 0.0293,-0.5358 0,-0.22401 -0.0194,-0.43832 -0.039,-0.6429 -0.0293,-0.20461 -0.0779,-0.39941 -0.13642,-0.58452 -0.12657,-0.43829 -0.32138,-0.81819 -0.59418,-1.12017 -0.263,-0.30202 -0.60392,-0.5455 -1.0033,-0.73061 -0.16559,-0.0974 -0.33119,-0.16562 -0.47731,-0.1948 -0.14608,-0.0292 -0.37991,-0.039 -0.69158,-0.039 -0.38972,0 -0.74041,0.0487 -1.05213,0.14612 -0.31168,0.10718 -0.63309,0.27281 -0.97409,0.51629 -0.34089,0.20462 -0.6526,0.51629 -0.95458,0.91571 -0.29221,0.40908 -0.59422,0.94488 -0.89623,1.60729 -0.30198,0.67211 -0.6234,1.50982 -0.97409,2.52289 -0.6234,1.78262 -1.091,3.4289 -1.41249,4.93871 -0.31171,1.50989 -0.4675,2.86389 -0.4675,4.08161 0,1.1104 0.12661,2.104 0.37991,2.99049 0.25319,0.8961 0.63309,1.66572 1.12987,2.33779 0.50663,0.58452 1.03262,1.03262 1.58782,1.32482 0.55531,0.30198 1.13968,0.4481 1.75341,0.4481 0.0682,0 0.14619,0 0.22409,0 0.0779,-0.01 0.15578,-0.0195 0.23378,-0.0292 0.62343,-0.0877 1.30532,-0.3702 2.05532,-0.85721 1.42219,-0.94488 2.9905,-2.76649 4.705,-5.47448 l 0.42859,-0.7209 0.0584,0.94488 c 0.01,0.67222 0.078,1.2858 0.19487,1.84111 0.10711,0.56501 0.2727,1.07149 0.48701,1.52929 0.3604,0.7988 0.8183,1.45151 1.39302,1.93852 0.57467,0.49678 1.24678,0.828 2.03588,1.0033 z m 22.32649,-25.57999 c -0.2727,0 -0.50648,0.01 -0.69159,0.0194 -0.1851,0.01 -0.3701,0.039 -0.53569,0.0682 -0.16559,0.0292 -0.3605,0.0682 -0.57482,0.10718 -1.1981,0.30191 -2.30857,0.8182 -3.34119,1.5391 -1.03251,0.73053 -1.98709,1.67541 -2.85411,2.8249 -1.1689,1.61703 -2.12358,3.3509 -2.85408,5.22122 -0.7306,1.86048 -1.23719,3.83801 -1.5391,5.94208 -0.039,0.3604 -0.078,0.7305 -0.0877,1.1104 -0.0194,0.37991 -0.0293,0.76962 -0.0293,1.169 0,0.29221 0.01,0.55521 0.0194,0.78903 0.01,0.24348 0.0194,0.4578 0.0389,0.6429 0.31168,1.82157 0.91567,3.21458 1.7924,4.1692 0.88639,0.95458 2.04558,1.48057 3.48728,1.56827 0.39941,0 0.78902,-0.0487 1.15922,-0.13638 0.3701,-0.0876 0.73057,-0.22402 1.07149,-0.40912 0.3507,-0.17529 0.73061,-0.40908 1.12018,-0.71109 0.38971,-0.29221 0.80853,-0.66241 1.24693,-1.091 0.1851,-0.18511 0.33119,-0.32138 0.42859,-0.40908 0.1071,-0.0877 0.17529,-0.12662 0.20461,-0.12662 v 0.0584 c -0.16563,0.61373 -0.341,1.32482 -0.5358,2.13332 -0.1948,0.81819 -0.40912,1.7339 -0.6429,2.74701 -0.23382,1.01307 -0.4481,1.91897 -0.6234,2.7275 -0.1754,0.80849 -0.31182,1.50008 -0.42873,2.0943 -0.28239,1.41248 -0.49678,2.7178 -0.6429,3.93537 -0.14608,1.20792 -0.21428,2.30872 -0.21428,3.31202 0,1.3443 0.12669,2.51319 0.38968,3.5263 0.26303,1.013 0.65261,1.85078 1.17863,2.52289 0.33119,0.40912 0.7014,0.75981 1.12028,1.05202 0.41882,0.28247 0.87669,0.50659 1.39291,0.66237 0.12668,0.0293 0.2631,0.0487 0.40919,0.0585 0.14612,0.0195 0.30191,0.0195 0.47731,0.0195 0.30201,0 0.61369,-0.0195 0.9156,-0.0585 0.31178,-0.039 0.57481,-0.0974 0.79879,-0.16559 0.3507,-0.12661 0.68192,-0.29221 0.9839,-0.49682 0.30191,-0.1948 0.58441,-0.42859 0.8377,-0.70128 0.2727,-0.30202 0.51629,-0.65271 0.74031,-1.04232 0.22408,-0.38968 0.41889,-0.82797 0.57471,-1.29558 0.2825,-0.88642 0.48708,-1.71439 0.59418,-2.48401 0.0585,-0.39938 0.10721,-0.86688 0.13642,-1.39298 0.0194,-0.53573 0.039,-1.12991 0.039,-1.80213 0,-1.7144 -0.0877,-2.97099 -0.25329,-3.76978 -0.1071,-0.40912 -0.24349,-0.8182 -0.43829,-1.20781 -0.19491,-0.38971 -0.4384,-0.77929 -0.74041,-1.15919 l -0.42859,-0.60399 0.20457,-0.0584 c 0.49682,-0.0974 0.9839,-0.2533 1.4514,-0.46761 0.45791,-0.22398 0.9059,-0.49678 1.31512,-0.83767 0.34089,-0.26303 0.68178,-0.55531 1.0033,-0.906 0.33119,-0.34093 0.65271,-0.74031 0.96439,-1.1786 0.31172,-0.44813 0.68181,-1.01311 1.1007,-1.7145 0.41889,-0.69162 0.8865,-1.50982 1.41249,-2.45473 0.63313,-1.10078 1.29551,-2.3476 1.98713,-3.74058 0.70139,-1.39301 1.42218,-2.9223 2.1821,-4.58801 0.58438,-1.3346 1.02278,-2.445 1.32468,-3.36071 0.29232,-0.90589 0.4384,-1.59748 0.4481,-2.06509 v -0.0585 c -0.0293,-0.2825 -0.0876,-0.42862 -0.17529,-0.42862 -0.0487,0 -0.11691,0.0487 -0.20461,0.15593 -0.0974,0.0974 -0.20451,0.26299 -0.34089,0.47727 -0.40912,0.61373 -0.83771,1.2761 -1.28581,1.9969 -0.43839,0.7306 -0.89619,1.49041 -1.3638,2.30872 -1.8021,3.1074 -3.74061,5.76668 -5.82521,7.95838 -0.24349,0.24352 -0.4675,0.47731 -0.69158,0.68192 -0.21432,0.21428 -0.4383,0.40908 -0.65261,0.57468 -0.21431,0.1851 -0.4676,0.38971 -0.77928,0.61372 -0.31172,0.21428 -0.65271,0.4578 -1.04232,0.73061 -0.31168,0.21427 -0.60399,0.42859 -0.88639,0.61369 -0.28251,0.1948 -0.48712,0.35069 -0.6235,0.46761 -0.11691,0.1071 -0.22401,0.17529 -0.30191,0.22397 -0.0877,0.039 -0.13638,0.0682 -0.15589,0.0682 v -0.0292 c 0,-0.10721 0.0974,-0.47741 0.29221,-1.13002 0.19487,-0.65267 0.48708,-1.58778 0.87668,-2.78599 0.76962,-2.39631 1.65601,-5.04581 2.64961,-7.95838 0.39938,-1.15923 0.75011,-2.16253 1.03258,-3.01982 0.2824,-0.85721 0.51622,-1.57801 0.68182,-2.14298 0.15589,-0.56501 0.29231,-1.08133 0.40918,-1.55861 0.10711,-0.47731 0.19481,-0.9156 0.25323,-1.2955 0.039,-0.30202 0.078,-0.55531 0.10717,-0.77932 0.0194,-0.21428 0.0487,-0.38968 0.0584,-0.5358 0.0194,-0.14609 0.0194,-0.31168 0.0293,-0.51629 0,-0.20451 0,-0.4383 0,-0.7111 -0.01,-0.72079 -0.0779,-1.25659 -0.1948,-1.61699 -0.11691,-0.3604 -0.31172,-0.60392 -0.57471,-0.7208 -0.0779,-0.0487 -0.1656,-0.0779 -0.2533,-0.0877 -0.0974,-0.0195 -0.18499,-0.0292 -0.26299,-0.0292 -0.19481,0 -0.4481,0.0974 -0.75982,0.2727 -0.31171,0.1851 -0.6429,0.41889 -0.97409,0.7306 -0.17529,0.1559 -0.34092,0.30202 -0.49681,0.4384 -0.15579,0.13631 -0.29221,0.23379 -0.38958,0.30191 l -0.29231,0.22408 -0.2825,-0.4578 c -0.25319,-0.43839 -0.5649,-0.828 -0.93511,-1.1787 -0.3702,-0.34099 -0.78899,-0.6332 -1.25659,-0.86699 -0.263,-0.12661 -0.51629,-0.22401 -0.75011,-0.3019 -0.23368,-0.078 -0.48698,-0.12669 -0.75978,-0.1656 -0.2727,-0.0293 -0.60392,-0.0487 -0.97413,-0.0487 z m 0.9936,4.67568 c 0.22412,0 0.49681,0.0389 0.80853,0.12661 0.31168,0.0779 0.61369,0.20458 0.9059,0.3604 l 0.25329,0.10718 -0.56501,0.75 c -0.38961,0.5358 -0.8182,1.1787 -1.26629,1.91901 -0.4578,0.75011 -0.9839,1.67551 -1.58782,2.78599 -0.40908,0.75981 -0.78899,1.43192 -1.12018,2.02611 -0.33122,0.60399 -0.6332,1.11051 -0.90589,1.5391 -0.54551,0.85721 -1.06183,1.6268 -1.5391,2.31842 -0.13642,0.15589 -0.30202,0.36039 -0.50663,0.59418 -0.2045,0.23379 -0.41878,0.46761 -0.6429,0.68192 l -0.71109,0.74997 v -0.4578 c 0,-0.58438 0.0585,-1.22738 0.1851,-1.92867 0.12661,-0.70143 0.31171,-1.46121 0.5552,-2.2697 0.24359,-0.8182 0.5358,-1.61703 0.87669,-2.41583 0.33122,-0.79868 0.71113,-1.59748 1.13002,-2.3768 0.75011,-1.49038 1.4709,-2.60089 2.14298,-3.3607 0.67222,-0.74997 1.32482,-1.13969 1.92881,-1.14939 z m 1.03261,28.61931 c 0.18511,0.40908 0.37991,0.78899 0.5552,1.12018 0.17541,0.33122 0.30202,0.57471 0.37991,0.71113 0.39938,0.62339 0.66238,1.22738 0.76959,1.79239 0.0487,0.2045 0.0779,0.40908 0.0974,0.62339 0.01,0.21431 0.0194,0.43829 0.0194,0.66241 0,0.34089 -0.0293,0.66238 -0.0877,0.94488 -0.0682,0.34093 -0.1948,0.68182 -0.37991,1.02281 -0.1851,0.34089 -0.38968,0.6429 -0.6332,0.9156 -0.24348,0.2728 -0.47731,0.46761 -0.72079,0.60399 -0.10721,0.0584 -0.19481,0.0974 -0.27281,0.12661 -0.0876,0.0292 -0.15578,0.039 -0.21431,0.039 -0.0877,0 -0.15579,-0.039 -0.21428,-0.12658 -0.0584,-0.0877 -0.0974,-0.22412 -0.12661,-0.40922 -0.2825,-0.97409 -0.42859,-2.11378 -0.42859,-3.42879 0,-0.55531 0.0194,-1.15919 0.0682,-1.8021 0.0487,-0.6429 0.11691,-1.33459 0.21432,-2.07489 0.0389,-0.31172 0.0779,-0.6137 0.11687,-0.9059 0.0293,-0.30201 0.0681,-0.52599 0.11691,-0.69162 l 0.0779,-0.45787 0.66241,1.33459 z"
         style="fill:#231f20;fill-opacity:1;fill-rule:nonzero;stroke:none;stroke-width:0.352778"
         id="path1880" /><path
         d="m 1011.6687,425.4154 c 0.068,0.01 0.1364,0.0195 0.2144,0.0293 0.078,0 0.1557,0 0.2434,0 0.2435,0 0.4968,-0.0195 0.7501,-0.0585 0.2532,-0.0389 0.4773,-0.0877 0.6721,-0.14609 0.4383,-0.12661 0.9448,-0.40911 1.5196,-0.84751 0.5747,-0.43829 1.2079,-1.03251 1.9093,-1.77289 0.8961,-0.95461 1.7825,-2.104 2.6495,-3.44829 0.8669,-1.34433 1.7145,-2.89313 2.5425,-4.627 0.5162,-1.11051 0.7694,-1.88983 0.7694,-2.31842 0,-0.1071 -0.019,-0.1948 -0.049,-0.2533 -0.029,-0.0584 -0.078,-0.0876 -0.1559,-0.0876 -0.078,0 -0.1656,0.0292 -0.2533,0.0876 -0.1266,0.0585 -0.2824,0.1656 -0.4578,0.32149 -0.1754,0.16563 -0.3799,0.37991 -0.6235,0.65271 -0.2434,0.263 -0.5552,0.6429 -0.9253,1.12021 -0.3799,0.47731 -0.8377,1.06179 -1.3637,1.76308 -0.5845,0.76962 -1.1008,1.43203 -1.5586,1.9872 -0.4578,0.565 -0.8475,1.0228 -1.1787,1.3735 -0.3313,0.3604 -0.6332,0.67211 -0.9156,0.93511 -0.2923,0.2728 -0.5553,0.47731 -0.7988,0.6332 -0.029,0.0195 -0.049,0.0292 -0.078,0.0487 -0.029,0.01 -0.049,0.0292 -0.058,0.039 -0.1656,0.1071 -0.302,0.1851 -0.4091,0.25319 -0.1072,0.0585 -0.1754,0.0877 -0.1948,0.0877 -0.039,-0.0195 -0.078,-0.1071 -0.097,-0.23379 -0.029,-0.13638 -0.039,-0.32141 -0.039,-0.56501 -0.01,-0.1071 0,-0.23368 0,-0.36039 0,-0.12658 0.01,-0.263 0.019,-0.40908 0.049,-0.4384 0.1363,-0.97413 0.2531,-1.60733 0.1268,-0.62339 0.2924,-1.3443 0.4969,-2.15279 0.1949,-0.8182 0.4091,-1.6267 0.6332,-2.42549 0.2239,-0.79879 0.4578,-1.58782 0.7014,-2.3768 0.2434,-0.74031 0.4285,-1.36381 0.5747,-1.87029 0.1558,-0.50652 0.263,-0.93511 0.3312,-1.28581 0.058,-0.34099 0.097,-0.65271 0.097,-0.9254 0,-0.12672 -0.01,-0.2533 -0.019,-0.37991 -0.01,-0.12668 -0.019,-0.25329 -0.039,-0.38971 -0.088,-0.58438 -0.2533,-1.07149 -0.4968,-1.47087 -0.2337,-0.38961 -0.5552,-0.68192 -0.9546,-0.86692 -0.1851,-0.0877 -0.3799,-0.14619 -0.565,-0.19491 -0.185,-0.0389 -0.3799,-0.0584 -0.5844,-0.0584 -0.4676,0 -0.9352,0.11692 -1.393,0.34089 -0.4578,0.23383 -0.9157,0.58452 -1.3734,1.05213 -0.263,0.2727 -0.5065,0.60388 -0.7403,0.98379 -0.2339,0.38968 -0.4578,0.86699 -0.6917,1.4514 -0.2337,0.58448 -0.487,1.30528 -0.7597,2.1626 -0.078,0.21431 -0.1364,0.42859 -0.2046,0.63309 -0.058,0.21431 -0.1267,0.40919 -0.1948,0.59419 -0.1461,0.42862 -0.2338,0.71112 -0.263,0.85732 -0.029,0.14608 -0.1461,0.36039 -0.341,0.6623 -0.1948,0.29228 -0.5163,0.75008 -0.9741,1.3638 -0.8962,1.20788 -1.6852,2.24039 -2.3573,3.09768 -0.6722,0.85721 -1.2469,1.51962 -1.7145,2.0066 -0.1754,0.1754 -0.3799,0.36043 -0.6234,0.5553 -0.2435,0.20451 -0.4773,0.37991 -0.6916,0.52603 -0.2143,0.14609 -0.3507,0.22398 -0.4286,0.23379 -0.019,-0.01 -0.029,-0.078 -0.039,-0.21432 -0.01,-0.14608 -0.019,-0.31168 -0.019,-0.49678 0,-0.29231 0.01,-0.61369 0.029,-0.95472 0.01,-0.34089 0.039,-0.6526 0.088,-0.93507 0.1949,-1.06183 0.4968,-2.27941 0.8962,-3.6334 0.4091,-1.35403 0.9157,-2.85422 1.5294,-4.50042 0.1266,-0.3507 0.2532,-0.68189 0.3604,-0.9839 0.1071,-0.30191 0.1851,-0.52599 0.2338,-0.66231 0.049,-0.16559 0.078,-0.32148 0.088,-0.49678 0.019,-0.1754 0.029,-0.35069 0.029,-0.5358 0,-0.22401 -0.019,-0.43832 -0.039,-0.6429 -0.029,-0.20461 -0.078,-0.39941 -0.1364,-0.58452 -0.1266,-0.43829 -0.3214,-0.81819 -0.5942,-1.12017 -0.263,-0.30202 -0.6039,-0.5455 -1.0033,-0.73061 -0.1656,-0.0974 -0.3312,-0.16562 -0.4773,-0.1948 -0.1461,-0.0292 -0.3799,-0.039 -0.6916,-0.039 -0.3897,0 -0.7404,0.0487 -1.0521,0.14612 -0.3117,0.10718 -0.6331,0.27281 -0.97407,0.51629 -0.34089,0.20462 -0.65261,0.51629 -0.95459,0.91571 -0.2922,0.40908 -0.59421,0.94488 -0.89619,1.60729 -0.30202,0.67211 -0.62343,1.50982 -0.97413,2.52289 -0.62339,1.78262 -1.091,3.4289 -1.41248,4.93871 -0.31172,1.50989 -0.46751,2.86389 -0.46751,4.08161 0,1.1104 0.12662,2.104 0.37991,2.99049 0.25319,0.8961 0.6331,1.66572 1.12988,2.33779 0.50662,0.58452 1.03261,1.03262 1.58782,1.32482 0.5553,0.30198 1.13968,0.4481 1.75341,0.4481 0.0682,0 0.14619,0 0.22405,0 0.078,-0.01 0.1558,-0.0195 0.2338,-0.0292 0.6234,-0.0877 1.3053,-0.3702 2.0553,-0.85721 1.4222,-0.94488 2.9905,-2.76649 4.705,-5.47448 l 0.4286,-0.7209 0.058,0.94488 c 0.01,0.67222 0.078,1.2858 0.1949,1.84111 0.1071,0.56501 0.2727,1.07149 0.487,1.52929 0.3604,0.7988 0.8183,1.45151 1.393,1.93852 0.5747,0.49678 1.2468,0.828 2.0359,1.0033 z m 20.69,-25.38522 c -0.9546,0 -1.9092,0.23382 -2.8444,0.69162 -0.945,0.4578 -1.88,1.14938 -2.8054,2.07479 -1.0813,1.03262 -2.0164,2.25019 -2.786,3.65291 -0.7695,1.39298 -1.3929,2.9906 -1.8605,4.77319 -0.117,0.46761 -0.2144,0.9059 -0.2825,1.2858 -0.078,0.38961 -0.1364,0.74031 -0.1753,1.06179 -0.058,0.31172 -0.097,0.66241 -0.117,1.05202 -0.019,0.38968 -0.029,0.81831 -0.029,1.28581 v 0.5455 c 0,0.41889 0.01,0.78909 0.039,1.10077 0.029,0.32142 0.068,0.62343 0.1268,0.8962 0.049,0.2825 0.1168,0.57471 0.2045,0.88642 1.1104,3.4483 3.3704,5.48418 6.7602,6.0784 0.1754,0.0195 0.341,0.0293 0.5164,0.039 0.1656,0.01 0.3409,0.0195 0.5163,0.0195 2.2015,0 4.4223,-0.94488 6.6823,-2.82491 0.4092,-0.33118 0.8281,-0.7209 1.2566,-1.1787 0.4287,-0.44809 0.867,-0.96438 1.3054,-1.5391 0.8863,-1.1105 2.0261,-2.70799 3.4287,-4.79259 1.0522,-1.61699 1.8412,-2.90279 2.377,-3.84771 0.5259,-0.95469 0.7889,-1.56827 0.7889,-1.84108 0,-0.0195 -0.01,-0.0487 -0.019,-0.0682 -0.01,-0.01 -0.019,-0.0292 -0.039,-0.0389 h -0.058 c -0.1072,0 -0.3312,0.13628 -0.6624,0.42859 -0.3312,0.29221 -0.7793,0.7208 -1.3345,1.30531 -1.7534,1.85078 -3.2048,3.32169 -4.3543,4.4419 -1.1397,1.11051 -1.9969,1.86048 -2.5522,2.24039 -0.5065,0.3605 -1.0423,0.67221 -1.617,0.94491 -0.565,0.263 -1.1299,0.47731 -1.6852,0.6235 -0.5455,0.15579 -1.052,0.23368 -1.5196,0.23368 -0.302,0 -0.6039,-0.0389 -0.8962,-0.12658 -0.3019,-0.0779 -0.6039,-0.2045 -0.9059,-0.36039 -0.4676,-0.23383 -0.8085,-0.48712 -1.052,-0.75982 -0.2338,-0.2728 -0.3994,-0.6332 -0.4871,-1.06179 v -0.0292 c -0.029,-0.11691 -0.049,-0.21431 -0.068,-0.2825 -0.01,-0.0779 -0.019,-0.13639 -0.019,-0.1753 0,-0.0682 0.019,-0.12668 0.059,-0.15589 0.039,-0.039 0.097,-0.0584 0.1656,-0.0779 0,-0.01 0,-0.0195 0.01,-0.0195 0,0 0.01,-0.01 0.019,-0.01 0.5065,-0.25319 1.0228,-0.57471 1.5683,-0.96428 0.5455,-0.38972 1.1105,-0.84752 1.695,-1.37351 0.565,-0.52602 1.1007,-1.05202 1.578,-1.58781 0.4871,-0.5358 0.9157,-1.0813 1.3053,-1.63651 0.4871,-0.7403 0.906,-1.50008 1.2566,-2.2697 0.3507,-0.76948 0.6429,-1.5586 0.8572,-2.35729 0.068,-0.33119 0.1267,-0.65271 0.1656,-0.9839 0.039,-0.32138 0.059,-0.6429 0.059,-0.95458 0,-0.20461 -0.01,-0.38961 -0.019,-0.56501 -0.019,-0.1753 -0.039,-0.34089 -0.068,-0.49682 -0.2532,-1.03247 -0.7695,-1.841 -1.5488,-2.41579 -0.789,-0.565 -1.7631,-0.85721 -2.9321,-0.86691 z m 1.8898,4.13992 c 0.088,0 0.1364,0.0585 0.1656,0.1754 0.049,0.12661 0.078,0.25319 0.1071,0.38961 0.029,0.13638 0.039,0.2825 0.039,0.43839 0,0.35059 -0.058,0.75001 -0.185,1.18841 -0.1266,0.43829 -0.3117,0.90589 -0.5552,1.40267 -0.4578,0.87673 -1.052,1.7924 -1.7826,2.75672 -0.7306,0.96438 -1.5878,1.96768 -2.5912,3.01981 -0.3799,0.37987 -0.6624,0.65257 -0.8474,0.8182 -0.1754,0.15589 -0.2825,0.23378 -0.3215,0.23378 -0.019,0 -0.029,0 -0.029,0 0,-0.01 0,-0.01 0,-0.0292 0,-0.0682 0.029,-0.25329 0.097,-0.5358 0.058,-0.2922 0.1364,-0.60388 0.224,-0.94488 0.088,-0.34092 0.1656,-0.62339 0.2436,-0.85721 0.3799,-1.12998 0.8085,-2.17219 1.2858,-3.12688 0.487,-0.95462 1.0228,-1.81183 1.6073,-2.59112 0.2045,-0.263 0.4578,-0.5552 0.7403,-0.86699 0.2922,-0.31171 0.565,-0.58441 0.8182,-0.828 0.2533,-0.25319 0.4384,-0.39931 0.5553,-0.4675 0.1948,-0.11691 0.3409,-0.1754 0.4286,-0.1754 z m 19.4237,21.18688 c 0.2046,0.0584 0.4578,0.0877 0.7792,0.0877 0.3021,0 0.6138,-0.0195 0.9156,-0.0585 0.3119,-0.0389 0.5554,-0.0877 0.7307,-0.14609 0.6332,-0.20461 1.2468,-0.5552 1.8606,-1.03261 0.6137,-0.47731 1.2078,-1.091 1.7923,-1.85078 0.9449,-1.19811 1.919,-2.67882 2.9126,-4.45163 0.4967,-0.8865 0.9448,-1.72417 1.3443,-2.523 0.3994,-0.79869 0.7403,-1.5488 1.0228,-2.25019 0.2338,-0.57471 0.4189,-1.1007 0.5455,-1.56831 0.1265,-0.46757 0.1948,-0.7988 0.1948,-0.9936 0,-0.0487 0,-0.0779 -0.01,-0.1071 -0.019,-0.0292 -0.029,-0.039 -0.039,-0.039 -0.088,0.01 -0.302,0.22409 -0.6526,0.64291 -0.3507,0.40908 -0.7696,0.94488 -1.2371,1.58778 -0.5553,0.77932 -1.0618,1.47091 -1.5099,2.0749 -0.4481,0.59422 -0.8377,1.1007 -1.1689,1.51962 -0.341,0.42859 -0.6722,0.8182 -0.9839,1.1787 -0.3117,0.3604 -0.6039,0.68178 -0.8767,0.96429 -0.565,0.57471 -1.1007,1.03261 -1.5975,1.3735 -0.4968,0.33119 -0.8962,0.50652 -1.1982,0.50652 0,0 0,0 -0.01,0 -0.01,0 -0.01,0 -0.019,0 -0.068,0 -0.1266,-0.12661 -0.1656,-0.37991 -0.039,-0.26299 -0.058,-0.6429 -0.058,-1.15912 0,-0.2728 0.01,-0.5261 0.019,-0.75008 0.019,-0.23382 0.049,-0.48711 0.097,-0.76962 0.039,-0.27269 0.1072,-0.61358 0.1949,-1.0228 0.088,-0.40908 0.2045,-0.9156 0.3409,-1.5391 0.3117,-1.30528 0.5552,-2.367 0.7403,-3.1853 0.1851,-0.8182 0.3313,-1.47088 0.4287,-1.97739 0.088,-0.49679 0.1559,-0.92541 0.1948,-1.29558 0.039,-0.36043 0.068,-0.7403 0.078,-1.13972 v -0.48708 c 0,-0.73053 -0.068,-1.39291 -0.2143,-1.98713 -0.1364,-0.58448 -0.3409,-1.11047 -0.6136,-1.5489 -0.2242,-0.41879 -0.4969,-0.8085 -0.8378,-1.1689 -0.3312,-0.35069 -0.6819,-0.6429 -1.0423,-0.85718 -0.2045,-0.11691 -0.4189,-0.22412 -0.6623,-0.31171 -0.2339,-0.0877 -0.4676,-0.16559 -0.6918,-0.21431 -0.2239,-0.0487 -0.4188,-0.078 -0.5649,-0.078 h -0.1948 l 0.1363,-0.51619 c 0.1169,-0.4579 0.2046,-0.9157 0.263,-1.3735 0.059,-0.45791 0.088,-0.92541 0.088,-1.39298 0,-0.25333 -0.01,-0.50652 -0.029,-0.75011 -0.019,-0.24352 -0.049,-0.47731 -0.088,-0.70132 -0.1657,-0.92537 -0.4677,-1.7242 -0.8963,-2.39628 -0.4286,-0.66241 -0.9546,-1.1787 -1.578,-1.5391 -0.6235,-0.3604 -1.2956,-0.5455 -2.0359,-0.5455 -0.1754,0 -0.341,0.01 -0.5163,0.0195 -0.1656,0.0194 -0.3408,0.0487 -0.5163,0.0876 -1.2761,0.3507 -2.3671,1.19818 -3.2535,2.57168 -0.2921,0.5552 -0.526,1.11051 -0.6721,1.67541 -0.1558,0.55531 -0.2338,1.12029 -0.2338,1.695 0,0.24352 0.01,0.4676 0.039,0.69162 0.029,0.21427 0.068,0.43839 0.1268,0.65267 0.1363,0.49671 0.3408,0.98383 0.6136,1.4514 0.2825,0.4675 0.6331,0.92541 1.0423,1.3735 l 0.341,0.3701 -0.078,0.31172 c -0.1267,0.4676 -0.2923,1.0131 -0.5066,1.6268 -0.2045,0.60399 -0.448,1.24689 -0.7111,1.9287 -0.263,0.68189 -0.5455,1.36381 -0.8377,2.04569 -0.1851,0.40912 -0.409,0.88639 -0.6721,1.43189 -0.2533,0.5455 -0.5553,1.15923 -0.8962,1.85081 -0.3604,0.69159 -0.7014,1.3443 -1.013,1.92871 -0.3118,0.58448 -0.604,1.12028 -0.8768,1.60729 -0.3701,0.69159 -0.6623,1.21772 -0.8669,1.60729 -0.2046,0.37991 -0.3409,0.65271 -0.4189,0.82801 -0.078,0.17529 -0.1169,0.30201 -0.1071,0.3604 v 0.0585 c -0.01,0.11691 0.01,0.17533 0.058,0.2045 0.049,0.0195 0.1364,0.0292 0.2825,0.0292 0.1169,0 0.2533,-0.0292 0.3897,-0.0974 0.146,-0.0681 0.3604,-0.20451 0.6428,-0.41878 0.2825,-0.21432 0.7014,-0.5358 1.2469,-0.97413 0.7598,-0.6235 1.5488,-1.34429 2.3769,-2.1626 0.8279,-0.81819 1.6949,-1.7339 2.5911,-2.7469 1.052,-1.19818 1.88,-2.20148 2.4839,-3.00027 0.2923,-0.39942 0.5845,-0.80853 0.8572,-1.23712 0.2825,-0.41889 0.5553,-0.85718 0.828,-1.30531 l 0.5943,-0.9936 v 0.5455 c 0,0.47731 -0.029,0.9936 -0.088,1.5586 -0.068,0.55521 -0.1656,1.20792 -0.3117,1.94822 -0.1461,0.7403 -0.3312,1.61699 -0.565,2.6301 -0.019,0.0292 -0.029,0.0584 -0.029,0.0876 0,0.0293 0,0.0682 0,0.10721 -0.1949,0.78899 -0.3507,1.42219 -0.4676,1.9092 -0.1072,0.48708 -0.2046,0.87669 -0.263,1.169 -0.068,0.29221 -0.1169,0.53569 -0.1559,0.74031 -0.039,0.20457 -0.078,0.41888 -0.1169,0.6429 -0.058,0.37017 -0.1071,0.80849 -0.1461,1.33449 -0.039,0.51629 -0.058,1.03258 -0.058,1.5489 0,0.25319 0.01,0.48698 0.019,0.70129 0.01,0.21431 0.019,0.40919 0.039,0.58452 0.2143,1.41248 0.6624,2.55217 1.3443,3.41908 0.6916,0.86699 1.6072,1.46121 2.7567,1.77289 z m 15.3325,-26.73929 c 0.1559,0.0585 0.3214,0.0974 0.4871,0.12672 0.1753,0.0292 0.3409,0.0487 0.5162,0.0487 0.2825,0 0.565,-0.039 0.8572,-0.11691 0.2923,-0.0682 0.5845,-0.1851 0.8768,-0.34099 0.1753,-0.0974 0.3895,-0.22398 0.6429,-0.38961 0.263,-0.16559 0.5357,-0.3507 0.8182,-0.55527 0.2922,-0.20451 0.5553,-0.40912 0.7988,-0.60392 0.1851,-0.14609 0.4383,-0.3604 0.7501,-0.6332 0.3214,-0.2727 0.6234,-0.5357 0.9156,-0.79869 0.2921,-0.2631 0.4871,-0.4481 0.5845,-0.56501 0.2434,-0.2728 0.4285,-0.55531 0.5455,-0.84751 0.1169,-0.30198 0.1753,-0.60389 0.1753,-0.91567 0,-0.54551 -0.1753,-1.03251 -0.5163,-1.4611 -0.263,-0.28251 -0.5455,-0.49682 -0.8573,-0.64291 -0.3116,-0.13642 -0.6429,-0.21431 -1.0033,-0.21431 -0.2045,0 -0.4285,0.0292 -0.6429,0.0681 -0.224,0.0488 -0.4578,0.12671 -0.6915,0.22412 -0.078,0.0292 -0.1559,0.0584 -0.2533,0.0974 -0.097,0.039 -0.1948,0.0877 -0.2922,0.12658 -0.1462,0.0585 -0.2825,0.11691 -0.4092,0.16562 -0.1363,0.0585 -0.263,0.10718 -0.3896,0.1462 -0.2436,0.0779 -0.5552,0.21431 -0.9351,0.3896 -0.3898,0.1753 -0.7793,0.3604 -1.1787,0.5552 -0.4189,0.21428 -0.7403,0.37988 -0.9546,0.50659 -0.2241,0.11691 -0.3897,0.23379 -0.5164,0.34089 -0.1363,0.10721 -0.2629,0.24353 -0.409,0.40912 -0.2242,0.22408 -0.4093,0.42859 -0.5358,0.6235 -0.1266,0.1948 -0.2242,0.41878 -0.2728,0.66241 -0.059,0.24349 -0.078,0.5455 -0.078,0.9156 0,0.32149 0.01,0.56497 0.039,0.72087 0.029,0.15582 0.078,0.3019 0.1364,0.44813 0.1656,0.35059 0.3992,0.66227 0.7013,0.9156 0.302,0.25329 0.6624,0.4481 1.091,0.59418 z m 1.1689,3.39969 c -0.1948,0 -0.3994,0.0194 -0.5942,0.0584 -0.1948,0.039 -0.3896,0.0974 -0.5747,0.16559 -0.4092,0.15589 -0.789,0.38961 -1.1397,0.70139 -0.3409,0.30191 -0.6526,0.68182 -0.9449,1.12991 -0.2922,0.4481 -0.5943,1.02281 -0.8864,1.7145 -0.2825,0.68182 -0.5845,1.49031 -0.8768,2.41569 -0.6039,1.8996 -1.052,3.65301 -1.3539,5.24072 -0.302,1.59759 -0.4481,3.03929 -0.4481,4.32509 0,0.3604 0.01,0.70129 0.039,1.04232 0.029,0.33119 0.058,0.65257 0.1072,0.95458 0.2046,1.0813 0.5065,2.02622 0.935,2.84441 0.419,0.8085 0.9255,1.46121 1.5294,1.93848 0.604,0.48701 1.2858,0.77932 2.0457,0.86692 0.097,0.01 0.1851,0.0195 0.2825,0.0293 0.088,0 0.1754,0 0.2533,0 0.4967,0 0.9936,-0.0877 1.4904,-0.2533 0.487,-0.16559 0.9838,-0.41888 1.4805,-0.75007 0.1852,-0.12661 0.3995,-0.30191 0.643,-0.51622 0.2435,-0.22409 0.5259,-0.49678 0.8378,-0.81831 0.3116,-0.33118 0.5941,-0.6332 0.8377,-0.90589 0.2533,-0.27281 0.4676,-0.526 0.6526,-0.75008 0.5845,-0.81823 1.1495,-1.7242 1.7047,-2.7275 0.565,-1.0033 1.1008,-2.11381 1.6268,-3.32172 0.6137,-1.46121 1.0715,-2.62029 1.3735,-3.47761 0.3019,-0.85718 0.4578,-1.42219 0.4578,-1.69489 0,-0.039 0,-0.0779 0,-0.0974 -0.01,-0.0292 -0.019,-0.039 -0.029,-0.039 -0.01,0 -0.049,0.039 -0.1072,0.12657 -0.058,0.078 -0.1363,0.19491 -0.2337,0.36051 -0.1169,0.17529 -0.2728,0.41881 -0.4579,0.7306 -0.1851,0.31171 -0.3701,0.6429 -0.5455,0.97409 -0.2143,0.38961 -0.4091,0.7403 -0.5844,1.06172 -0.1754,0.32149 -0.341,0.61369 -0.4968,0.85728 -0.1559,0.25323 -0.341,0.5357 -0.5358,0.85722 -0.2046,0.31168 -0.4383,0.66241 -0.6916,1.05198 -0.4286,0.6332 -0.8183,1.18841 -1.1787,1.67552 -0.3701,0.48698 -0.7208,0.92541 -1.0618,1.32479 -0.3506,0.39931 -0.7013,0.78902 -1.0715,1.16889 -0.3896,0.38961 -0.6916,0.67211 -0.9156,0.84751 -0.2241,0.185 -0.4189,0.31172 -0.5942,0.40909 -0.2046,0.0974 -0.38,0.16562 -0.5163,0.20461 -0.1364,0.0292 -0.3117,0.0487 -0.5163,0.0487 h -0.5065 l -0.059,-0.25333 c -0.019,-0.0779 -0.029,-0.18507 -0.039,-0.32149 -0.01,-0.13631 -0.019,-0.31168 -0.019,-0.50648 0,-0.4578 0.019,-0.95462 0.058,-1.49042 0.039,-0.53569 0.078,-1.0033 0.1363,-1.42219 0.1754,-1.11051 0.4481,-2.38661 0.8182,-3.8088 0.3702,-1.42212 0.8378,-3.0002 1.4126,-4.7244 0.1851,-0.60392 0.3311,-1.06182 0.4285,-1.3637 0.097,-0.30201 0.1656,-0.5455 0.2144,-0.7306 0.049,-0.17529 0.088,-0.38971 0.1265,-0.61369 0.039,-0.20461 0.068,-0.39942 0.088,-0.58452 0.019,-0.185 0.029,-0.3799 0.029,-0.5649 -0.01,-0.7988 -0.1558,-1.49038 -0.4578,-2.05539 -0.2922,-0.55531 -0.7208,-0.95462 -1.2858,-1.19821 -0.1267,-0.0389 -0.2728,-0.0779 -0.4189,-0.0974 -0.1558,-0.0292 -0.302,-0.0389 -0.4676,-0.0389 z m 19.034,-1.7827 c -0.6234,0 -1.2566,0.0682 -1.8995,0.21432 -0.6429,0.13638 -1.276,0.34099 -1.919,0.61369 -0.9059,0.42859 -1.7435,1.0034 -2.5228,1.7339 -0.7793,0.7306 -1.4904,1.6171 -2.1333,2.65942 -0.6429,1.04228 -1.1884,2.182 -1.6365,3.40928 -0.4578,1.23719 -0.8085,2.57171 -1.0715,4.01341 -0.1169,0.67208 -0.1948,1.31498 -0.2534,1.93841 -0.058,0.61369 -0.088,1.21768 -0.088,1.80209 0,1.29558 0.1463,2.49379 0.4287,3.57498 0.2825,1.0813 0.7014,2.04562 1.2567,2.9029 1.052,1.43193 2.2501,2.14302 3.5944,2.14302 0.3702,0 0.7403,-0.0584 1.1105,-0.16559 0.3702,-0.11691 0.7403,-0.27273 1.1105,-0.48712 1.4611,-0.94481 3.195,-3.05869 5.2212,-6.34139 l 0.5455,-0.85721 0.029,0.97409 c 0.068,1.3832 0.2923,2.59111 0.6624,3.61392 0.3799,1.02288 0.9059,1.86059 1.5878,2.523 0.341,0.30198 0.7501,0.58441 1.2079,0.828 0.4578,0.23379 0.9059,0.38958 1.3345,0.4578 0.1169,0.0195 0.2241,0.0292 0.341,0.039 0.1169,0.01 0.2435,0.0194 0.3701,0.0194 0.7014,0 1.3735,-0.15579 2.0164,-0.4578 0.6527,-0.30198 1.2761,-0.75978 1.8898,-1.37351 0.5065,-0.4675 1.0618,-1.20787 1.6755,-2.20147 0.6137,-1.0033 1.2955,-2.26963 2.0359,-3.78922 0.3019,-0.6137 0.5747,-1.19821 0.8182,-1.74371 0.2532,-0.5455 0.487,-1.0715 0.6915,-1.56828 0.2143,-0.48711 0.4286,-1.0033 0.6332,-1.5391 0.2046,-0.5455 0.4189,-1.1007 0.6234,-1.68522 0.6332,-1.80209 0.9449,-2.9126 0.9449,-3.34119 0,-0.0779 -0.01,-0.12661 -0.019,-0.15589 -0.019,-0.0292 -0.039,-0.0487 -0.068,-0.0487 -0.039,0 -0.088,0.0293 -0.1461,0.0877 -0.068,0.0487 -0.1363,0.12661 -0.224,0.22412 -0.078,0.11681 -0.2241,0.34089 -0.448,0.68178 -0.2241,0.34103 -0.4677,0.7209 -0.7502,1.14953 -0.8572,1.35399 -1.6071,2.52289 -2.2501,3.49698 -0.6331,0.97409 -1.1689,1.77292 -1.5975,2.38661 -0.4286,0.61369 -0.828,1.14938 -1.1981,1.61699 -0.3702,0.46761 -0.7209,0.84751 -1.0326,1.14949 -0.2435,0.23372 -0.4968,0.44803 -0.7501,0.66231 -0.263,0.20461 -0.4968,0.3702 -0.7111,0.50662 -0.2045,0.12658 -0.3604,0.19477 -0.4481,0.19477 -0.068,0.01 -0.1266,-0.0779 -0.1753,-0.23379 -0.049,-0.15578 -0.097,-0.40911 -0.1364,-0.7306 -0.049,-0.33119 -0.078,-0.68181 -0.097,-1.05198 -0.01,-0.37021 -0.019,-0.75982 -0.019,-1.1787 0,-0.3701 0.01,-0.74031 0.019,-1.11051 0.019,-0.3701 0.049,-0.74031 0.097,-1.11041 0.039,-0.47731 0.1072,-0.96439 0.1949,-1.4515 0.078,-0.48701 0.185,-1.013 0.3214,-1.59748 0.1266,-0.57471 0.2922,-1.23713 0.4773,-1.97743 0.1559,-0.59418 0.2728,-1.10077 0.3604,-1.51959 0.088,-0.41889 0.1559,-0.79879 0.1949,-1.12998 0.039,-0.33123 0.068,-0.67211 0.078,-1.0033 v -0.51633 c 0,-0.7209 -0.078,-1.34429 -0.2338,-1.85078 -0.1558,-0.49681 -0.3799,-0.90589 -0.6819,-1.19821 -0.1851,-0.14608 -0.3799,-0.25318 -0.5844,-0.32141 -0.2046,-0.078 -0.4189,-0.10718 -0.6429,-0.10718 -0.302,0 -0.6137,0.0585 -0.9352,0.18511 -0.3312,0.13638 -0.6624,0.32148 -1.0033,0.58448 -0.1754,0.12661 -0.302,0.21431 -0.3897,0.26299 -0.088,0.0584 -0.1363,0.0779 -0.1558,0.0779 -0.01,0 -0.029,-0.01 -0.039,-0.0195 -0.019,-0.01 -0.029,-0.0195 -0.049,-0.0389 -0.565,-0.9157 -1.3345,-1.61709 -2.3086,-2.0944 -0.9644,-0.48701 -2.0554,-0.73061 -3.2536,-0.73061 z m -0.029,6.76043 c 0.1656,0 0.3507,0.01 0.5455,0.0487 0.1948,0.0292 0.4481,0.0779 0.7695,0.14612 0.2826,0.0779 0.5552,0.13628 0.8182,0.18507 0.263,0.0584 0.4774,0.0876 0.6429,0.1071 0.1754,0.01 0.3021,0.0195 0.3606,0.039 0.068,0.01 0.097,0.0487 0.087,0.0974 v 0.0292 c -0.097,0.34089 -0.2045,0.75978 -0.3213,1.23709 -0.1169,0.48708 -0.2242,0.96438 -0.3313,1.45139 -0.097,0.42859 -0.1851,0.75012 -0.263,0.95469 -0.078,0.21431 -0.1558,0.3701 -0.224,0.4675 -0.078,0.12672 -0.263,0.38972 -0.5552,0.7988 -0.2924,0.40911 -0.6137,0.89623 -0.9839,1.4612 -0.5261,0.79873 -1.0033,1.50982 -1.432,2.11381 -0.4286,0.61369 -0.8085,1.13002 -1.1396,1.5391 -0.3215,0.41882 -0.6332,0.78899 -0.9255,1.11051 -0.2825,0.33119 -0.5553,0.62339 -0.8183,0.85718 -0.1557,0.13642 -0.3116,0.26303 -0.4578,0.37991 -0.146,0.11691 -0.2434,0.2045 -0.3116,0.25322 -0.039,0.0293 -0.078,0.0488 -0.1169,0.0682 -0.039,0.01 -0.068,0.0195 -0.078,0.0195 -0.019,0 -0.029,-0.01 -0.049,-0.0195 -0.01,-0.01 -0.029,-0.0292 -0.039,-0.0389 -0.01,-0.039 -0.019,-0.12668 -0.029,-0.24359 0,-0.11681 0,-0.2727 0,-0.4675 0,-0.32149 0.01,-0.67222 0.019,-1.0715 0.01,-0.39941 0.019,-0.84751 0.039,-1.33459 0.01,-0.4675 0.039,-0.87672 0.058,-1.22742 0.029,-0.35059 0.058,-0.6429 0.088,-0.85721 0.3117,-2.56188 0.9936,-4.64648 2.0554,-6.2537 0.3799,-0.59418 0.7793,-1.05209 1.1884,-1.3638 0.4189,-0.31168 0.8377,-0.47727 1.2664,-0.48697 h 0.1363 z"
         style="fill:#231f20;fill-opacity:1;fill-rule:nonzero;stroke:none;stroke-width:0.352778"
         id="path1882" /><path
         d="m 1126.964,425.44468 c 0.1266,0.01 0.263,0.0194 0.3993,0.0292 0.1365,0 0.263,0 0.3995,0 0.9838,0 1.9773,-0.15589 2.9808,-0.47731 0.9936,-0.31168 2.0066,-0.79879 3.0197,-1.432 0.6624,-0.50648 1.3247,-1.1007 1.9677,-1.80209 0.6526,-0.70129 1.2956,-1.50008 1.9385,-2.39631 0.3019,-0.42859 0.6137,-0.8962 0.9351,-1.39288 0.3215,-0.49681 0.6428,-1.02291 0.9741,-1.57811 0.3312,-0.5552 0.6235,-1.06179 0.8767,-1.51959 0.2532,-0.4578 0.4676,-0.86699 0.6332,-1.21762 0.049,-0.1072 0.1071,-0.21438 0.1655,-0.34099 0.068,-0.12661 0.1365,-0.263 0.2047,-0.39938 0.1363,-0.26303 0.2531,-0.50652 0.3505,-0.7306 0.1073,-0.23372 0.2144,-0.4578 0.3118,-0.67212 0.1559,-0.33118 0.2922,-0.62339 0.3896,-0.85721 0.097,-0.23379 0.1462,-0.37987 0.1559,-0.42859 -0.01,-0.039 -0.01,-0.0682 -0.019,-0.0877 -0.01,-0.0195 -0.029,-0.0292 -0.039,-0.0292 -0.049,0 -0.1071,0.0487 -0.1948,0.13642 -0.088,0.0876 -0.1947,0.22398 -0.3214,0.40908 -0.3701,0.57471 -0.7793,1.15923 -1.2274,1.75341 -0.4384,0.60389 -0.9254,1.21761 -1.4514,1.84111 -0.5358,0.6331 -1.0228,1.1786 -1.4806,1.64621 -0.4481,0.46757 -0.8671,0.85718 -1.2372,1.15919 -1.1104,0.86688 -2.2112,1.51959 -3.2924,1.95788 -1.0813,0.4384 -2.1432,0.66241 -3.1854,0.66241 h -0.2824 c -0.8574,-0.0292 -1.5489,-0.2045 -2.0749,-0.52599 -0.5163,-0.32142 -0.945,-0.85722 -1.2761,-1.58782 -0.1558,-0.30187 -0.2825,-0.61369 -0.3799,-0.93507 -0.097,-0.31172 -0.1656,-0.65271 -0.2144,-1.03262 -0.039,-0.3701 -0.058,-0.80849 -0.058,-1.31501 0,-1.01307 0.1169,-2.05539 0.3604,-3.13658 0.2434,-1.0813 0.6136,-2.18211 1.1007,-3.31202 0.3799,-0.9839 0.8085,-1.78259 1.2565,-2.40609 0.458,-0.61369 0.945,-1.05198 1.4613,-1.30531 0.097,-0.0584 0.1851,-0.0974 0.2727,-0.12658 0.078,-0.0292 0.1558,-0.0487 0.2046,-0.0487 0.097,0 0.1753,0.0487 0.2435,0.13642 0.058,0.0876 0.1169,0.22398 0.1851,0.40908 0.058,0.14612 0.1072,0.31172 0.1364,0.47731 0.029,0.1656 0.039,0.38961 0.039,0.66241 0,0.23379 -0.01,0.51629 -0.019,0.86699 -0.019,0.34089 -0.039,0.75 -0.068,1.21761 -0.039,0.47731 -0.068,0.8962 -0.088,1.2566 -0.019,0.3702 -0.029,0.67211 -0.019,0.9157 0,0.49668 0.049,0.85718 0.1461,1.07149 0.098,0.21432 0.2338,0.3701 0.4189,0.4675 0.078,0.0487 0.1559,0.078 0.2533,0.10721 0.088,0.0195 0.1851,0.039 0.2922,0.039 0.3507,0 0.7209,-0.1462 1.1105,-0.42859 0.3799,-0.28251 0.7793,-0.7014 1.1981,-1.2566 0.2631,-0.40922 0.4774,-0.8086 0.643,-1.169 0.1558,-0.3701 0.2825,-0.7403 0.3604,-1.12021 0.088,-0.37991 0.1364,-0.79879 0.1656,-1.24689 v -0.5455 c 0,-1.1592 -0.1754,-2.182 -0.5358,-3.0879 -0.3507,-0.9059 -0.8767,-1.67552 -1.578,-2.33782 -0.4676,-0.5261 -1.0326,-0.91567 -1.6852,-1.17867 -0.6527,-0.26303 -1.393,-0.38971 -2.221,-0.38971 -0.5553,0 -1.1008,0.0585 -1.6073,0.1754 -0.5163,0.11691 -1.0131,0.2922 -1.4806,0.53569 -1.8606,0.95469 -3.3802,2.4353 -4.5589,4.43219 -1.1884,1.99701 -2.0456,4.5199 -2.5716,7.55911 -0.059,0.39942 -0.1072,0.87669 -0.1364,1.4417 -0.019,0.56501 -0.039,1.13969 -0.039,1.7242 0,0.263 0.01,0.50649 0.019,0.7305 0.01,0.22412 0.019,0.4287 0.039,0.61369 0.1656,1.46121 0.5065,2.77622 1.0033,3.95492 0.5066,1.18841 1.1787,2.22099 2.0164,3.12688 0.6429,0.65271 1.354,1.17871 2.1431,1.56831 0.7793,0.37991 1.6365,0.64291 2.5716,0.76959 z m 24.6547,-25.21 c -0.6234,0 -1.2566,0.0682 -1.8995,0.21432 -0.6429,0.13638 -1.276,0.34099 -1.9191,0.61369 -0.9058,0.42859 -1.7436,1.0034 -2.5228,1.7339 -0.7793,0.7306 -1.4905,1.6171 -2.1334,2.65942 -0.6429,1.04228 -1.1884,2.182 -1.6365,3.40928 -0.4578,1.23719 -0.8085,2.57171 -1.0715,4.01341 -0.1168,0.67208 -0.1948,1.31498 -0.2532,1.93841 -0.058,0.61369 -0.088,1.21768 -0.088,1.80209 0,1.29558 0.1461,2.49379 0.4286,3.57498 0.2824,1.0813 0.7014,2.04562 1.2566,2.9029 1.0521,1.43193 2.2502,2.14302 3.5945,2.14302 0.3702,0 0.7403,-0.0584 1.1105,-0.16559 0.3701,-0.11691 0.7402,-0.27273 1.1104,-0.48712 1.4611,-0.94481 3.1952,-3.05869 5.2213,-6.34139 l 0.5455,-0.85721 0.029,0.97409 c 0.068,1.3832 0.2923,2.59111 0.6624,3.61392 0.3799,1.02288 0.9059,1.86059 1.5878,2.523 0.341,0.30198 0.7501,0.58441 1.2079,0.828 0.4578,0.23379 0.9059,0.38958 1.3345,0.4578 0.1169,0.0195 0.2241,0.0292 0.341,0.039 0.1169,0.01 0.2435,0.0194 0.3701,0.0194 0.7014,0 1.3735,-0.15579 2.0164,-0.4578 0.6527,-0.30198 1.2761,-0.75978 1.8898,-1.37351 0.5065,-0.4675 1.0618,-1.20787 1.6755,-2.20147 0.6137,-1.0033 1.2955,-2.26963 2.0359,-3.78922 0.3019,-0.6137 0.5747,-1.19821 0.8182,-1.74371 0.2533,-0.5455 0.4871,-1.0715 0.6916,-1.56828 0.2143,-0.48711 0.4286,-1.0033 0.6332,-1.5391 0.2046,-0.5455 0.4189,-1.1007 0.6234,-1.68522 0.6332,-1.80209 0.9449,-2.9126 0.9449,-3.34119 0,-0.0779 -0.01,-0.12661 -0.019,-0.15589 -0.019,-0.0292 -0.039,-0.0487 -0.068,-0.0487 -0.039,0 -0.088,0.0293 -0.1461,0.0877 -0.068,0.0487 -0.1363,0.12661 -0.224,0.22412 -0.078,0.11681 -0.2241,0.34089 -0.4481,0.68178 -0.224,0.34103 -0.4676,0.7209 -0.7501,1.14953 -0.8572,1.35399 -1.6072,2.52289 -2.2502,3.49698 -0.6331,0.97409 -1.1689,1.77292 -1.5975,2.38661 -0.4286,0.61369 -0.828,1.14938 -1.1981,1.61699 -0.3702,0.46761 -0.7209,0.84751 -1.0326,1.14949 -0.2435,0.23372 -0.4968,0.44803 -0.7501,0.66231 -0.263,0.20461 -0.4968,0.3702 -0.7111,0.50662 -0.2045,0.12658 -0.3604,0.19477 -0.4481,0.19477 -0.068,0.01 -0.1266,-0.0779 -0.1753,-0.23379 -0.049,-0.15578 -0.097,-0.40911 -0.1364,-0.7306 -0.049,-0.33119 -0.078,-0.68181 -0.097,-1.05198 -0.01,-0.37021 -0.019,-0.75982 -0.019,-1.1787 0,-0.3701 0.01,-0.74031 0.019,-1.11051 0.019,-0.3701 0.049,-0.74031 0.097,-1.11041 0.039,-0.47731 0.1072,-0.96439 0.1949,-1.4515 0.078,-0.48701 0.185,-1.013 0.3214,-1.59748 0.1266,-0.57471 0.2922,-1.23713 0.4773,-1.97743 0.1559,-0.59418 0.2728,-1.10077 0.3604,-1.51959 0.088,-0.41889 0.1559,-0.79879 0.1949,-1.12998 0.039,-0.33123 0.068,-0.67211 0.078,-1.0033 v -0.51633 c 0,-0.7209 -0.078,-1.34429 -0.2338,-1.85078 -0.1559,-0.49681 -0.3799,-0.90589 -0.6819,-1.19821 -0.1851,-0.14608 -0.3799,-0.25318 -0.5844,-0.32141 -0.2046,-0.078 -0.4189,-0.10718 -0.6429,-0.10718 -0.302,0 -0.6137,0.0585 -0.9352,0.18511 -0.3312,0.13638 -0.6624,0.32148 -1.0033,0.58448 -0.1754,0.12661 -0.302,0.21431 -0.3897,0.26299 -0.088,0.0584 -0.1363,0.0779 -0.1558,0.0779 -0.01,0 -0.029,-0.01 -0.039,-0.0195 -0.019,-0.01 -0.029,-0.0195 -0.049,-0.0389 -0.565,-0.9157 -1.3345,-1.61709 -2.3086,-2.0944 -0.9644,-0.48701 -2.0554,-0.73061 -3.2536,-0.73061 z m -0.029,6.76043 c 0.1656,0 0.3507,0.01 0.5455,0.0487 0.1948,0.0292 0.4481,0.0779 0.7696,0.14612 0.2825,0.0779 0.5552,0.13628 0.8182,0.18507 0.263,0.0584 0.4773,0.0876 0.6429,0.1071 0.1754,0.01 0.302,0.0195 0.3605,0.039 0.068,0.01 0.097,0.0487 0.088,0.0974 v 0.0292 c -0.097,0.34089 -0.2045,0.75978 -0.3214,1.23709 -0.1169,0.48708 -0.2241,0.96438 -0.3312,1.45139 -0.097,0.42859 -0.1851,0.75012 -0.263,0.95469 -0.078,0.21431 -0.1559,0.3701 -0.2241,0.4675 -0.078,0.12672 -0.263,0.38972 -0.5552,0.7988 -0.2923,0.40911 -0.6137,0.89623 -0.9839,1.4612 -0.526,0.79873 -1.0033,1.50982 -1.4319,2.11381 -0.4286,0.61369 -0.8085,1.13002 -1.1397,1.5391 -0.3215,0.41882 -0.6332,0.78899 -0.9254,1.11051 -0.2825,0.33119 -0.5553,0.62339 -0.8183,0.85718 -0.1558,0.13642 -0.3117,0.26303 -0.4578,0.37991 -0.1461,0.11691 -0.2435,0.2045 -0.3117,0.25322 -0.039,0.0293 -0.078,0.0488 -0.1169,0.0682 -0.039,0.01 -0.068,0.0195 -0.078,0.0195 -0.019,0 -0.029,-0.01 -0.049,-0.0195 -0.01,-0.01 -0.029,-0.0292 -0.039,-0.0389 -0.01,-0.039 -0.019,-0.12668 -0.029,-0.24359 0,-0.11681 0,-0.2727 0,-0.4675 0,-0.32149 0.01,-0.67222 0.019,-1.0715 0.01,-0.39941 0.019,-0.84751 0.039,-1.33459 0.01,-0.4675 0.039,-0.87672 0.058,-1.22742 0.029,-0.35059 0.058,-0.6429 0.088,-0.85721 0.3117,-2.56188 0.9936,-4.64648 2.0554,-6.2537 0.3799,-0.59418 0.7793,-1.05209 1.1884,-1.3638 0.4189,-0.31168 0.8377,-0.47727 1.2664,-0.48697 h 0.1363 z m 33.4216,18.39108 c 0.098,0.01 0.2046,0.0195 0.3118,0.0292 0.1071,0 0.2143,0 0.3117,0 0.828,0 1.617,-0.21431 2.3671,-0.66241 0.75,-0.43829 1.5001,-1.13969 2.2307,-2.0845 0.7305,-0.95468 1.4904,-2.1918 2.2794,-3.7114 0.1558,-0.2922 0.3312,-0.62339 0.5065,-1.0033 0.1754,-0.3799 0.3312,-0.74041 0.4676,-1.07149 0.1851,-0.4579 0.3994,-0.96442 0.6234,-1.52939 0.2338,-0.56501 0.4676,-1.14943 0.7111,-1.74371 0.2338,-0.60389 0.4676,-1.18841 0.6916,-1.75331 0.1559,-0.41889 0.2825,-0.77929 0.3994,-1.0716 0.1072,-0.30191 0.1948,-0.5455 0.2533,-0.73049 0.1169,-0.37021 0.2143,-0.7111 0.2825,-1.03262 0.078,-0.33119 0.1169,-0.57468 0.1169,-0.74027 0,-0.0585 -0.01,-0.0974 -0.019,-0.12672 -0.01,-0.0292 -0.019,-0.0389 -0.039,-0.0389 -0.058,-0.0195 -0.2143,0.13642 -0.4481,0.4675 -0.2435,0.33123 -0.6331,0.92541 -1.1786,1.78273 -0.4968,0.75978 -0.9352,1.42219 -1.3053,1.98709 -0.3799,0.56501 -0.6917,1.02288 -0.9449,1.38328 -0.263,0.3604 -0.5358,0.72083 -0.8183,1.091 -0.2922,0.3701 -0.5942,0.75 -0.9254,1.13972 -0.224,0.27269 -0.4773,0.5552 -0.75,0.85718 -0.2825,0.2922 -0.5748,0.61372 -0.906,0.93511 -0.3312,0.33122 -0.6234,0.60399 -0.8669,0.8183 -0.2533,0.22401 -0.4579,0.38961 -0.6137,0.49682 -0.1169,0.0779 -0.2241,0.14608 -0.3117,0.1948 -0.097,0.0585 -0.1656,0.0877 -0.2046,0.0974 0,-0.01 -0.01,-0.12658 -0.019,-0.3604 0,-0.22398 -0.01,-0.50648 -0.01,-0.84748 0,-0.4675 0.01,-0.92541 0.049,-1.3637 0.029,-0.4481 0.078,-0.87672 0.1461,-1.2858 0.1461,-0.82801 0.3994,-1.91901 0.7793,-3.2536 0.2922,-1.12021 0.5552,-2.11381 0.7793,-3.0002 0.224,-0.8962 0.3994,-1.67552 0.526,-2.33789 0.1364,-0.67212 0.2435,-1.32482 0.3409,-1.95792 0.088,-0.6332 0.1559,-1.24689 0.2046,-1.84111 0.019,-0.21428 0.029,-0.41889 0.039,-0.61369 0.01,-0.18511 0.019,-0.37991 0.019,-0.55521 0,-1.0131 -0.1266,-1.83137 -0.3702,-2.44499 -0.2435,-0.6235 -0.6137,-1.05209 -1.1104,-1.29561 -0.1267,-0.0682 -0.2533,-0.11688 -0.3896,-0.14609 -0.1268,-0.0292 -0.2729,-0.0487 -0.4384,-0.0487 -0.1753,0 -0.3409,0.0389 -0.4969,0.11687 -0.146,0.0682 -0.2922,0.1656 -0.4187,0.28251 -0.098,0.0681 -0.2047,0.13631 -0.3216,0.2045 -0.1071,0.0682 -0.2239,0.11691 -0.3312,0.1656 -0.3117,0.0974 -0.7501,0.3702 -1.315,0.8183 -0.5649,0.4481 -1.2078,1.17859 -1.9092,2.17219 -0.2241,0.28251 -0.4578,0.58452 -0.6917,0.91571 -0.2337,0.33119 -0.4481,0.6526 -0.6624,0.97409 -0.2045,0.31171 -0.3896,0.58452 -0.5358,0.8183 -0.263,0.42863 -0.5551,0.87662 -0.8473,1.32472 -0.3021,0.4579 -0.6041,0.9157 -0.9157,1.39298 -0.4286,0.67211 -0.8671,1.34433 -1.3152,2.0164 -0.4383,0.68192 -0.8961,1.36381 -1.3734,2.06513 -0.3701,0.56497 -0.6917,1.02277 -0.9644,1.36377 -0.2825,0.34092 -0.4285,0.51632 -0.4578,0.51632 0,-0.0195 0.049,-0.19491 0.1364,-0.51632 0.078,-0.32149 0.1851,-0.74027 0.3214,-1.2469 0.263,-0.94488 0.4774,-1.7339 0.6429,-2.34759 0.1753,-0.62339 0.3021,-1.12991 0.3897,-1.51959 0.097,-0.38961 0.1558,-0.7111 0.1948,-0.96439 0.097,-0.61362 0.1657,-1.21761 0.2143,-1.81183 0.049,-0.59418 0.068,-1.1689 0.068,-1.7242 0,-0.41879 -0.01,-0.78899 -0.039,-1.11048 -0.029,-0.32141 -0.078,-0.58441 -0.1267,-0.79872 -0.1461,-0.4481 -0.341,-0.78909 -0.5747,-1.03258 -0.2436,-0.24352 -0.5261,-0.38961 -0.8573,-0.42859 h -0.146 c -0.5261,0 -1.091,0.26299 -1.6853,0.79879 -0.6039,0.526 -1.237,1.32479 -1.9093,2.39628 -0.3018,0.4481 -0.5746,0.93511 -0.8279,1.4514 -0.2631,0.52603 -0.4967,1.091 -0.7111,1.69503 -0.2143,0.59418 -0.4579,1.37347 -0.7404,2.31828 -0.2824,0.94491 -0.6039,2.06509 -0.9448,3.3607 -0.2532,0.95462 -0.4774,1.8313 -0.6624,2.61059 -0.1851,0.77932 -0.3311,1.46121 -0.448,2.04562 -0.1268,0.58448 -0.2242,1.13979 -0.2826,1.66578 -0.068,0.51632 -0.1072,1.0033 -0.1169,1.44173 v 0.4578 c 0,0.5455 0.029,0.9936 0.097,1.3637 0.068,0.36047 0.1851,0.74037 0.3604,1.12028 0.068,0.22401 0.156,0.40912 0.263,0.5649 0.1072,0.1656 0.2631,0.341 0.4773,0.55531 0.3507,0.3507 0.7306,0.62339 1.1204,0.8085 0.3896,0.17529 0.8085,0.27269 1.2467,0.27269 0.078,0 0.1462,0 0.2339,0 0.078,-0.01 0.1559,-0.0194 0.2239,-0.0292 0.6332,-0.0876 1.1983,-0.32138 1.695,-0.70128 0.5066,-0.37021 1.0131,-0.95469 1.5294,-1.72421 0.1168,-0.17529 0.2337,-0.36039 0.3507,-0.565 0.1168,-0.19481 0.2825,-0.49679 0.5065,-0.8962 0.2144,-0.40908 0.5357,-1.013 0.9644,-1.8118 0.4189,-0.80849 1.0033,-1.9093 1.7436,-3.29251 0.3021,-0.56497 0.5845,-1.1007 0.867,-1.6268 0.2728,-0.51618 0.5358,-1.013 0.789,-1.49027 0.4871,-0.94492 0.8281,-1.56842 1.0326,-1.88013 0.146,-0.28247 0.341,-0.6331 0.5941,-1.07149 0.2436,-0.43829 0.4969,-0.87669 0.7599,-1.32479 0.2532,-0.4481 0.4676,-0.8182 0.6527,-1.12991 0.1753,-0.30201 0.263,-0.45791 0.2727,-0.47738 0,0.01 -0.049,0.16559 -0.1364,0.45787 -0.098,0.30191 -0.224,0.68181 -0.3799,1.14942 -0.643,1.84108 -1.1202,3.54581 -1.432,5.11408 -0.3214,1.55861 -0.4773,2.9905 -0.4773,4.2763 -0.01,0.16563 -0.019,0.33122 -0.029,0.49682 0,0.15589 0,0.31168 0,0.47731 0,0.59418 0.029,1.12998 0.078,1.58778 0.058,0.4579 0.146,0.88649 0.2629,1.2664 0.117,0.37991 0.2728,0.75981 0.4578,1.13972 0.1462,0.29217 0.2924,0.52599 0.4287,0.73057 0.1461,0.1948 0.3215,0.40911 0.5455,0.6429 0.4286,0.41882 0.8767,0.75981 1.3442,1.0033 0.4676,0.24352 0.9449,0.40912 1.4514,0.47731 z m 17.4559,-34.6782 c -0.039,0 -0.088,0 -0.1363,0 -0.059,0 -0.097,0 -0.1461,0 -0.068,0.0194 -0.1462,0.0292 -0.2143,0.0292 -0.068,0 -0.1462,0 -0.2144,0 -0.3409,0.0195 -0.6039,0.0487 -0.7987,0.0877 -0.1851,0.0487 -0.3604,0.0974 -0.5358,0.1753 -0.565,0.2922 -0.9936,0.69158 -1.2858,1.1981 -0.302,0.49678 -0.4578,1.04228 -0.4578,1.6268 0,0.5358 0.1461,1.05198 0.4286,1.5391 0.2532,0.38961 0.5552,0.71109 0.8962,0.98379 0.3409,0.2631 0.7305,0.46761 1.1591,0.61369 0.098,0.0293 0.2143,0.0487 0.3507,0.0682 0.1364,0.01 0.2923,0.0195 0.4773,0.0195 h 0.2533 c 0.2338,0 0.4189,0 0.5552,-0.01 0.1267,-0.01 0.2533,-0.0293 0.3605,-0.0682 0.1071,-0.039 0.2435,-0.0974 0.3994,-0.1851 0.3506,-0.1753 0.6916,-0.42859 1.0228,-0.75011 0.3312,-0.32138 0.5747,-0.65257 0.7403,-0.9838 0.058,-0.12668 0.1071,-0.24348 0.1364,-0.34099 0.029,-0.0974 0.049,-0.21431 0.058,-0.35059 0.01,-0.13642 0.01,-0.32152 0.01,-0.56501 0,-0.2728 0,-0.46761 -0.019,-0.60399 -0.01,-0.13631 -0.029,-0.25322 -0.068,-0.35059 -0.039,-0.10721 -0.097,-0.24363 -0.1656,-0.41893 -0.1655,-0.32148 -0.3603,-0.60399 -0.6039,-0.8377 -0.2338,-0.23379 -0.5162,-0.41889 -0.828,-0.55527 -0.224,-0.11691 -0.4383,-0.19481 -0.6429,-0.23382 -0.2046,-0.0487 -0.4481,-0.0682 -0.7307,-0.0876 z m -2.3963,11.30939 c -0.1948,0 -0.3993,0.0194 -0.5942,0.0584 -0.1948,0.039 -0.3896,0.0974 -0.5747,0.16559 -0.4091,0.15589 -0.7889,0.38961 -1.1396,0.70139 -0.3409,0.30191 -0.6526,0.68182 -0.9449,1.12991 -0.2922,0.4481 -0.5942,1.02281 -0.8864,1.7145 -0.2825,0.68182 -0.5845,1.49031 -0.8767,2.41569 -0.604,1.8996 -1.0521,3.65301 -1.354,5.24072 -0.302,1.59759 -0.4481,3.03929 -0.4481,4.32509 0,0.3604 0.01,0.70129 0.039,1.04232 0.029,0.33119 0.059,0.65257 0.1072,0.95458 0.2046,1.0813 0.5065,2.02622 0.9351,2.84441 0.4189,0.8085 0.9254,1.46121 1.5294,1.93848 0.6039,0.48701 1.2858,0.77932 2.0456,0.86692 0.097,0.01 0.1851,0.0195 0.2825,0.0293 0.088,0 0.1753,0 0.2532,0 0.4968,0 0.9936,-0.0877 1.4904,-0.2533 0.487,-0.16559 0.9838,-0.41888 1.4806,-0.75007 0.1851,-0.12661 0.3994,-0.30191 0.6429,-0.51622 0.2436,-0.22409 0.526,-0.49678 0.8378,-0.81831 0.3117,-0.33118 0.5942,-0.6332 0.8377,-0.90589 0.2533,-0.27281 0.4676,-0.526 0.6526,-0.75008 0.5845,-0.81823 1.1495,-1.7242 1.7047,-2.7275 0.565,-1.0033 1.1008,-2.11381 1.6268,-3.32172 0.6137,-1.46121 1.0715,-2.62029 1.3735,-3.47761 0.302,-0.85718 0.4578,-1.42219 0.4578,-1.69489 0,-0.039 0,-0.0779 0,-0.0974 -0.01,-0.0292 -0.019,-0.039 -0.029,-0.039 -0.01,0 -0.049,0.039 -0.1072,0.12657 -0.058,0.078 -0.1363,0.19491 -0.2337,0.36051 -0.1169,0.17529 -0.2728,0.41881 -0.4579,0.7306 -0.1851,0.31171 -0.3701,0.6429 -0.5455,0.97409 -0.2143,0.38961 -0.4091,0.7403 -0.5844,1.06172 -0.1754,0.32149 -0.341,0.61369 -0.4968,0.85728 -0.1559,0.25323 -0.341,0.5357 -0.5358,0.85722 -0.2046,0.31168 -0.4383,0.66241 -0.6916,1.05198 -0.4286,0.6332 -0.8183,1.18841 -1.1787,1.67552 -0.3701,0.48698 -0.7208,0.92541 -1.0618,1.32479 -0.3506,0.39931 -0.7013,0.78902 -1.0715,1.16889 -0.3896,0.38961 -0.6916,0.67211 -0.9156,0.84751 -0.2241,0.185 -0.4189,0.31172 -0.5942,0.40909 -0.2046,0.0974 -0.38,0.16562 -0.5163,0.20461 -0.1364,0.0292 -0.3117,0.0487 -0.5163,0.0487 h -0.5065 l -0.058,-0.25333 c -0.019,-0.0779 -0.029,-0.18507 -0.039,-0.32149 -0.01,-0.13631 -0.019,-0.31168 -0.019,-0.50648 0,-0.4578 0.019,-0.95462 0.058,-1.49042 0.039,-0.53569 0.078,-1.0033 0.1364,-1.42219 0.1753,-1.11051 0.4481,-2.38661 0.8182,-3.8088 0.3702,-1.42212 0.8378,-3.0002 1.4125,-4.7244 0.1851,-0.60392 0.3312,-1.06182 0.4286,-1.3637 0.097,-0.30201 0.1656,-0.5455 0.2143,-0.7306 0.049,-0.17529 0.088,-0.38971 0.1266,-0.61369 0.039,-0.20461 0.068,-0.39942 0.088,-0.58452 0.019,-0.185 0.029,-0.3799 0.029,-0.5649 -0.01,-0.7988 -0.1558,-1.49038 -0.4578,-2.05539 -0.2922,-0.55531 -0.7208,-0.95462 -1.2858,-1.19821 -0.1267,-0.0389 -0.2728,-0.0779 -0.4189,-0.0974 -0.1558,-0.0292 -0.302,-0.0389 -0.4676,-0.0389 z m 25.3171,23.36881 c 0.098,0.01 0.2046,0.0195 0.3118,0.0292 0.1071,0 0.2143,0 0.3117,0 0.828,0 1.617,-0.21431 2.3671,-0.66241 0.75,-0.43829 1.5001,-1.13969 2.2307,-2.0845 0.7305,-0.95468 1.4904,-2.1918 2.2794,-3.7114 0.1558,-0.2922 0.3312,-0.62339 0.5065,-1.0033 0.1754,-0.3799 0.3312,-0.74041 0.4676,-1.07149 0.1851,-0.4579 0.3994,-0.96442 0.6234,-1.52939 0.2338,-0.56501 0.4676,-1.14943 0.7111,-1.74371 0.2338,-0.60389 0.4676,-1.18841 0.6916,-1.75331 0.1559,-0.41889 0.2825,-0.77929 0.3994,-1.0716 0.1072,-0.30191 0.1948,-0.5455 0.2533,-0.73049 0.1169,-0.37021 0.2143,-0.7111 0.2825,-1.03262 0.078,-0.33119 0.1169,-0.57468 0.1169,-0.74027 0,-0.0585 -0.01,-0.0974 -0.019,-0.12672 -0.01,-0.0292 -0.019,-0.0389 -0.039,-0.0389 -0.058,-0.0195 -0.2143,0.13642 -0.448,0.4675 -0.2435,0.33123 -0.6331,0.92541 -1.1786,1.78273 -0.4969,0.75978 -0.9353,1.42219 -1.3054,1.98709 -0.3799,0.56501 -0.6916,1.02288 -0.9448,1.38328 -0.263,0.3604 -0.5358,0.72083 -0.8183,1.091 -0.2922,0.3701 -0.5943,0.75 -0.9254,1.13972 -0.2241,0.27269 -0.4774,0.5552 -0.7501,0.85718 -0.2825,0.2922 -0.5747,0.61372 -0.906,0.93511 -0.3311,0.33122 -0.6234,0.60399 -0.8668,0.8183 -0.2533,0.22401 -0.4579,0.38961 -0.6138,0.49682 -0.1168,0.0779 -0.2241,0.14608 -0.3116,0.1948 -0.097,0.0585 -0.1656,0.0877 -0.2047,0.0974 0,-0.01 -0.01,-0.12658 -0.019,-0.3604 0,-0.22398 -0.01,-0.50648 -0.01,-0.84748 0,-0.4675 0.01,-0.92541 0.049,-1.3637 0.029,-0.4481 0.078,-0.87672 0.1461,-1.2858 0.1461,-0.82801 0.3994,-1.91901 0.7793,-3.2536 0.2922,-1.12021 0.5552,-2.11381 0.7793,-3.0002 0.224,-0.8962 0.3994,-1.67552 0.526,-2.33789 0.1364,-0.67212 0.2435,-1.32482 0.3409,-1.95792 0.088,-0.6332 0.1559,-1.24689 0.2046,-1.84111 0.019,-0.21428 0.029,-0.41889 0.039,-0.61369 0.01,-0.18511 0.019,-0.37991 0.019,-0.55521 0,-1.0131 -0.1267,-1.83137 -0.3702,-2.44499 -0.2435,-0.6235 -0.6137,-1.05209 -1.1105,-1.29561 -0.1266,-0.0682 -0.2533,-0.11688 -0.3896,-0.14609 -0.1267,-0.0292 -0.2728,-0.0487 -0.4384,-0.0487 -0.1753,0 -0.3409,0.0389 -0.4968,0.11687 -0.1461,0.0682 -0.2922,0.1656 -0.4188,0.28251 -0.097,0.0681 -0.2046,0.13631 -0.3215,0.2045 -0.1072,0.0682 -0.224,0.11691 -0.3312,0.1656 -0.3117,0.0974 -0.7501,0.3702 -1.315,0.8183 -0.565,0.4481 -1.2079,1.17859 -1.9093,2.17219 -0.224,0.28251 -0.4578,0.58452 -0.6916,0.91571 -0.2338,0.33119 -0.4481,0.6526 -0.6624,0.97409 -0.2046,0.31171 -0.3897,0.58452 -0.5358,0.8183 -0.263,0.42863 -0.5552,0.87662 -0.8474,1.32472 -0.302,0.4579 -0.604,0.9157 -0.9157,1.39298 -0.4286,0.67211 -0.867,1.34433 -1.3151,2.0164 -0.4383,0.68192 -0.8961,1.36381 -1.3734,2.06513 -0.3702,0.56497 -0.6917,1.02277 -0.9644,1.36377 -0.2825,0.34092 -0.4286,0.51632 -0.4578,0.51632 0,-0.0195 0.049,-0.19491 0.1363,-0.51632 0.078,-0.32149 0.1851,-0.74027 0.3215,-1.2469 0.263,-0.94488 0.4773,-1.7339 0.6429,-2.34759 0.1753,-0.62339 0.302,-1.12991 0.3896,-1.51959 0.098,-0.38961 0.1559,-0.7111 0.1949,-0.96439 0.097,-0.61362 0.1656,-1.21761 0.2143,-1.81183 0.049,-0.59418 0.068,-1.1689 0.068,-1.7242 0,-0.41879 -0.01,-0.78899 -0.039,-1.11048 -0.029,-0.32141 -0.078,-0.58441 -0.1266,-0.79872 -0.1462,-0.4481 -0.341,-0.78909 -0.5748,-1.03258 -0.2435,-0.24352 -0.526,-0.38961 -0.8572,-0.42859 h -0.1461 c -0.526,0 -1.091,0.26299 -1.6852,0.79879 -0.604,0.526 -1.2371,1.32479 -1.9093,2.39628 -0.3019,0.4481 -0.5747,0.93511 -0.8279,1.4514 -0.2631,0.52603 -0.4968,1.091 -0.7111,1.69503 -0.2144,0.59418 -0.4579,1.37347 -0.7404,2.31828 -0.2825,0.94491 -0.6039,2.06509 -0.9449,3.3607 -0.2532,0.95462 -0.4773,1.8313 -0.6623,2.61059 -0.1851,0.77932 -0.3312,1.46121 -0.4481,2.04562 -0.1267,0.58448 -0.2241,1.13979 -0.2825,1.66578 -0.068,0.51632 -0.1072,1.0033 -0.1169,1.44173 v 0.4578 c 0,0.5455 0.029,0.9936 0.097,1.3637 0.068,0.36047 0.1851,0.74037 0.3604,1.12028 0.068,0.22401 0.1559,0.40912 0.263,0.5649 0.1072,0.1656 0.263,0.341 0.4773,0.55531 0.3507,0.3507 0.7306,0.62339 1.1203,0.8085 0.3896,0.17529 0.8085,0.27269 1.2468,0.27269 0.078,0 0.1461,0 0.2338,0 0.078,-0.01 0.1559,-0.0194 0.224,-0.0292 0.6332,-0.0876 1.1982,-0.32138 1.695,-0.70128 0.5065,-0.37021 1.0131,-0.95469 1.5293,-1.72421 0.1169,-0.17529 0.2338,-0.36039 0.3507,-0.565 0.1169,-0.19481 0.2825,-0.49679 0.5066,-0.8962 0.2143,-0.40908 0.5357,-1.013 0.9643,-1.8118 0.4189,-0.80849 1.0034,-1.9093 1.7437,-3.29251 0.302,-0.56497 0.5844,-1.1007 0.8669,-1.6268 0.2728,-0.51618 0.5358,-1.013 0.7891,-1.49027 0.487,-0.94492 0.828,-1.56842 1.0325,-1.88013 0.1461,-0.28247 0.341,-0.6331 0.5942,-1.07149 0.2436,-0.43829 0.4968,-0.87669 0.7598,-1.32479 0.2533,-0.4481 0.4676,-0.8182 0.6527,-1.12991 0.1753,-0.30201 0.263,-0.45791 0.2727,-0.47738 0,0.01 -0.049,0.16559 -0.1363,0.45787 -0.098,0.30191 -0.2241,0.68181 -0.3799,1.14942 -0.643,1.84108 -1.1203,3.54581 -1.432,5.11408 -0.3214,1.55861 -0.4773,2.9905 -0.4773,4.2763 -0.01,0.16563 -0.019,0.33122 -0.029,0.49682 0,0.15589 0,0.31168 0,0.47731 0,0.59418 0.029,1.12998 0.078,1.58778 0.059,0.4579 0.1461,0.88649 0.263,1.2664 0.1169,0.37991 0.2728,0.75981 0.4578,1.13972 0.1462,0.29217 0.2923,0.52599 0.4287,0.73057 0.1461,0.1948 0.3214,0.40911 0.5455,0.6429 0.4286,0.41882 0.8767,0.75981 1.3442,1.0033 0.4676,0.24352 0.9449,0.40912 1.4514,0.47731"
         style="fill:#231f20;fill-opacity:1;fill-rule:nonzero;stroke:none;stroke-width:0.352778"
         id="path1884" /><path
         d="m 1245.357,400.23468 c -0.6234,0 -1.2566,0.0682 -1.8995,0.21432 -0.6429,0.13638 -1.276,0.34099 -1.919,0.61369 -0.9059,0.42859 -1.7436,1.0034 -2.5229,1.7339 -0.7794,0.7306 -1.4904,1.6171 -2.1334,2.65942 -0.6429,1.04228 -1.1884,2.182 -1.6365,3.40928 -0.4578,1.23719 -0.8084,2.57171 -1.0714,4.01341 -0.117,0.67208 -0.1948,1.31498 -0.2533,1.93841 -0.059,0.61369 -0.088,1.21768 -0.088,1.80209 0,1.29558 0.1462,2.49379 0.4287,3.57498 0.2824,1.0813 0.7012,2.04562 1.2566,2.9029 1.0519,1.43193 2.25,2.14302 3.5944,2.14302 0.3701,0 0.7402,-0.0584 1.1104,-0.16559 0.3702,-0.11691 0.7403,-0.27273 1.1106,-0.48712 1.4611,-0.94481 3.1951,-3.05869 5.2212,-6.34139 l 0.5455,-0.85721 0.029,0.97409 c 0.068,1.3832 0.2924,2.59111 0.6625,3.61392 0.3799,1.02288 0.9059,1.86059 1.5877,2.523 0.3411,0.30198 0.7502,0.58441 1.208,0.828 0.4578,0.23379 0.9059,0.38958 1.3344,0.4578 0.117,0.0195 0.2242,0.0292 0.3411,0.039 0.1168,0.01 0.2435,0.0194 0.3701,0.0194 0.7014,0 1.3734,-0.15579 2.0163,-0.4578 0.6528,-0.30198 1.2761,-0.75978 1.8899,-1.37351 0.5065,-0.4675 1.0618,-1.20787 1.6755,-2.20147 0.6136,-1.0033 1.2955,-2.26963 2.0359,-3.78922 0.3018,-0.6137 0.5746,-1.19821 0.8182,-1.74371 0.2533,-0.5455 0.487,-1.0715 0.6916,-1.56828 0.2143,-0.48711 0.4285,-1.0033 0.6332,-1.5391 0.2046,-0.5455 0.4188,-1.1007 0.6233,-1.68522 0.6332,-1.80209 0.945,-2.9126 0.945,-3.34119 0,-0.0779 -0.01,-0.12661 -0.019,-0.15589 -0.019,-0.0292 -0.039,-0.0487 -0.068,-0.0487 -0.039,0 -0.088,0.0293 -0.1462,0.0877 -0.068,0.0487 -0.1362,0.12661 -0.2239,0.22412 -0.078,0.11681 -0.2242,0.34089 -0.4481,0.68178 -0.224,0.34103 -0.4676,0.7209 -0.7501,1.14953 -0.8573,1.35399 -1.6072,2.52289 -2.2502,3.49698 -0.6331,0.97409 -1.1689,1.77292 -1.5976,2.38661 -0.4285,0.61369 -0.8279,1.14938 -1.198,1.61699 -0.3702,0.46761 -0.7209,0.84751 -1.0326,1.14949 -0.2435,0.23372 -0.4969,0.44803 -0.7501,0.66231 -0.263,0.20461 -0.4968,0.3702 -0.7111,0.50662 -0.2045,0.12658 -0.3604,0.19477 -0.4481,0.19477 -0.068,0.01 -0.1267,-0.0779 -0.1753,-0.23379 -0.049,-0.15578 -0.097,-0.40911 -0.1365,-0.7306 -0.049,-0.33119 -0.078,-0.68181 -0.097,-1.05198 -0.01,-0.37021 -0.019,-0.75982 -0.019,-1.1787 0,-0.3701 0.01,-0.74031 0.019,-1.11051 0.019,-0.3701 0.049,-0.74031 0.097,-1.11041 0.039,-0.47731 0.1073,-0.96439 0.195,-1.4515 0.078,-0.48701 0.185,-1.013 0.3214,-1.59748 0.1265,-0.57471 0.2922,-1.23713 0.4773,-1.97743 0.1559,-0.59418 0.2727,-1.10077 0.3604,-1.51959 0.088,-0.41889 0.1559,-0.79879 0.1949,-1.12998 0.039,-0.33123 0.068,-0.67211 0.078,-1.0033 v -0.51633 c 0,-0.7209 -0.078,-1.34429 -0.2337,-1.85078 -0.1559,-0.49681 -0.3799,-0.90589 -0.6819,-1.19821 -0.1851,-0.14608 -0.3799,-0.25318 -0.5844,-0.32141 -0.2046,-0.078 -0.4189,-0.10718 -0.6429,-0.10718 -0.3021,0 -0.6137,0.0585 -0.9353,0.18511 -0.3311,0.13638 -0.6623,0.32148 -1.0033,0.58448 -0.1754,0.12661 -0.3019,0.21431 -0.3896,0.26299 -0.088,0.0584 -0.1363,0.0779 -0.1559,0.0779 -0.01,0 -0.029,-0.01 -0.039,-0.0195 -0.019,-0.01 -0.029,-0.0195 -0.049,-0.0389 -0.5649,-0.9157 -1.3344,-1.61709 -2.3085,-2.0944 -0.9644,-0.48701 -2.0554,-0.73061 -3.2536,-0.73061 z m -0.029,6.76043 c 0.1656,0 0.3507,0.01 0.5455,0.0487 0.1948,0.0292 0.4481,0.0779 0.7696,0.14612 0.2825,0.0779 0.5552,0.13628 0.8182,0.18507 0.263,0.0584 0.4773,0.0876 0.6429,0.1071 0.1754,0.01 0.302,0.0195 0.3605,0.039 0.068,0.01 0.097,0.0487 0.088,0.0974 v 0.0292 c -0.097,0.34089 -0.2045,0.75978 -0.3214,1.23709 -0.1169,0.48708 -0.2241,0.96438 -0.3312,1.45139 -0.097,0.42859 -0.1851,0.75012 -0.263,0.95469 -0.078,0.21431 -0.1559,0.3701 -0.2241,0.4675 -0.078,0.12672 -0.263,0.38972 -0.5552,0.7988 -0.2923,0.40911 -0.6137,0.89623 -0.9839,1.4612 -0.526,0.79873 -1.0033,1.50982 -1.4319,2.11381 -0.4286,0.61369 -0.8085,1.13002 -1.1397,1.5391 -0.3215,0.41882 -0.6332,0.78899 -0.9254,1.11051 -0.2825,0.33119 -0.5553,0.62339 -0.8183,0.85718 -0.1558,0.13642 -0.3117,0.26303 -0.4578,0.37991 -0.1461,0.11691 -0.2435,0.2045 -0.3117,0.25322 -0.039,0.0293 -0.078,0.0488 -0.1169,0.0682 -0.039,0.01 -0.068,0.0195 -0.078,0.0195 -0.019,0 -0.029,-0.01 -0.049,-0.0195 -0.01,-0.01 -0.029,-0.0292 -0.039,-0.0389 -0.01,-0.039 -0.019,-0.12668 -0.029,-0.24359 0,-0.11681 0,-0.2727 0,-0.4675 0,-0.32149 0.01,-0.67222 0.019,-1.0715 0.01,-0.39941 0.019,-0.84751 0.039,-1.33459 0.01,-0.4675 0.039,-0.87672 0.058,-1.22742 0.029,-0.35059 0.058,-0.6429 0.088,-0.85721 0.3117,-2.56188 0.9936,-4.64648 2.0554,-6.2537 0.3799,-0.59418 0.7793,-1.05209 1.1884,-1.3638 0.4189,-0.31168 0.8377,-0.47727 1.2664,-0.48697 h 0.1363 z"
         style="fill:#231f20;fill-opacity:1;fill-rule:nonzero;stroke:none;stroke-width:0.352778"
         id="path1886" /></g><g
       inkscape:groupmode="layer"
       id="layer3"
       inkscape:label="o can de quen"><g
         inkscape:groupmode="layer"
         id="layer5"
         inkscape:label="quen"><path
           d="m 1167.0792,223.5398 v -14.63743 l 74.1474,76.04563 v -61.4082 h 31.8977 v 138.50489 l -74.1475,-75.6962 v 61.12591 h -109.3812 v -31.9556 h 0.01 v -10.91441 c -0.4361,3.03322 -1.049,6.04171 -1.8589,9.005 -1.8253,6.59681 -4.7146,12.79159 -8.8946,18.23061 -4.2052,5.47539 -9.5645,9.63249 -15.8254,12.53599 -6.7931,3.14939 -14.2879,4.33299 -21.764,4.36369 -7.5112,-0.0297 -15.1118,-1.1919 -21.9756,-4.35688 -6.2867,-2.8986 -11.6391,-7.06109 -15.8337,-12.56961 -4.16096,-5.4627 -6.98855,-11.66728 -8.71906,-18.27139 -1.89089,-7.045 -2.63899,-14.35301 -2.63899,-21.63572 V 223.5398 h 31.89775 v 73.42561 c 0.019,3.81529 0.591,7.69638 2.2384,11.15688 1.2828,2.67349 3.077,4.79679 5.5945,6.36111 2.8364,1.74798 6.1619,2.3362 9.4527,2.35899 3.2836,-0.0228 6.5662,-0.61591 9.3826,-2.3513 2.5472,-1.5827 4.3467,-3.72149 5.6519,-6.40531 1.6669,-3.45028 2.2312,-7.32007 2.2506,-11.09949 V 223.5398 h 108.5171 z m 0,92.03728 v -60.14007 h -50.3583 v 14.32239 h 43.1402 v 31.69609 h -43.1402 v 14.06331 h 4.7719 v 0.0583 z m -235.81552,32.97203 v 0.61009 l -3.71232,-0.2202 -4.0827,0.42869 v -0.67081 l -0.97899,-0.0583 c -8.13389,-0.48222 -15.9966,-2.42281 -23.38479,-5.91291 -7.09171,-3.3993 -13.45272,-7.9774 -18.8897,-13.67931 -5.43701,-5.73501 -9.70982,-12.35319 -12.7266,-19.66659 -3.12173,-7.5982 -4.58582,-15.61729 -4.64901,-23.82322 v -0.12827 c 0.0641,-8.19323 1.53071,-16.20552 4.6476,-23.79162 3.0099,-7.32839 7.27731,-13.91888 12.7241,-19.66359 5.42921,-5.72921 11.77671,-10.3058 18.9,-13.6876 7.36,-3.51102 15.21241,-5.4224 23.34531,-5.93721 l 1.01208,-0.0641 v -0.68831 l 4.03261,0.4336 3.76241,-0.23819 v 0.64159 l 1.37368,0.14782 c 7.81022,0.83901 15.32431,3.02158 22.3042,6.62989 6.7946,3.51159 12.8398,8.11731 17.96711,13.77449 5.18089,5.6786 9.1887,12.16322 12.0378,19.30351 2.95349,7.39941 4.35441,15.21149 4.387,23.20389 -0.0325,7.8378 -1.36789,15.4589 -4.17999,22.7421 -1.79853,4.6597 -4.10651,9.03023 -6.92732,13.07701 l 24.47794,26.16281 h -41.90753 l -5.4253,-5.88331 c -2.39941,1.2439 -4.8756,2.3313 -7.41111,3.26172 -4.9499,1.853 -10.08888,3.00217 -15.3422,3.55388 z m -4.31211,-31.51862 3.65351,-0.5104 c 0.59838,-0.0846 1.19478,-0.1852 1.78879,-0.30331 l -8.92521,-9.915 v -16.29399 h 25.39859 l 6.4491,6.90019 c 0.0845,-0.21728 0.16672,-0.43699 0.24793,-0.65719 1.2833,-3.4532 1.8457,-7.0829 1.87187,-10.75979 -0.0268,-3.86641 -0.6538,-7.65412 -2.04057,-11.2721 -1.32951,-3.47081 -3.20491,-6.61631 -5.6558,-9.41141 -2.42073,-2.76341 -5.27611,-5.0607 -8.52322,-6.8321 -3.3244,-1.83688 -6.924,-2.96418 -10.67721,-3.51931 l -3.34087,-0.49439 -3.52672,0.2956 c -3.9908,0.33489 -7.83629,1.3178 -11.43099,3.06821 -3.46301,1.6975 -6.5351,3.93449 -9.1591,6.76409 -2.63952,2.84611 -4.67631,6.05921 -6.119,9.66601 -1.5011,3.7556 -2.19861,7.6993 -2.22581,11.73688 0.0268,4.02921 0.71352,7.97782 2.22391,11.73102 1.44371,3.60779 3.47461,6.84668 6.10439,9.68259 2.63511,2.81841 5.70872,5.08261 9.1658,6.77672 3.60451,1.75528 7.45,2.73819 11.4408,3.07308 z"
           style="display:inline;fill:#231f20;fill-opacity:1;fill-rule:evenodd;stroke:none;stroke-width:0.352778"
           id="path1844"
           inkscape:label="fondo" /><path
           d="m 1249.51,231.7901 v 73.4863 l -74.1473,-76.04612 v 21.14042 l 89.478,91.34641 V 231.7901 Z"
           style="fill:#f9c516;fill-opacity:1;fill-rule:evenodd;stroke:none;stroke-width:0.352778"
           id="path1866"
           inkscape:label="n (2)" /><path
           d="m 1175.3627,339.15728 h 15.3306 V 278.7583 l -15.3306,-15.4161 z"
           style="fill:#f9c516;fill-opacity:1;fill-rule:evenodd;stroke:none;stroke-width:0.352778"
           id="path1868"
           inkscape:label="n (1)" /><path
           d="m 1113.2094,323.76989 h -15.3296 v 15.38739 h 61.3483 v -15.3295 h -46.0187 z"
           style="fill:#f9c516;fill-opacity:1;fill-rule:evenodd;stroke:none;stroke-width:0.352778"
           id="path1870"
           inkscape:label="e (2)" /><path
           d="m 1108.4372,247.12059 v 30.89011 h 43.1402 v 15.12778 h -43.1402 v 20.52591 h -10.5491 v -20.52591 h -0.01 V 278.0107 h 0.01 v -30.89011 h -0.01 V 231.7901 h 61.3484 v 15.33049 h -50.7909 z"
           style="fill:#f9c516;fill-opacity:1;fill-rule:evenodd;stroke:none;stroke-width:0.352778"
           id="path1878"
           inkscape:label="e (1)" /><path
           d="m 1066.8459,231.7901 v 65.1745 c -0.029,5.57939 -1.0354,10.4691 -3.0776,14.69658 -2.0425,4.19901 -4.947,7.47822 -8.7433,9.83671 -3.8256,2.35811 -8.3988,3.56599 -13.7479,3.5952 -5.3792,-0.0292 -9.9805,-1.23709 -13.8056,-3.5952 -3.7969,-2.35849 -6.7018,-5.6377 -8.7153,-9.83671 -2.013,-4.22748 -3.0201,-9.11719 -3.0483,-14.69658 v -65.1745 h -15.3305 v 60.0831 c 0,7.10428 0.7768,13.60389 2.3589,19.50078 1.5532,5.92501 3.9973,11.0441 7.3057,15.3869 3.3069,4.34333 7.535,7.6798 12.7124,10.06662 5.1769,2.38718 11.3606,3.56701 18.5227,3.59519 7.0172,-0.0282 13.115,-1.20801 18.2632,-3.59519 5.1483,-2.38682 9.405,-5.72329 12.7411,-10.06662 3.3371,-4.3428 5.8385,-9.46189 7.478,-15.3869 1.6116,-5.89689 2.4451,-12.3965 2.4165,-19.50078 v -60.0831 z"
           style="fill:#f9c516;fill-opacity:1;fill-rule:evenodd;stroke:none;stroke-width:0.352778"
           id="path1872"
           inkscape:label="u" /><path
           d="m 967.30176,321.7278 c 4.37201,-4.83232 7.7373,-10.32559 10.12402,-16.5093 2.38717,-6.1832 3.59519,-12.74109 3.62429,-19.7589 -0.0289,-7.13299 -1.29441,-13.8635 -3.79691,-20.1337 -2.50239,-6.2701 -5.98191,-11.8782 -10.469,-16.7966 -4.45801,-4.91832 -9.69281,-8.916 -15.64661,-11.99352 -5.95319,-3.07739 -12.42508,-5.00479 -19.38549,-5.7519 v 15.44471 c 4.8605,0.71949 9.34759,2.1855 13.46052,4.45802 4.1129,2.24338 7.70809,5.1483 10.75729,8.62827 3.077,3.50961 5.46428,7.47812 7.16121,11.90791 1.6975,4.42881 2.56029,9.17459 2.58847,14.23681 -0.0282,4.83129 -0.805,9.37588 -2.38668,13.6331 -1.5536,4.25629 -3.73909,8.08189 -6.55849,11.47579 l -11.50391,-12.3099 h -13.51841 v 4.83182 l 14.78372,16.42279 c -2.18602,1.29448 -4.54413,2.41639 -7.01731,3.27918 -2.5025,0.89101 -5.0914,1.52393 -7.76641,1.89822 v 15.44529 c 4.6597,-0.48948 9.089,-1.49621 13.31712,-3.07848 4.22807,-1.55262 8.19658,-3.56602 11.84959,-6.03931 l 7.50679,8.13918 h 19.1843 z"
           style="fill:#f9c516;fill-opacity:1;fill-rule:evenodd;stroke:none;stroke-width:0.352778"
           id="path1874"
           inkscape:label="q (2)" /><path
           d="m 871.12308,285.4596 c 0.0573,7.3921 1.37999,14.2942 4.02629,20.73688 2.64629,6.4136 6.3567,12.13791 11.0733,17.1136 4.7171,4.94651 10.21048,8.916 16.45151,11.90692 6.2702,2.96231 13.02889,4.68799 20.30578,5.11958 v -15.35867 c -5.1483,-0.43173 -9.9514,-1.72572 -14.3807,-3.88303 -4.40069,-2.15678 -8.28358,-5.03297 -11.59101,-8.57077 -3.30789,-3.56651 -5.89587,-7.65023 -7.73677,-12.25261 -1.8403,-4.5732 -2.78973,-9.51971 -2.8188,-14.8119 0.0289,-5.26341 0.9785,-10.21052 2.8188,-14.81282 1.8409,-4.60139 4.42888,-8.65689 7.73677,-12.22298 3.30743,-3.5669 7.19032,-6.41399 11.59101,-8.5708 4.4293,-2.15731 9.2324,-3.45179 14.3807,-3.88352 v -15.38739 c -7.27689,0.46041 -14.03558,2.1573 -20.30578,5.14829 -6.24103,2.96281 -11.73441,6.93121 -16.45151,11.90791 -4.7166,4.97569 -8.42701,10.66991 -11.0733,17.11262 -2.6463,6.44267 -3.969,13.34579 -4.02629,20.70869 z"
           style="fill:#f9c516;fill-opacity:1;fill-rule:evenodd;stroke:none;stroke-width:0.352778"
           id="path1876"
           inkscape:label="q (1)" /></g><g
         inkscape:groupmode="layer"
         id="layer6"
         inkscape:label="can de"><path
           d="m 1025.7668,135.3323 h 8.0503 l -4.0249,-8.86742 z m 60.9148,-38.269512 V 52.180494 l 74.1479,76.046016 V 66.817808 h 31.8976 V 205.32299 L 1118.5798,129.627 v 61.1258 h -59.6237 l -10.3831,-23.0095 h -0.045 l -2.4027,-5.2941 h -32.6677 l -2.4028,5.2941 h -0.044 l -10.3831,23.0095 h -34.96353 l 3.85858,-8.29581 c -1.68628,1.1073 -3.4362,2.11839 -5.24397,3.02941 -4.25383,2.1597 -8.7527,3.79638 -13.39342,4.89839 -4.53288,1.07622 -9.161,1.63329 -13.82081,1.63329 -6.8948,0 -13.7069,-1.04758 -20.26387,-3.20919 -6.28961,-2.08639 -12.20153,-5.06229 -17.57631,-8.9433 -5.31449,-3.83868 -9.96262,-8.41188 -13.88981,-13.65931 -3.95729,-5.2863 -7.00998,-11.12139 -9.1712,-17.376 -2.20828,-6.4559 -3.26319,-13.20387 -3.2948,-20.02049 v -0.0772 c 0.0317,-6.82339 1.09333,-13.55199 3.30111,-20.03989 2.16169,-6.22403 5.21731,-12.054208 9.16489,-17.328412 3.92719,-5.247393 8.57532,-9.820593 13.88981,-13.658921 5.37478,-3.881896 11.2867,-6.857788 17.58308,-8.945598 6.53803,-2.155895 13.3477,-3.203892 20.24743,-3.236383 4.63737,0 9.25728,0.551709 13.7746,1.59191 4.64559,1.069375 9.1512,2.707569 13.4318,4.830868 4.37049,2.184506 8.39978,4.943122 11.98958,8.259234 l 4.40259,4.067668 -14.12208,30.969304 -8.45181,-8.8519 c -1.82919,-1.91618 -3.88589,-3.6049 -6.15548,-4.9995 -2.1548,-1.33329 -4.49051,-2.269593 -6.90012,-2.919974 -2.89179,-0.754415 -5.91531,-1.021221 -8.8761,-1.021221 -4.21651,0.02187 -8.30838,0.778193 -12.19091,2.438718 -3.76428,1.609967 -7.10279,3.830497 -9.99758,6.725607 -2.89472,2.89517 -5.11609,6.23418 -6.72659,9.99758 -1.65421,3.86891 -2.41342,7.96081 -2.46641,12.15929 0.053,4.21101 0.8074,8.30743 2.46641,12.18692 1.6105,3.7639 3.83187,7.10329 6.72708,9.99808 2.8943,2.89521 6.23281,5.11612 9.99709,6.7261 3.88253,1.66003 7.98562,2.41642 12.18061,2.43871 2.93461,0 5.99171,-0.27068 8.8864,-1.05089 2.43441,-0.63482 4.74722,-1.61582 6.87101,-2.92971 2.26808,-1.4175 4.31751,-3.12611 6.15199,-5.06998 l 8.45231,-8.95393 10.78699,23.65351 52.50584,-112.867513 56.8894,122.291513 z m 193.1159,61.792692 c 3.7633,-0.0462 7.5164,-0.6883 10.9833,-2.28317 3.2544,-1.46512 6.0859,-3.51692 8.4757,-6.19094 2.5253,-2.80137 4.383,-6.00868 5.6945,-9.52697 1.4287,-3.87572 2.0476,-7.9628 2.0737,-12.08342 -0.026,-4.14058 -0.6508,-8.2 -2.0702,-12.0742 -1.3081,-3.5087 -3.1471,-6.70141 -5.6689,-9.476 l -0.048,-0.0525 c -2.3911,-2.67599 -5.2138,-4.7166 -8.4673,-6.20359 -3.4605,-1.569088 -7.1724,-2.228183 -10.9358,-2.249209 h -17.2524 v 60.139999 z m 81.9624,-0.0583 h 4.8025 v 0.0583 h 46.0189 v 31.89732 h -77.916 v -25.2095 h -0.022 v -12.58661 c -2.7756,7.29879 -6.8851,13.8684 -12.274,19.52321 -5.6674,5.94639 -12.4781,10.3728 -20.0748,13.46239 -8.3672,3.4047 -17.4096,4.75072 -26.4335,4.81051 h -40.4239 v -31.89732 h 0.029 V 98.715481 h -0.029 V 66.817808 h 40.4302 c 9.108,0.02963 18.2539,1.370789 26.7242,4.801694 7.6298,3.077492 14.4735,7.494199 20.0919,13.498901 5.2727,5.567292 9.2426,12.012506 11.9599,19.181907 V 77.633481 h 0.022 V 66.817808 h 77.916 v 31.897673 h -50.8214 v 14.322429 h 43.1708 v 31.69599 h -43.1708 z"
           style="fill:#231f20;fill-opacity:1;fill-rule:evenodd;stroke:none;stroke-width:0.352778"
           id="path1850"
           inkscape:label="fondo" /><path
           d="m 1358.2789,167.04818 h -15.3301 v 15.38739 h 61.3489 v -15.32949 h -46.0188 z"
           style="fill:#f9c516;fill-opacity:1;fill-rule:evenodd;stroke:none;stroke-width:0.352778"
           id="path1852"
           inkscape:label="e (2)" /><path
           d="m 1342.9488,75.068399 v 10.815602 h -0.022 v 71.342069 h 10.5493 v -20.80926 h 43.1707 v -15.12793 h -43.1707 V 90.398886 h 50.8214 V 75.068399 Z"
           style="fill:#f9c516;fill-opacity:1;fill-rule:evenodd;stroke:none;stroke-width:0.352778"
           id="path1854"
           inkscape:label="e (1)" /><path
           d="m 1275.8474,75.068399 h -32.1262 v 15.330487 h 0.028 v 64.725304 h 10.5492 V 90.398886 h 25.5468 c 5.2348,0.02822 10.0379,1.034909 14.3516,2.990991 4.3438,1.984728 8.0823,4.717098 11.2177,8.225723 3.1635,3.48001 5.58,7.53551 7.3055,12.1661 1.697,4.63049 2.5599,9.60618 2.588,14.95619 -0.028,5.349 -0.891,10.35389 -2.588,14.95581 -1.7255,4.63098 -4.142,8.68598 -7.3055,12.19468 -3.1354,3.50911 -6.8739,6.24201 -11.2177,8.19753 -4.3137,1.9848 -9.1168,2.96227 -14.3516,3.02017 h -36.1243 v 15.32949 h 32.1262 c 8.7435,-0.0573 16.5385,-1.43778 23.3255,-4.19886 6.7877,-2.76151 12.5121,-6.58612 17.1999,-11.50493 4.6599,-4.88918 8.2258,-10.58429 10.6417,-17.05529 2.4165,-6.47189 3.6243,-13.46048 3.6243,-20.9386 0,-7.47811 -1.1792,-14.43859 -3.5091,-20.90998 -2.3584,-6.47093 -5.8385,-12.166003 -10.4691,-17.055714 -4.6024,-4.918287 -10.3257,-8.743421 -17.1708,-11.504401 -6.8166,-2.761615 -14.6973,-4.170292 -23.6424,-4.199396 z"
           style="fill:#f9c516;fill-opacity:1;fill-rule:evenodd;stroke:none;stroke-width:0.352778"
           id="path1856"
           inkscape:label="d" /><path
           d="m 1169.113,75.068399 v 73.486191 l -74.1474,-76.045982 v 21.140385 l 89.478,91.346407 V 75.068399 Z"
           style="fill:#f9c516;fill-opacity:1;fill-rule:evenodd;stroke:none;stroke-width:0.352778"
           id="path1858"
           inkscape:label="n (2)" /><path
           d="m 1094.9656,182.43557 h 15.3301 V 122.0366 l -15.3301,-15.41611 z"
           style="fill:#f9c516;fill-opacity:1;fill-rule:evenodd;stroke:none;stroke-width:0.352778"
           id="path1860"
           inkscape:label="n (1)" /><path
           d="M 1029.7922,72.508608 978.65376,182.43557 h 16.62402 l 10.38312,-23.00936 h 0.057 l 24.074,-53.03612 16.8822,37.19269 h -26.2149 v 10.54982 h 31.0024 l 2.4033,5.29361 h 0.058 l 10.3829,23.00936 h 16.6242 z"
           style="fill:#f9c516;fill-opacity:1;fill-rule:evenodd;stroke:none;stroke-width:0.352778"
           id="path1862"
           inkscape:label="a" /><path
           d="m 936.11536,168.37138 c -5.49339,-0.0292 -10.64168,-1.06457 -15.41611,-3.10621 -4.77449,-2.04208 -8.97389,-4.86046 -12.5972,-8.48479 -3.6244,-3.62388 -6.44278,-7.82328 -8.48529,-12.59721 -2.04209,-4.77498 -3.07749,-9.92318 -3.13489,-15.44528 0.0574,-5.49338 1.0928,-10.64161 3.13489,-15.4166 2.04251,-4.77439 4.86089,-8.97329 8.48529,-12.59769 3.62331,-3.623806 7.82271,-6.442712 12.5972,-8.484307 4.77443,-2.04209 9.92272,-3.077493 15.41611,-3.106703 4.02682,0 7.70802,0.431695 11.01591,1.294518 3.3074,0.891999 6.3567,2.157272 9.1459,3.882884 2.76158,1.697003 5.37821,3.796983 7.79459,6.327598 l 6.558,-14.380703 c -3.0202,-2.79019 -6.38538,-5.090901 -10.06708,-6.931307 -3.71041,-1.841289 -7.59241,-3.250495 -11.59101,-4.17068 -3.99771,-0.920221 -7.9667,-1.381019 -11.90702,-1.381019 -6.1836,0.02928 -12.07999,0.978499 -17.65939,2.818906 -5.55169,1.840794 -10.67078,4.429301 -15.33048,7.795013 -4.65882,3.3643 -8.6856,7.333791 -12.10832,11.906991 -3.42308,4.573199 -6.06891,9.606209 -7.96759,15.070909 -1.86899,5.49339 -2.81842,11.27461 -2.8466,17.37219 0.0282,6.09759 0.97761,11.90699 2.8466,17.3717 1.89868,5.49342 4.54451,10.52742 7.96759,15.09959 3.42272,4.5737 7.4495,8.54273 12.10832,11.90791 4.6597,3.3648 9.77879,5.9533 15.33048,7.79459 5.5794,1.84041 11.47579,2.7892 17.65939,2.7892 3.94032,0 7.90931,-0.45928 11.90702,-1.40867 3.9986,-0.94933 7.8806,-2.35903 11.56279,-4.22801 3.70992,-1.86962 7.0751,-4.1994 10.0953,-6.96052 l -6.558,-14.3807 c -2.41638,2.55982 -5.03301,4.68792 -7.79459,6.4136 -2.7892,1.72611 -5.8385,3.04882 -9.1459,3.9116 -3.30789,0.89151 -6.98909,1.3232 -11.01591,1.3232 z"
           style="fill:#f9c516;fill-opacity:1;fill-rule:evenodd;stroke:none;stroke-width:0.352778"
           id="path1864"
           inkscape:label="c" /></g><g
         inkscape:groupmode="layer"
         id="layer4"
         inkscape:label="o"><path
           d="m 785.96468,162.12538 3.62888,-0.41628 c 4.09501,-0.46961 7.99712,-1.58439 11.65232,-3.47962 3.5355,-1.8452 6.62771,-4.24529 9.29711,-7.21247 2.68848,-2.9888 4.73579,-6.34873 6.20518,-10.10613 1.53039,-3.8874 2.21439,-7.96417 2.24159,-12.13609 -0.0279,-4.16101 -0.7135,-8.25429 -2.24018,-12.13269 -1.47221,-3.74001 -3.51712,-7.11969 -6.19262,-10.09442 -2.68288,-2.95819 -5.78641,-5.3564 -9.34018,-7.19928 -3.64201,-1.900908 -7.54789,-3.011417 -11.62272,-3.478601 l -3.62988,-0.415925 -3.60401,0.415431 c -4.064,0.468595 -7.9919,1.581997 -11.63539,3.483787 -3.54531,1.838188 -6.64841,4.236398 -9.3219,7.183788 -2.68482,2.98553 -4.72691,6.35572 -6.1921,10.0783 -1.50932,3.89692 -2.22292,7.98442 -2.25051,12.15961 0.0275,4.18702 0.7389,8.25571 2.24769,12.1521 1.46703,3.75039 3.51102,7.10132 6.19961,10.09061 2.67212,2.97039 5.77152,5.3696 9.32572,7.21247 3.63498,1.89714 7.56338,3.01093 11.62787,3.47963 z m 2.63359,29.44721 v 0.44559 l -2.62329,-0.22278 -2.62329,0.22278 v -0.44559 l -2.38901,-0.20299 c -7.88681,-0.67021 -15.48959,-2.693 -22.58032,-6.2164 -6.91589,-3.42061 -13.0423,-7.99761 -18.29929,-13.66721 -5.22869,-5.6738 -9.32278,-12.1581 -12.2344,-19.3311 -2.99371,-7.45789 -4.43399,-15.31838 -4.46589,-23.3523 v -0.056 c 0.0317,-8.02072 1.4774,-15.87751 4.47111,-23.33541 2.90449,-7.156023 6.99618,-13.672817 12.23998,-19.330596 5.24951,-5.661625 11.3726,-10.234824 18.28292,-13.652606 7.0963,-3.525696 14.69908,-5.548595 22.58539,-6.218802 l 2.38951,-0.203412 v -0.445981 l 2.62329,0.223202 2.62329,-0.223202 v 0.445981 l 2.38961,0.203412 c 7.88628,0.670207 15.4891,2.693106 22.57968,6.215909 6.916,3.420675 13.03542,7.990099 18.27872,13.644175 5.2729,5.654005 9.33979,12.171821 12.2555,19.3542 2.98859,7.44562 4.43357,15.30241 4.4655,23.32313 v 0.056 c -0.0321,8.03392 -1.47183,15.89441 -4.47061,23.365 -2.9125,7.17392 -6.98169,13.6597 -12.24061,19.33071 -5.2499,5.6611 -11.37529,10.23571 -18.28561,13.65349 -7.09069,3.5234 -14.69629,5.5476 -22.58306,6.21781 z"
           style="display:inline;fill:#231f20;fill-opacity:1;fill-rule:evenodd;stroke:none;stroke-width:0.352778"
           id="path1846"
           inkscape:label="fondo" /><path
           d="m 730.42949,128.78171 c 0.0289,7.37789 1.36609,14.2893 3.95319,20.73409 2.61609,6.44479 6.24949,12.1605 10.8713,17.17629 4.65078,5.0159 10.05738,9.06939 16.24881,12.13139 6.16239,3.06201 12.84799,4.8992 20.05679,5.51163 v -15.6016 c -5.05781,-0.58332 -9.7668,-1.98311 -14.06882,-4.2285 -4.33108,-2.2455 -8.08079,-5.1617 -11.3073,-8.74861 -3.22657,-3.5869 -5.72639,-7.64042 -7.52859,-12.24802 -1.7731,-4.57838 -2.7033,-9.47759 -2.7323,-14.72667 0.0289,-5.22002 0.9592,-10.14832 2.7323,-14.72671 1.8022,-4.57849 4.30202,-8.66112 7.52859,-12.24802 3.22651,-3.5578 6.97622,-6.474003 11.3073,-8.719398 4.30202,-2.245501 9.01101,-3.645288 14.06882,-4.2285 V 73.257484 c -7.2088,0.612423 -13.8944,2.449619 -20.05679,5.511624 -6.19143,3.06197 -11.59803,7.115493 -16.24881,12.131287 -4.62181,4.98669 -8.25521,10.731605 -10.8713,17.176395 -2.5871,6.44469 -3.9242,13.3561 -3.95319,20.70492 z m 59.96668,-55.524226 v 15.601598 c 5.0868,0.583212 9.76672,1.982999 14.06881,4.2285 4.33109,2.245395 8.08069,5.161598 11.3073,8.719398 3.22651,3.5869 5.72629,7.66953 7.52849,12.24802 1.8022,4.57839 2.7033,9.50669 2.73241,14.72671 -0.0289,5.24908 -0.93021,10.14829 -2.73241,14.72667 -1.8022,4.6076 -4.30198,8.66112 -7.52849,12.24802 -3.22661,3.58691 -6.97621,6.50311 -11.2783,8.74861 -4.33109,2.24539 -9.01101,3.64518 -14.09781,4.2285 v 15.6016 c 7.2088,-0.61243 13.8944,-2.44962 20.05672,-5.51163 6.19139,-3.062 11.59799,-7.11549 16.24887,-12.13139 4.65081,-5.01579 8.25511,-10.7315 10.87131,-17.17629 2.58699,-6.44479 3.92419,-13.3562 3.95319,-20.73409 -0.0289,-7.34882 -1.3662,-14.26023 -3.95319,-20.70492 -2.6162,-6.44479 -6.2205,-12.189705 -10.87131,-17.176395 -4.65088,-5.015794 -10.05748,-9.069317 -16.24887,-12.131287 -6.16232,-3.062005 -12.84792,-4.899201 -20.05672,-5.511624 z"
           style="display:inline;fill:#f9c516;fill-opacity:1;fill-rule:nonzero;stroke:none;stroke-width:0.352778"
           id="path1848"
           inkscape:label="o" /></g></g><g
       inkscape:groupmode="layer"
       id="layer2"
       inkscape:label="perro"><path
         d="m 409.38239,230.29108 c 0,-63.59469 47.88581,-127.7675 110.8928,-127.7675 h 7.23191 c 67.98517,0 113.30368,60.95492 113.30368,130.17842 0,36.36451 -19.28548,62.2717 -19.28548,74.73188 0,7.9296 7.23187,10.4334 7.23187,21.6964 v 9.64282 c 0,34.47708 -56.9232,57.85729 -96.42838,57.85729 h -14.46452 c -34.87339,0 -94.01739,-23.57021 -94.01739,-50.62541 v -21.6964 c 0,-10.42659 4.82102,-9.71589 4.82102,-16.8747 0,-15.52018 -19.28551,-44.86677 -19.28551,-77.1428 z m 243.48199,-12.05361 c 0,-30.56967 -18.8317,-63.28579 -31.33908,-81.96389 37.04307,0 79.55297,24.9362 79.55297,60.2675 v 24.10721 c 0,16.54062 -20.4609,77.1429 -33.75,77.1429 -6.21379,0 -16.35199,-23.21419 -16.9786,-31.28659 -0.93479,-12.0324 2.51471,-27.30941 2.51471,-43.44539 z M 339.4721,186.89828 c 0,-38.3244 56.80558,-60.26739 98.8392,-60.26739 -16.86299,25.18209 -32.5452,40.3484 -38.08522,77.62932 -3.6866,24.81036 -5.49339,86.29837 -29.41479,86.29837 -13.12308,0 -31.33919,-62.297 -31.33919,-81.9639 z m 113.30308,-72.3211 c -55.42868,0 -125.35668,21.039 -125.35668,69.91033 v 21.69639 c 0,27.15631 20.2033,96.42828 40.98191,96.42828 h 7.23187 c 11.2207,0 23.0317,-23.23119 24.10732,-36.16018 l 3.25409,0.5364 13.62121,38.0347 c -2.50652,4.73629 -4.8217,7.1089 -4.8217,14.46449 v 24.10721 c 0,37.58018 63.04259,65.08919 106.07107,65.08919 h 12.05371 c 46.3278,0 110.8928,-27.49461 110.8928,-67.50011 V 326.7195 c 0,-9.7221 -7.23191,-16.43602 -7.23191,-19.28562 0,-7.14989 6.2472,-9.86409 7.23191,-21.6964 h 4.82109 c 0.86642,10.40882 11.04219,24.10732 21.6964,24.10732 24.36551,0 45.8036,-66.01989 45.8036,-91.60733 v -21.69639 c 0,-46.7528 -56.13858,-74.73199 -106.0711,-74.73199 -19.37568,-12.97471 -37.86589,-31.339084 -69.91088,-31.339084 h -24.10661 c -23.64669,0 -45.887,14.476804 -60.2681,24.107174"
         style="fill:#231f20;fill-opacity:1;fill-rule:evenodd;stroke:none;stroke-width:0.352778"
         id="path1836" /><path
         d="m 532.32879,329.13028 c 20.44728,-9.81089 23.24488,-14.1768 28.92831,-38.5717 -5.95062,-8.8863 -19.15573,-12.05297 -33.75,-12.05297 -18.58783,0 -23.02412,4.17117 -36.16022,7.23187 v 9.64283 c 0,24.18168 26.51739,30.49037 26.51739,38.57099 0,4.71449 -11.35789,12.05368 -19.28548,12.05368 -17.05229,0 -18.50651,-12.8245 -21.6964,-26.5175 -6.8055,0.56653 -9.64279,-0.056 -9.64279,7.23191 v 2.41089 c 0,14.4816 14.44678,28.9283 28.92827,28.9283 h 4.8218 c 11.34431,0 17.27172,-7.47589 24.10721,-12.0536 6.8356,4.57771 12.7623,12.0536 24.10661,12.0536 16.48111,0 33.75,-10.61448 33.75,-26.51738 v -4.82181 c 0,-6.88611 -0.7578,-4.40831 -4.82102,-7.23191 -9.58268,7.02081 -4.09187,26.5175 -26.51809,26.5175 -12.2887,0 -16.93831,-6.79799 -19.28559,-16.8747"
         style="fill:#231f20;fill-opacity:1;fill-rule:evenodd;stroke:none;stroke-width:0.352778"
         id="path1838" /><path
         d="m 549.20349,227.8802 c 0,9.21709 -0.74009,0.8775 2.93229,8.067 l 9.12132,-5.65612 v -12.05361 c 6.71117,-4.49368 8.33208,-9.64279 19.28558,-9.64279 17.05229,0 18.50651,12.8245 21.69629,26.5181 6.80621,-0.56649 9.6435,0.0561 9.6435,-7.23258 v -2.41082 c 0,-14.48159 -14.44667,-28.9283 -28.92898,-28.9283 h -4.82102 c -16.2856,0 -28.92898,14.16653 -28.92898,31.33912"
         style="fill:#231f20;fill-opacity:1;fill-rule:evenodd;stroke:none;stroke-width:0.352778"
         id="path1840" /><path
         d="m 440.72147,223.05921 v 4.82099 c 0,6.7891 1.04281,4.46369 4.82174,7.23258 9.58267,-7.02138 4.09186,-26.5181 26.51749,-26.5181 h 2.41078 c 16.123,0 15.19032,26.5181 21.69639,26.5181 3.94572,0 7.23262,-1.44318 7.23262,-4.8217 0,-17.25598 -12.97129,-33.75 -28.92901,-33.75 h -9.64269 c -8.35399,0 -24.10732,14.82051 -24.10732,26.51813"
         style="fill:#231f20;fill-opacity:1;fill-rule:evenodd;stroke:none;stroke-width:0.352778"
         id="path1842" /></g></g></svg>
