<?xml version="1.0" encoding="UTF-8"?>
<!-- Created with Inkscape (http://www.inkscape.org/) -->
<svg width="13.022mm" height="9.7017mm" version="1.1" viewBox="0 0 13.022 9.7017" xmlns="http://www.w3.org/2000/svg">
 <g transform="translate(685.37 23.085)">
  <g transform="matrix(.26458 0 0 .26458 -685.37 -23.085)" style="fill:none">
   <path id="Vector" d="m33.295 14c-1.5893-7.4315-8.135-13-15.968-13-9.0224 0-16.337 7.3873-16.337 16.5 0 6.2099 3.3966 11.619 8.4158 14.434v1.1342c-5.5857-2.9048-9.4059-8.786-9.4059-15.568 0-9.665 7.7574-17.5 17.327-17.5 8.3826 0 15.375 6.0122 16.98 14z" clip-rule="evenodd" fill="#f9c516" fill-rule="evenodd"/>
   <path d="m14.961 35.072c-0.6257 0-1.2079-0.104-1.7465-0.312-0.5307-0.216-0.994-0.516-1.3901-0.9-0.3881-0.392-0.6931-0.844-0.9148-1.356-0.2139-0.52-0.3208-1.088-0.3208-1.704s0.1069-1.18 0.3208-1.692c0.2217-0.52 0.5267-0.972 0.9148-1.356 0.3961-0.392 0.8594-0.692 1.3901-0.9 0.5307-0.216 1.1129-0.324 1.7465-0.324 0.6258 0 1.204 0.108 1.7347 0.324 0.5307 0.208 0.9901 0.504 1.3782 0.888 0.3961 0.384 0.701 0.836 0.9149 1.356 0.2218 0.52 0.3326 1.088 0.3326 1.704s-0.1108 1.184-0.3326 1.704c-0.2139 0.52-0.5188 0.972-0.9149 1.356-0.3881 0.384-0.8475 0.684-1.3782 0.9-0.5307 0.208-1.1089 0.312-1.7347 0.312zm2.7208 1.596c-0.2534 0-0.499-0.032-0.7366-0.096s-0.4792-0.168-0.7248-0.312c-0.2376-0.136-0.4831-0.316-0.7366-0.54-0.2534-0.224-0.5307-0.496-0.8317-0.816l0.9624-0.24c0.2456 0.296 0.4832 0.54 0.7129 0.732 0.2376 0.192 0.4673 0.332 0.6891 0.42 0.2297 0.096 0.4554 0.144 0.6772 0.144 0.6178 0 1.1446-0.256 1.5802-0.768l0.4277 0.516c-0.5227 0.64-1.196 0.96-2.0198 0.96zm-2.7208-2.388c0.4991 0 0.9585-0.084 1.3783-0.252 0.4277-0.176 0.796-0.424 1.1049-0.744 0.3168-0.32 0.5624-0.688 0.7366-1.104 0.1743-0.424 0.2614-0.884 0.2614-1.38 0-0.504-0.0871-0.964-0.2614-1.38-0.1742-0.424-0.4198-0.792-0.7366-1.104-0.3089-0.32-0.6772-0.564-1.1049-0.732-0.4198-0.176-0.8792-0.264-1.3783-0.264-0.499 0-0.9623 0.088-1.3901 0.264-0.4277 0.168-0.8 0.412-1.1168 0.732-0.3089 0.312-0.5544 0.68-0.7366 1.104-0.1743 0.416-0.2614 0.876-0.2614 1.38 0 0.496 0.0871 0.956 0.2614 1.38 0.1822 0.416 0.4277 0.784 0.7366 1.104 0.3168 0.32 0.6891 0.568 1.1168 0.744 0.4278 0.168 0.8911 0.252 1.3901 0.252zm9.6816 0.792c-1.0614 0-1.897-0.308-2.5069-0.924s-0.9149-1.528-0.9149-2.736v-4.812h0.8793v4.776c0 0.992 0.2217 1.724 0.6653 2.196s1.0693 0.708 1.8772 0.708c0.8159 0 1.4456-0.236 1.8891-0.708 0.4436-0.472 0.6654-1.204 0.6654-2.196v-4.776h0.8554v4.812c0 1.208-0.3049 2.12-0.9148 2.736-0.602 0.616-1.4337 0.924-2.4951 0.924zm6.8435-4.716h4.3961v0.756h-4.3961zm0.0951 3.876h5.002v0.768h-5.8812v-8.4h5.703v0.768h-4.8238zm7.0686 0.768v-8.4h0.7248l5.7386 7.296h-0.3802v-7.296h0.8673v8.4h-0.7247l-5.7268-7.296h0.3802v7.296z" fill="#1e1e1e"/>
   <path d="m7.5116 24.072c-0.62575 0-1.204-0.104-1.7347-0.312-0.53069-0.216-0.99008-0.516-1.3782-0.9s-0.69307-0.836-0.91485-1.356c-0.21386-0.52-0.32079-1.088-0.32079-1.704s0.10693-1.184 0.32079-1.704c0.22178-0.52 0.52673-0.972 0.91485-1.356 0.39604-0.384 0.85939-0.68 1.3901-0.888 0.5307-0.216 1.1089-0.324 1.7347-0.324 0.60198 0 1.1683 0.104 1.699 0.312 0.53069 0.2 0.97822 0.504 1.3426 0.912l-0.5585 0.564c-0.34056-0.352-0.7168-0.604-1.1287-0.756-0.41188-0.16-0.85544-0.24-1.3307-0.24-0.49901 0-0.96238 0.088-1.3901 0.264-0.42772 0.168-0.8 0.412-1.1168 0.732-0.31682 0.312-0.56632 0.68-0.74851 1.104-0.17425 0.416-0.26138 0.876-0.26138 1.38s0.08713 0.968 0.26138 1.392c0.18219 0.416 0.43169 0.784 0.74851 1.104 0.31683 0.312 0.68911 0.556 1.1168 0.732 0.42772 0.168 0.89109 0.252 1.3901 0.252 0.47525 0 0.91881-0.08 1.3307-0.24s0.78812-0.416 1.1287-0.768l0.5585 0.564c-0.3644 0.408-0.81193 0.716-1.3426 0.924-0.5307 0.208-1.101 0.312-1.7109 0.312zm3.3882-0.072 3.802-8.4h0.8673l3.802 8.4h-0.9267l-3.4931-7.884h0.3564l-3.493 7.884zm1.497-2.244 0.2614-0.72h4.8357l0.2613 0.72zm8.3501 2.244v-8.4h0.7247l5.7387 7.296h-0.3802v-7.296h0.8673v8.4h-0.7248l-5.7267-7.296h0.3802v7.296zm12.775 0v-8.4h3.3861c0.8872 0 1.6634 0.18 2.3287 0.54 0.6733 0.352 1.1961 0.844 1.5684 1.476 0.3722 0.632 0.5584 1.36 0.5584 2.184s-0.1862 1.552-0.5584 2.184c-0.3723 0.632-0.8951 1.128-1.5684 1.488-0.6653 0.352-1.4415 0.528-2.3287 0.528zm0.8792-0.768h2.4594c0.7366 0 1.3743-0.144 1.9129-0.432 0.5465-0.296 0.9703-0.7 1.2713-1.212 0.3009-0.52 0.4514-1.116 0.4514-1.788 0-0.68-0.1505-1.276-0.4514-1.788-0.301-0.512-0.7248-0.912-1.2713-1.2-0.5386-0.296-1.1763-0.444-1.9129-0.444h-2.4594zm9.7208-3.876h4.3961v0.756h-4.3961zm0.0951 3.876h5.002v0.768h-5.8812v-8.4h5.703v0.768h-4.8238z" fill="#1e1e1e"/>
  </g>
 </g>
</svg>
