<?xml version="1.0" encoding="UTF-8" standalone="no"?>
<!-- Created with Inkscape (http://www.inkscape.org/) -->

<svg
   width="391.96106mm"
   height="72.478348mm"
   viewBox="0 0 391.96106 72.478348"
   version="1.1"
   id="svg3529"
   xml:space="preserve"
   inkscape:version="1.2 (dc2aedaf03, 2022-05-15)"
   sodipodi:docname="peluqueria.svg"
   xmlns:inkscape="http://www.inkscape.org/namespaces/inkscape"
   xmlns:sodipodi="http://sodipodi.sourceforge.net/DTD/sodipodi-0.dtd"
   xmlns="http://www.w3.org/2000/svg"
   xmlns:svg="http://www.w3.org/2000/svg"><sodipodi:namedview
     id="namedview3531"
     pagecolor="#ffffff"
     bordercolor="#666666"
     borderopacity="1.0"
     inkscape:showpageshadow="2"
     inkscape:pageopacity="0.0"
     inkscape:pagecheckerboard="0"
     inkscape:deskcolor="#d1d1d1"
     inkscape:document-units="mm"
     showgrid="false"
     inkscape:zoom="0.73406285"
     inkscape:cx="717.92218"
     inkscape:cy="-249.29745"
     inkscape:window-width="1920"
     inkscape:window-height="1027"
     inkscape:window-x="1912"
     inkscape:window-y="22"
     inkscape:window-maximized="1"
     inkscape:current-layer="layer1-5" /><defs
     id="defs3526" /><g
     inkscape:label="Capa 1"
     inkscape:groupmode="layer"
     id="layer1"
     transform="translate(85.22458,-214.30601)"><g
       id="layer7"
       inkscape:label="logo"
       transform="translate(-957.22563,-160.18815)"
       inkscape:export-filename="..\ocandequen-back.svg"
       inkscape:export-xdpi="96"
       inkscape:export-ydpi="96"><g
         inkscape:groupmode="layer"
         id="layer1-5"
         inkscape:label="peluqueria canina"><path
           d="m 881.93706,426.00958 c 0.0877,0.0293 0.16563,0.0488 0.23382,0.0682 0.078,0.01 0.14608,0.0195 0.22408,0.0195 0.1656,0 0.32142,-0.0487 0.4481,-0.14608 0.13631,-0.0974 0.25322,-0.24349 0.35059,-0.42859 0.0487,-0.0779 0.10721,-0.19481 0.16563,-0.34093 0.0585,-0.13638 0.13638,-0.3799 0.24359,-0.7209 0.0974,-0.34089 0.24349,-0.85718 0.42859,-1.5391 0.185,-0.67207 0.43829,-1.59748 0.75001,-2.75667 0.31171,-1.16893 0.70139,-2.6398 1.1787,-4.43223 0.40912,-1.51959 0.71109,-2.6203 0.9059,-3.29248 0.1948,-0.67211 0.31171,-1.0033 0.35069,-0.98379 0.039,-0.0195 0.10721,-0.0293 0.20461,-0.039 0.0876,-0.0195 0.19481,-0.0292 0.31168,-0.0487 0.42863,-0.0584 0.95462,-0.15593 1.57801,-0.2825 0.6235,-0.13642 1.2566,-0.28251 1.8995,-0.4578 2.46451,-0.70143 4.86082,-1.67552 7.1695,-2.93212 2.31842,-1.25659 4.55881,-2.78588 6.73111,-4.59779 2.49371,-2.1917 4.364,-4.43222 5.61079,-6.7311 1.23719,-2.29891 1.86062,-4.66602 1.86062,-7.0817 0,-0.66241 -0.0293,-1.25659 -0.0974,-1.78272 -0.0682,-0.526 -0.1754,-1.04229 -0.33123,-1.55847 -0.2728,-0.87662 -0.6235,-1.67541 -1.05209,-2.42552 -0.41878,-0.74031 -0.9254,-1.43189 -1.50978,-2.05529 -1.01311,-1.07149 -2.23072,-1.93851 -3.64321,-2.61062 -1.41252,-0.67219 -3.0197,-1.1592 -4.8316,-1.4417 -0.69159,-0.0974 -1.38321,-0.1754 -2.0943,-0.23379 -0.7111,-0.0487 -1.43189,-0.0779 -2.1625,-0.0779 -1.87032,0 -3.7211,0.15579 -5.57191,0.4675 -1.85078,0.31179 -3.69189,0.78909 -5.533,1.41249 -3.68208,1.25659 -6.67258,2.97099 -8.98119,5.13351 -0.85729,0.81831 -1.50989,1.60719 -1.95799,2.37681 -0.43833,0.76948 -0.68192,1.51959 -0.7306,2.25019 v 0.22398 c 0.01,0.62343 0.16559,1.12021 0.4773,1.48061 0.30198,0.3605 0.7111,0.55531 1.2372,0.57482 0.1168,0.01 0.21427,0 0.3019,-0.0195 0.0877,-0.0195 0.20458,-0.0585 0.341,-0.13642 0.13628,-0.0779 0.34089,-0.20447 0.61369,-0.37987 1.39291,-0.88643 3.01971,-1.80213 4.88019,-2.74701 0.9254,-0.4578 1.8216,-0.86692 2.66911,-1.23712 0.85718,-0.37017 1.68519,-0.68189 2.46451,-0.95459 1.47091,-0.52588 2.93208,-0.9351 4.39317,-1.2078 1.46121,-0.28251 2.93212,-0.4384 4.40302,-0.47731 h 0.59419 c 3.8282,0 6.50702,0.76951 8.04612,2.30851 0.2728,0.2728 0.50659,0.56501 0.69158,0.87669 0.18511,0.31171 0.341,0.6527 0.4481,1.0131 0.0585,0.14612 0.0974,0.28251 0.11691,0.39942 0.0194,0.12661 0.0293,0.27269 0.0293,0.4481 0,0.11691 0,0.25318 0,0.40908 -0.01,0.15582 -0.01,0.34092 -0.0293,0.53573 -0.0194,0.38967 -0.0389,0.69169 -0.0584,0.89619 -0.0293,0.20458 -0.0585,0.37991 -0.10717,0.5358 -0.0389,0.14609 -0.0974,0.34089 -0.1753,0.56501 -0.2728,0.85718 -0.70143,1.7241 -1.2858,2.59108 -0.57482,0.87669 -1.31512,1.76311 -2.19181,2.65931 -1.33449,1.33449 -2.80539,2.5424 -4.42239,3.64321 -1.61713,1.1007 -3.38991,2.0846 -5.30891,2.95148 -0.37021,0.1754 -0.75012,0.34099 -1.14949,0.50659 -0.40912,0.15582 -0.75982,0.2922 -1.05202,0.3896 -0.30198,0.10721 -0.48708,0.1559 -0.5455,0.1559 h -0.0293 c 0,-0.039 0.0487,-0.20458 0.15578,-0.48708 0.0974,-0.28251 0.2436,-0.68192 0.4481,-1.18841 0.39942,-1.03261 0.8865,-2.23068 1.4514,-3.60418 0.2728,-0.66242 0.5455,-1.32483 0.8183,-1.95803 0.2727,-0.6429 0.5357,-1.26629 0.8085,-1.86048 0.25329,-0.58451 0.46761,-1.1008 0.65271,-1.5488 0.1948,-0.4579 0.31168,-0.76962 0.3799,-0.93521 0.0584,-0.1851 0.0974,-0.3604 0.12658,-0.53569 0.0293,-0.17541 0.039,-0.3507 0.039,-0.51629 0,-0.42863 -0.0682,-0.82801 -0.21442,-1.19821 -0.14609,-0.37991 -0.3701,-0.7208 -0.67208,-1.03251 -0.2922,-0.31168 -0.6332,-0.5455 -1.02281,-0.7014 -0.3799,-0.16559 -0.79879,-0.24348 -1.25659,-0.24348 -0.71109,0 -1.34429,0.1851 -1.88002,0.5455 -0.5455,0.36039 -1.00337,0.89619 -1.37347,1.62669 -0.33123,0.6235 -0.71113,1.4417 -1.15923,2.4451 -0.4384,1.0033 -0.93518,2.19171 -1.49038,3.57488 -0.57471,1.38331 -1.091,2.68862 -1.56831,3.8965 -0.46761,1.21761 -0.88639,2.35733 -1.25659,3.40931 l -0.5455,1.5391 -0.94492,-0.0487 c -1.13968,-0.0487 -2.16249,-0.17533 -3.05869,-0.37991 -0.8962,-0.21431 -1.67548,-0.49682 -2.32808,-0.84741 -0.58452,-0.30201 -1.04232,-0.67221 -1.37351,-1.12031 -0.33122,-0.43829 -0.5455,-0.95458 -0.62339,-1.5391 -0.0293,-0.2727 -0.078,-0.4675 -0.12672,-0.60389 -0.0584,-0.12661 -0.11691,-0.1948 -0.1948,-0.1948 -0.039,0 -0.0974,0.0195 -0.1656,0.0584 -0.0584,0.039 -0.12661,0.0974 -0.20461,0.17537 -0.2824,0.32141 -0.49668,0.69162 -0.6429,1.1007 -0.13628,0.40911 -0.21428,0.84751 -0.21428,1.32482 0,0.0974 0.01,0.1948 0.0194,0.29221 0.01,0.10717 0.0293,0.20457 0.039,0.30197 0.30201,1.4417 1.06179,2.68852 2.2891,3.75031 1.21768,1.06179 2.89309,1.94822 5.01671,2.6398 0.30198,0.10721 0.52599,0.18511 0.67208,0.2436 0.14612,0.0584 0.21431,0.1071 0.21431,0.12661 0,0.0292 -0.0293,0.13638 -0.0779,0.34089 -0.0487,0.20461 -0.10721,0.4579 -0.1753,0.75011 -0.24363,1.0813 -0.42862,2.11381 -0.55531,3.09771 -0.12661,0.98379 -0.1851,1.91897 -0.1948,2.80539 0,0.33119 0.01,0.65271 0.0293,0.96439 0.0194,0.31171 0.0487,0.62339 0.0877,0.92541 0.0779,0.53569 0.1753,1.07149 0.28247,1.60729 0.1071,0.53569 0.23382,1.03251 0.36043,1.50011 0.13639,0.4578 0.27277,0.84748 0.41889,1.1689 0.20451,0.40908 0.43829,0.75011 0.69159,1.0131 0.24352,0.263 0.51632,0.4578 0.8182,0.58438 z m 36.29529,-25.9794 c -0.95458,0 -1.9092,0.23382 -2.84438,0.69162 -0.94491,0.4578 -1.88002,1.14938 -2.80539,2.07479 -1.0813,1.03262 -2.01641,2.25019 -2.78603,3.65291 -0.76948,1.39298 -1.39287,2.9906 -1.86048,4.77319 -0.11691,0.46761 -0.21431,0.9059 -0.2825,1.2858 -0.0779,0.38961 -0.13639,0.74031 -0.1753,1.06179 -0.0585,0.31172 -0.0974,0.66241 -0.11691,1.05202 -0.0194,0.38968 -0.0293,0.81831 -0.0293,1.28581 v 0.5455 c 0,0.41889 0.01,0.78909 0.0389,1.10077 0.0293,0.32142 0.0682,0.62343 0.12672,0.8962 0.0487,0.2825 0.11677,0.57471 0.20447,0.88642 1.11051,3.4483 3.3704,5.48418 6.76032,6.0784 0.1754,0.0195 0.34099,0.0293 0.51629,0.039 0.16559,0.01 0.34092,0.0195 0.51632,0.0195 2.20148,0 4.42228,-0.94488 6.68228,-2.82491 0.40912,-0.33118 0.82801,-0.7209 1.2566,-1.1787 0.42862,-0.44809 0.86691,-0.96438 1.30531,-1.5391 0.88639,-1.1105 2.02611,-2.70799 3.42879,-4.79259 1.05212,-1.61699 1.84111,-2.90279 2.37691,-3.84771 0.52599,-0.95469 0.78899,-1.56827 0.78899,-1.84108 0,-0.0195 -0.01,-0.0487 -0.0194,-0.0682 -0.01,-0.01 -0.0194,-0.0292 -0.039,-0.0389 h -0.0584 c -0.10721,0 -0.33122,0.13628 -0.66241,0.42859 -0.33119,0.29221 -0.77932,0.7208 -1.33449,1.30531 -1.75341,1.85078 -3.20481,3.32169 -4.3543,4.4419 -1.13972,1.11051 -1.9969,1.86048 -2.5522,2.24039 -0.50652,0.3605 -1.04232,0.67221 -1.61703,0.94491 -0.56497,0.263 -1.12988,0.47731 -1.68519,0.6235 -0.54539,0.15579 -1.05191,0.23368 -1.51948,0.23368 -0.30201,0 -0.60392,-0.0389 -0.8962,-0.12658 -0.3019,-0.0779 -0.60392,-0.2045 -0.90593,-0.36039 -0.46757,-0.23383 -0.8085,-0.48712 -1.05198,-0.75982 -0.23379,-0.2728 -0.39942,-0.6332 -0.48712,-1.06179 v -0.0292 c -0.0293,-0.11691 -0.0487,-0.21431 -0.0682,-0.2825 -0.01,-0.0779 -0.0194,-0.13639 -0.0194,-0.1753 0,-0.0682 0.0194,-0.12668 0.0585,-0.15589 0.039,-0.039 0.0974,-0.0584 0.1656,-0.0779 0,-0.01 0,-0.0195 0.01,-0.0195 0,0 0.01,-0.01 0.0194,-0.01 0.50649,-0.25319 1.02278,-0.57471 1.56828,-0.96428 0.5455,-0.38972 1.11051,-0.84752 1.69502,-1.37351 0.56498,-0.52602 1.10071,-1.05202 1.57787,-1.58781 0.48712,-0.5358 0.91571,-1.0813 1.30532,-1.63651 0.48711,-0.7403 0.906,-1.50008 1.25659,-2.2697 0.3507,-0.76948 0.6429,-1.5586 0.85722,-2.35729 0.0682,-0.33119 0.12668,-0.65271 0.16559,-0.9839 0.039,-0.32138 0.0585,-0.6429 0.0585,-0.95458 0,-0.20461 -0.01,-0.38961 -0.0194,-0.56501 -0.0194,-0.1753 -0.039,-0.34089 -0.0682,-0.49682 -0.25319,-1.03247 -0.76948,-1.841 -1.5488,-2.41579 -0.78899,-0.565 -1.76308,-0.85721 -2.93201,-0.86691 z m 1.88972,4.13992 c 0.0877,0 0.13639,0.0585 0.1656,0.1754 0.0487,0.12661 0.0779,0.25319 0.1071,0.38961 0.0293,0.13638 0.039,0.2825 0.039,0.43839 0,0.35059 -0.0584,0.75001 -0.1851,1.18841 -0.12658,0.43829 -0.31168,0.90589 -0.5552,1.40267 -0.4578,0.87673 -1.05188,1.7924 -1.78248,2.75672 -0.7306,0.96438 -1.58782,1.96768 -2.59119,3.01981 -0.37991,0.37987 -0.66241,0.65257 -0.84741,0.8182 -0.1754,0.15589 -0.2825,0.23378 -0.32152,0.23378 -0.0194,0 -0.0293,0 -0.0293,0 0,-0.01 0,-0.01 0,-0.0292 0,-0.0682 0.0293,-0.25329 0.0974,-0.5358 0.0584,-0.2922 0.13639,-0.60388 0.22398,-0.94488 0.0877,-0.34092 0.1656,-0.62339 0.24359,-0.85721 0.37991,-1.12998 0.80854,-2.17219 1.28581,-3.12688 0.48701,-0.95462 1.02281,-1.81183 1.60733,-2.59112 0.20447,-0.263 0.45779,-0.5552 0.74026,-0.86699 0.29221,-0.31171 0.56491,-0.58441 0.81813,-0.828 0.2533,-0.25319 0.4384,-0.39931 0.55527,-0.4675 0.19481,-0.11691 0.34093,-0.1754 0.42863,-0.1754 z m 24.19678,-29.67119 c -1.7339,0.0779 -3.39957,0.9936 -4.96788,2.73717 -1.0813,1.3541 -2.23069,3.1854 -3.4289,5.48432 -1.1981,2.29891 -2.4645,5.07499 -3.78929,8.32848 -0.75981,1.91901 -1.43192,3.85752 -2.02611,5.8057 -0.60399,1.94821 -1.11051,3.9159 -1.5391,5.89333 -0.42862,1.9872 -0.75011,3.86718 -0.96442,5.63037 -0.21428,1.77292 -0.32138,3.41912 -0.32138,4.94852 0,0.25319 0,0.50648 0,0.75 0.01,0.24349 0.0194,0.49678 0.0293,0.73061 0.14608,3.08789 0.62339,5.43549 1.4514,7.03308 0.47727,0.96432 1.06179,1.7339 1.75337,2.31831 0.69162,0.58449 1.50012,0.9839 2.41583,1.19818 0.12657,0.0292 0.26299,0.0487 0.41888,0.0682 0.14609,0.01 0.30191,0.0195 0.4578,0.0195 0.30202,0 0.59422,-0.0195 0.88639,-0.0585 0.28251,-0.0389 0.55531,-0.0974 0.82801,-0.1753 0.70139,-0.22408 1.38331,-0.58448 2.03591,-1.091 0.66238,-0.50659 1.29558,-1.14949 1.90931,-1.93851 0.34089,-0.42859 0.70128,-0.93507 1.091,-1.51959 0.37987,-0.59419 0.77928,-1.2664 1.1981,-2.01641 0.40919,-0.75978 0.7988,-1.5294 1.1787,-2.29888 0.37987,-0.77932 0.75008,-1.5683 1.10067,-2.3671 0.0877,-0.20461 0.1851,-0.48701 0.31182,-0.83771 0.13631,-0.35069 0.263,-0.71109 0.38961,-1.08129 0.13638,-0.3701 0.24348,-0.68192 0.33119,-0.95462 0.0877,-0.263 0.13638,-0.41889 0.13638,-0.46757 0,-0.01 0,-0.0292 -0.01,-0.0389 -0.01,-0.01 -0.0293,-0.0195 -0.0682,-0.0195 -0.0487,-0.01 -0.14608,0.0779 -0.31167,0.25319 -0.15583,0.1754 -0.41882,0.48711 -0.76952,0.94491 -0.3507,0.45791 -0.84748,1.11051 -1.4612,1.94822 -0.4481,0.57478 -0.83768,1.0813 -1.18841,1.51959 -0.34089,0.44809 -0.64286,0.828 -0.89619,1.13979 -0.2727,0.31171 -0.5455,0.61362 -0.8085,0.89609 -0.263,0.29231 -0.52599,0.5553 -0.79879,0.8183 -0.59419,0.58452 -1.15909,1.05202 -1.68519,1.39301 -0.52603,0.34089 -1.013,0.56491 -1.4514,0.66241 -0.0877,0.0194 -0.15582,0.0292 -0.22401,0.0389 -0.0585,0.01 -0.10721,0.0195 -0.14609,0.0195 -0.039,0 -0.0682,0 -0.0877,-0.01 -0.0194,-0.01 -0.0487,-0.039 -0.0877,-0.078 -0.34092,-0.48701 -0.62343,-1.37351 -0.85721,-2.65931 -0.22402,-1.28577 -0.34089,-2.65927 -0.34089,-4.11067 0,-0.14612 0,-0.29231 0,-0.42863 0.01,-0.14608 0.01,-0.29227 0.0293,-0.42859 0.0293,-0.94491 0.11691,-1.97749 0.25333,-3.10741 0.13628,-1.12998 0.33119,-2.3574 0.57467,-3.67238 l 0.19481,-1.05212 0.51629,-0.42859 c 0.36043,-0.30191 0.75981,-0.70129 1.1981,-1.19811 0.4384,-0.48708 0.91571,-1.07149 1.43203,-1.74367 0.51629,-0.67211 1.02278,-1.38321 1.51959,-2.12351 0.50649,-0.75011 1.0033,-1.5391 1.50979,-2.3574 0.52609,-0.85722 1.02291,-1.7144 1.47101,-2.57161 0.4578,-0.86699 0.88639,-1.7242 1.26629,-2.60089 0.38961,-0.85722 0.7988,-1.84111 1.21762,-2.95152 0.42859,-1.11047 0.88649,-2.33789 1.35399,-3.69178 0.46761,-1.4417 0.82801,-2.7275 1.06179,-3.84771 0.24349,-1.12999 0.3604,-2.09441 0.3604,-2.8931 0,-0.12668 0,-0.24359 0,-0.3605 -0.01,-0.11691 -0.0194,-0.22398 -0.0293,-0.32138 -0.14608,-0.84752 -0.4578,-1.51963 -0.94488,-2.02622 -0.48701,-0.51618 -1.14942,-0.85721 -1.9872,-1.03251 -0.1168,-0.01 -0.23371,-0.0195 -0.34092,-0.0195 -0.11688,0 -0.23379,-0.01 -0.3507,0 z m 0.94492,6.55567 c 0.0194,0.13642 0.0194,0.2631 0.0293,0.38971 0,0.12662 0,0.2533 0,0.37991 0,0.98379 -0.20451,2.14298 -0.62343,3.4581 -0.40908,1.31488 -1.03247,2.81499 -1.86048,4.48078 -0.2825,0.59421 -0.57481,1.1884 -0.88649,1.75341 -0.30191,0.57471 -0.61373,1.13972 -0.94492,1.69492 -0.32138,0.56497 -0.70129,1.1884 -1.13968,1.88979 -0.43833,0.70129 -0.92541,1.47091 -1.48061,2.30858 -0.3507,0.52603 -0.65271,1.00341 -0.92541,1.432 -0.2728,0.42862 -0.52599,0.80853 -0.7306,1.13972 -0.0487,0.0682 -0.0877,0.13631 -0.12658,0.1948 -0.039,0.0487 -0.078,0.1071 -0.10721,0.14608 -0.16559,0.29221 -0.30201,0.50652 -0.3896,0.6234 -0.0877,0.11691 -0.13639,0.1754 -0.1559,0.1754 v -0.0292 c 0.01,-0.039 0.0487,-0.19491 0.11691,-0.44809 0.0779,-0.26303 0.1656,-0.58452 0.28247,-0.96443 0.11691,-0.3799 0.23382,-0.76948 0.3604,-1.1884 0.12672,-0.40908 0.24352,-0.78899 0.36043,-1.13968 0.36047,-1.091 0.75978,-2.22102 1.20788,-3.36071 0.4579,-1.14938 0.94491,-2.32808 1.47091,-3.5458 0.52609,-1.1981 1.05209,-2.32809 1.57811,-3.38011 0.51629,-1.06179 1.04228,-2.05528 1.56828,-2.98069 0.15589,-0.30201 0.33122,-0.60388 0.52602,-0.9254 0.19488,-0.31168 0.39938,-0.6332 0.61369,-0.95458 0.21428,-0.33123 0.40909,-0.61373 0.58449,-0.85722 0.16559,-0.24349 0.32141,-0.42859 0.4481,-0.57471 l 0.16559,-0.22408 0.0584,0.50648 z m 13.57909,44.36082 c 0.0682,0.01 0.13631,0.0195 0.21431,0.0293 0.0779,0 0.15578,0 0.24348,0 0.24353,0 0.49682,-0.0195 0.75012,-0.0585 0.25318,-0.0389 0.4773,-0.0877 0.67211,-0.14609 0.43829,-0.12661 0.94488,-0.40911 1.51959,-0.84751 0.57471,-0.43829 1.20791,-1.03251 1.9093,-1.77289 0.89609,-0.95461 1.78259,-2.104 2.6495,-3.44829 0.86699,-1.34433 1.7145,-2.89313 2.54251,-4.627 0.51618,-1.11051 0.76948,-1.88983 0.76948,-2.31842 0,-0.1071 -0.0194,-0.1948 -0.0487,-0.2533 -0.0293,-0.0584 -0.0779,-0.0876 -0.15592,-0.0876 -0.0779,0 -0.1656,0.0292 -0.25319,0.0876 -0.12668,0.0585 -0.28251,0.1656 -0.45791,0.32149 -0.17529,0.16563 -0.37987,0.37991 -0.62339,0.65271 -0.24349,0.263 -0.5552,0.6429 -0.92541,1.12021 -0.37987,0.47731 -0.83767,1.06179 -1.3637,1.76308 -0.58448,0.76962 -1.1008,1.43203 -1.5586,1.9872 -0.4578,0.565 -0.84748,1.0228 -1.17867,1.3735 -0.33122,0.3604 -0.6332,0.67211 -0.91563,0.93511 -0.29228,0.2728 -0.55528,0.47731 -0.7988,0.6332 -0.0293,0.0195 -0.0487,0.0292 -0.0779,0.0487 -0.0293,0.01 -0.0488,0.0292 -0.0585,0.039 -0.1656,0.1071 -0.30201,0.1851 -0.40912,0.25319 -0.10717,0.0585 -0.1754,0.0877 -0.1948,0.0877 -0.039,-0.0195 -0.078,-0.1071 -0.0974,-0.23379 -0.0293,-0.13638 -0.039,-0.32141 -0.039,-0.56501 -0.01,-0.1071 0,-0.23368 0,-0.36039 0,-0.12658 0.01,-0.263 0.0194,-0.40908 0.0487,-0.4384 0.13627,-0.97413 0.25319,-1.60733 0.12671,-0.62339 0.29231,-1.3443 0.49681,-2.15279 0.19488,-0.8182 0.40919,-1.6267 0.6332,-2.42549 0.22398,-0.79879 0.4578,-1.58782 0.7014,-2.3768 0.24348,-0.74031 0.42859,-1.36381 0.57467,-1.87029 0.15582,-0.50652 0.26303,-0.93511 0.33122,-1.28581 0.0584,-0.34099 0.0974,-0.65271 0.0974,-0.9254 0,-0.12672 -0.01,-0.2533 -0.0194,-0.37991 -0.01,-0.12668 -0.0194,-0.25329 -0.039,-0.38971 -0.0876,-0.58438 -0.25322,-1.07149 -0.49682,-1.47087 -0.23371,-0.38961 -0.5552,-0.68192 -0.95461,-0.86692 -0.18507,-0.0877 -0.37987,-0.14619 -0.56498,-0.19491 -0.18499,-0.0389 -0.3799,-0.0584 -0.58441,-0.0584 -0.4676,0 -0.93521,0.11692 -1.39301,0.34089 -0.4578,0.23383 -0.91567,0.58452 -1.37347,1.05213 -0.26303,0.2727 -0.50652,0.60388 -0.7403,0.98379 -0.23383,0.38968 -0.4578,0.86699 -0.69163,1.4514 -0.23378,0.58448 -0.48708,1.30528 -0.75977,2.1626 -0.078,0.21431 -0.13642,0.42859 -0.20461,0.63309 -0.0584,0.21431 -0.12662,0.40919 -0.19481,0.59419 -0.14608,0.42862 -0.23378,0.71112 -0.26299,0.85732 -0.0293,0.14608 -0.14609,0.36039 -0.341,0.6623 -0.1948,0.29228 -0.51622,0.75008 -0.97409,1.3638 -0.89623,1.20788 -1.68522,2.24039 -2.35733,3.09768 -0.67218,0.85721 -1.24689,1.51962 -1.71439,2.0066 -0.17541,0.1754 -0.37998,0.36043 -0.6235,0.5553 -0.24349,0.20451 -0.47731,0.37991 -0.69159,0.52603 -0.21431,0.14609 -0.3507,0.22398 -0.42859,0.23379 -0.0194,-0.01 -0.0293,-0.078 -0.039,-0.21432 -0.01,-0.14608 -0.0194,-0.31168 -0.0194,-0.49678 0,-0.29231 0.01,-0.61369 0.0293,-0.95472 0.01,-0.34089 0.0389,-0.6526 0.0876,-0.93507 0.19491,-1.06183 0.49681,-2.27941 0.89619,-3.6334 0.40912,-1.35403 0.91571,-2.85422 1.5294,-4.50042 0.12661,-0.3507 0.25319,-0.68189 0.3604,-0.9839 0.1071,-0.30191 0.1851,-0.52599 0.23382,-0.66231 0.0487,-0.16559 0.0779,-0.32148 0.0876,-0.49678 0.0194,-0.1754 0.0293,-0.35069 0.0293,-0.5358 0,-0.22401 -0.0194,-0.43832 -0.039,-0.6429 -0.0293,-0.20461 -0.0779,-0.39941 -0.13642,-0.58452 -0.12657,-0.43829 -0.32138,-0.81819 -0.59418,-1.12017 -0.263,-0.30202 -0.60392,-0.5455 -1.0033,-0.73061 -0.16559,-0.0974 -0.33119,-0.16562 -0.47731,-0.1948 -0.14608,-0.0292 -0.37991,-0.039 -0.69158,-0.039 -0.38972,0 -0.74041,0.0487 -1.05213,0.14612 -0.31168,0.10718 -0.63309,0.27281 -0.97409,0.51629 -0.34089,0.20462 -0.6526,0.51629 -0.95458,0.91571 -0.29221,0.40908 -0.59422,0.94488 -0.89623,1.60729 -0.30198,0.67211 -0.6234,1.50982 -0.97409,2.52289 -0.6234,1.78262 -1.091,3.4289 -1.41249,4.93871 -0.31171,1.50989 -0.4675,2.86389 -0.4675,4.08161 0,1.1104 0.12661,2.104 0.37991,2.99049 0.25319,0.8961 0.63309,1.66572 1.12987,2.33779 0.50663,0.58452 1.03262,1.03262 1.58782,1.32482 0.55531,0.30198 1.13968,0.4481 1.75341,0.4481 0.0682,0 0.14619,0 0.22409,0 0.0779,-0.01 0.15578,-0.0195 0.23378,-0.0292 0.62343,-0.0877 1.30532,-0.3702 2.05532,-0.85721 1.42219,-0.94488 2.9905,-2.76649 4.705,-5.47448 l 0.42859,-0.7209 0.0584,0.94488 c 0.01,0.67222 0.078,1.2858 0.19487,1.84111 0.10711,0.56501 0.2727,1.07149 0.48701,1.52929 0.3604,0.7988 0.8183,1.45151 1.39302,1.93852 0.57467,0.49678 1.24678,0.828 2.03588,1.0033 z m 22.32649,-25.57999 c -0.2727,0 -0.50648,0.01 -0.69159,0.0194 -0.1851,0.01 -0.3701,0.039 -0.53569,0.0682 -0.16559,0.0292 -0.3605,0.0682 -0.57482,0.10718 -1.1981,0.30191 -2.30857,0.8182 -3.34119,1.5391 -1.03251,0.73053 -1.98709,1.67541 -2.85411,2.8249 -1.1689,1.61703 -2.12358,3.3509 -2.85408,5.22122 -0.7306,1.86048 -1.23719,3.83801 -1.5391,5.94208 -0.039,0.3604 -0.078,0.7305 -0.0877,1.1104 -0.0194,0.37991 -0.0293,0.76962 -0.0293,1.169 0,0.29221 0.01,0.55521 0.0194,0.78903 0.01,0.24348 0.0194,0.4578 0.0389,0.6429 0.31168,1.82157 0.91567,3.21458 1.7924,4.1692 0.88639,0.95458 2.04558,1.48057 3.48728,1.56827 0.39941,0 0.78902,-0.0487 1.15922,-0.13638 0.3701,-0.0876 0.73057,-0.22402 1.07149,-0.40912 0.3507,-0.17529 0.73061,-0.40908 1.12018,-0.71109 0.38971,-0.29221 0.80853,-0.66241 1.24693,-1.091 0.1851,-0.18511 0.33119,-0.32138 0.42859,-0.40908 0.1071,-0.0877 0.17529,-0.12662 0.20461,-0.12662 v 0.0584 c -0.16563,0.61373 -0.341,1.32482 -0.5358,2.13332 -0.1948,0.81819 -0.40912,1.7339 -0.6429,2.74701 -0.23382,1.01307 -0.4481,1.91897 -0.6234,2.7275 -0.1754,0.80849 -0.31182,1.50008 -0.42873,2.0943 -0.28239,1.41248 -0.49678,2.7178 -0.6429,3.93537 -0.14608,1.20792 -0.21428,2.30872 -0.21428,3.31202 0,1.3443 0.12669,2.51319 0.38968,3.5263 0.26303,1.013 0.65261,1.85078 1.17863,2.52289 0.33119,0.40912 0.7014,0.75981 1.12028,1.05202 0.41882,0.28247 0.87669,0.50659 1.39291,0.66237 0.12668,0.0293 0.2631,0.0487 0.40919,0.0585 0.14612,0.0195 0.30191,0.0195 0.47731,0.0195 0.30201,0 0.61369,-0.0195 0.9156,-0.0585 0.31178,-0.039 0.57481,-0.0974 0.79879,-0.16559 0.3507,-0.12661 0.68192,-0.29221 0.9839,-0.49682 0.30191,-0.1948 0.58441,-0.42859 0.8377,-0.70128 0.2727,-0.30202 0.51629,-0.65271 0.74031,-1.04232 0.22408,-0.38968 0.41889,-0.82797 0.57471,-1.29558 0.2825,-0.88642 0.48708,-1.71439 0.59418,-2.48401 0.0585,-0.39938 0.10721,-0.86688 0.13642,-1.39298 0.0194,-0.53573 0.039,-1.12991 0.039,-1.80213 0,-1.7144 -0.0877,-2.97099 -0.25329,-3.76978 -0.1071,-0.40912 -0.24349,-0.8182 -0.43829,-1.20781 -0.19491,-0.38971 -0.4384,-0.77929 -0.74041,-1.15919 l -0.42859,-0.60399 0.20457,-0.0584 c 0.49682,-0.0974 0.9839,-0.2533 1.4514,-0.46761 0.45791,-0.22398 0.9059,-0.49678 1.31512,-0.83767 0.34089,-0.26303 0.68178,-0.55531 1.0033,-0.906 0.33119,-0.34093 0.65271,-0.74031 0.96439,-1.1786 0.31172,-0.44813 0.68181,-1.01311 1.1007,-1.7145 0.41889,-0.69162 0.8865,-1.50982 1.41249,-2.45473 0.63313,-1.10078 1.29551,-2.3476 1.98713,-3.74058 0.70139,-1.39301 1.42218,-2.9223 2.1821,-4.58801 0.58438,-1.3346 1.02278,-2.445 1.32468,-3.36071 0.29232,-0.90589 0.4384,-1.59748 0.4481,-2.06509 v -0.0585 c -0.0293,-0.2825 -0.0876,-0.42862 -0.17529,-0.42862 -0.0487,0 -0.11691,0.0487 -0.20461,0.15593 -0.0974,0.0974 -0.20451,0.26299 -0.34089,0.47727 -0.40912,0.61373 -0.83771,1.2761 -1.28581,1.9969 -0.43839,0.7306 -0.89619,1.49041 -1.3638,2.30872 -1.8021,3.1074 -3.74061,5.76668 -5.82521,7.95838 -0.24349,0.24352 -0.4675,0.47731 -0.69158,0.68192 -0.21432,0.21428 -0.4383,0.40908 -0.65261,0.57468 -0.21431,0.1851 -0.4676,0.38971 -0.77928,0.61372 -0.31172,0.21428 -0.65271,0.4578 -1.04232,0.73061 -0.31168,0.21427 -0.60399,0.42859 -0.88639,0.61369 -0.28251,0.1948 -0.48712,0.35069 -0.6235,0.46761 -0.11691,0.1071 -0.22401,0.17529 -0.30191,0.22397 -0.0877,0.039 -0.13638,0.0682 -0.15589,0.0682 v -0.0292 c 0,-0.10721 0.0974,-0.47741 0.29221,-1.13002 0.19487,-0.65267 0.48708,-1.58778 0.87668,-2.78599 0.76962,-2.39631 1.65601,-5.04581 2.64961,-7.95838 0.39938,-1.15923 0.75011,-2.16253 1.03258,-3.01982 0.2824,-0.85721 0.51622,-1.57801 0.68182,-2.14298 0.15589,-0.56501 0.29231,-1.08133 0.40918,-1.55861 0.10711,-0.47731 0.19481,-0.9156 0.25323,-1.2955 0.039,-0.30202 0.078,-0.55531 0.10717,-0.77932 0.0194,-0.21428 0.0487,-0.38968 0.0584,-0.5358 0.0194,-0.14609 0.0194,-0.31168 0.0293,-0.51629 0,-0.20451 0,-0.4383 0,-0.7111 -0.01,-0.72079 -0.0779,-1.25659 -0.1948,-1.61699 -0.11691,-0.3604 -0.31172,-0.60392 -0.57471,-0.7208 -0.0779,-0.0487 -0.1656,-0.0779 -0.2533,-0.0877 -0.0974,-0.0195 -0.18499,-0.0292 -0.26299,-0.0292 -0.19481,0 -0.4481,0.0974 -0.75982,0.2727 -0.31171,0.1851 -0.6429,0.41889 -0.97409,0.7306 -0.17529,0.1559 -0.34092,0.30202 -0.49681,0.4384 -0.15579,0.13631 -0.29221,0.23379 -0.38958,0.30191 l -0.29231,0.22408 -0.2825,-0.4578 c -0.25319,-0.43839 -0.5649,-0.828 -0.93511,-1.1787 -0.3702,-0.34099 -0.78899,-0.6332 -1.25659,-0.86699 -0.263,-0.12661 -0.51629,-0.22401 -0.75011,-0.3019 -0.23368,-0.078 -0.48698,-0.12669 -0.75978,-0.1656 -0.2727,-0.0293 -0.60392,-0.0487 -0.97413,-0.0487 z m 0.9936,4.67568 c 0.22412,0 0.49681,0.0389 0.80853,0.12661 0.31168,0.0779 0.61369,0.20458 0.9059,0.3604 l 0.25329,0.10718 -0.56501,0.75 c -0.38961,0.5358 -0.8182,1.1787 -1.26629,1.91901 -0.4578,0.75011 -0.9839,1.67551 -1.58782,2.78599 -0.40908,0.75981 -0.78899,1.43192 -1.12018,2.02611 -0.33122,0.60399 -0.6332,1.11051 -0.90589,1.5391 -0.54551,0.85721 -1.06183,1.6268 -1.5391,2.31842 -0.13642,0.15589 -0.30202,0.36039 -0.50663,0.59418 -0.2045,0.23379 -0.41878,0.46761 -0.6429,0.68192 l -0.71109,0.74997 v -0.4578 c 0,-0.58438 0.0585,-1.22738 0.1851,-1.92867 0.12661,-0.70143 0.31171,-1.46121 0.5552,-2.2697 0.24359,-0.8182 0.5358,-1.61703 0.87669,-2.41583 0.33122,-0.79868 0.71113,-1.59748 1.13002,-2.3768 0.75011,-1.49038 1.4709,-2.60089 2.14298,-3.3607 0.67222,-0.74997 1.32482,-1.13969 1.92881,-1.14939 z m 1.03261,28.61931 c 0.18511,0.40908 0.37991,0.78899 0.5552,1.12018 0.17541,0.33122 0.30202,0.57471 0.37991,0.71113 0.39938,0.62339 0.66238,1.22738 0.76959,1.79239 0.0487,0.2045 0.0779,0.40908 0.0974,0.62339 0.01,0.21431 0.0194,0.43829 0.0194,0.66241 0,0.34089 -0.0293,0.66238 -0.0877,0.94488 -0.0682,0.34093 -0.1948,0.68182 -0.37991,1.02281 -0.1851,0.34089 -0.38968,0.6429 -0.6332,0.9156 -0.24348,0.2728 -0.47731,0.46761 -0.72079,0.60399 -0.10721,0.0584 -0.19481,0.0974 -0.27281,0.12661 -0.0876,0.0292 -0.15578,0.039 -0.21431,0.039 -0.0877,0 -0.15579,-0.039 -0.21428,-0.12658 -0.0584,-0.0877 -0.0974,-0.22412 -0.12661,-0.40922 -0.2825,-0.97409 -0.42859,-2.11378 -0.42859,-3.42879 0,-0.55531 0.0194,-1.15919 0.0682,-1.8021 0.0487,-0.6429 0.11691,-1.33459 0.21432,-2.07489 0.0389,-0.31172 0.0779,-0.6137 0.11687,-0.9059 0.0293,-0.30201 0.0681,-0.52599 0.11691,-0.69162 l 0.0779,-0.45787 0.66241,1.33459 z"
           style="fill:#ffffff;fill-opacity:1;fill-rule:nonzero;stroke:none;stroke-width:0.352778"
           id="path1880" /><path
           d="m 1011.6687,425.4154 c 0.068,0.01 0.1364,0.0195 0.2144,0.0293 0.078,0 0.1557,0 0.2434,0 0.2435,0 0.4968,-0.0195 0.7501,-0.0585 0.2532,-0.0389 0.4773,-0.0877 0.6721,-0.14609 0.4383,-0.12661 0.9448,-0.40911 1.5196,-0.84751 0.5747,-0.43829 1.2079,-1.03251 1.9093,-1.77289 0.8961,-0.95461 1.7825,-2.104 2.6495,-3.44829 0.8669,-1.34433 1.7145,-2.89313 2.5425,-4.627 0.5162,-1.11051 0.7694,-1.88983 0.7694,-2.31842 0,-0.1071 -0.019,-0.1948 -0.049,-0.2533 -0.029,-0.0584 -0.078,-0.0876 -0.1559,-0.0876 -0.078,0 -0.1656,0.0292 -0.2533,0.0876 -0.1266,0.0585 -0.2824,0.1656 -0.4578,0.32149 -0.1754,0.16563 -0.3799,0.37991 -0.6235,0.65271 -0.2434,0.263 -0.5552,0.6429 -0.9253,1.12021 -0.3799,0.47731 -0.8377,1.06179 -1.3637,1.76308 -0.5845,0.76962 -1.1008,1.43203 -1.5586,1.9872 -0.4578,0.565 -0.8475,1.0228 -1.1787,1.3735 -0.3313,0.3604 -0.6332,0.67211 -0.9156,0.93511 -0.2923,0.2728 -0.5553,0.47731 -0.7988,0.6332 -0.029,0.0195 -0.049,0.0292 -0.078,0.0487 -0.029,0.01 -0.049,0.0292 -0.058,0.039 -0.1656,0.1071 -0.302,0.1851 -0.4091,0.25319 -0.1072,0.0585 -0.1754,0.0877 -0.1948,0.0877 -0.039,-0.0195 -0.078,-0.1071 -0.097,-0.23379 -0.029,-0.13638 -0.039,-0.32141 -0.039,-0.56501 -0.01,-0.1071 0,-0.23368 0,-0.36039 0,-0.12658 0.01,-0.263 0.019,-0.40908 0.049,-0.4384 0.1363,-0.97413 0.2531,-1.60733 0.1268,-0.62339 0.2924,-1.3443 0.4969,-2.15279 0.1949,-0.8182 0.4091,-1.6267 0.6332,-2.42549 0.2239,-0.79879 0.4578,-1.58782 0.7014,-2.3768 0.2434,-0.74031 0.4285,-1.36381 0.5747,-1.87029 0.1558,-0.50652 0.263,-0.93511 0.3312,-1.28581 0.058,-0.34099 0.097,-0.65271 0.097,-0.9254 0,-0.12672 -0.01,-0.2533 -0.019,-0.37991 -0.01,-0.12668 -0.019,-0.25329 -0.039,-0.38971 -0.088,-0.58438 -0.2533,-1.07149 -0.4968,-1.47087 -0.2337,-0.38961 -0.5552,-0.68192 -0.9546,-0.86692 -0.1851,-0.0877 -0.3799,-0.14619 -0.565,-0.19491 -0.185,-0.0389 -0.3799,-0.0584 -0.5844,-0.0584 -0.4676,0 -0.9352,0.11692 -1.393,0.34089 -0.4578,0.23383 -0.9157,0.58452 -1.3734,1.05213 -0.263,0.2727 -0.5065,0.60388 -0.7403,0.98379 -0.2339,0.38968 -0.4578,0.86699 -0.6917,1.4514 -0.2337,0.58448 -0.487,1.30528 -0.7597,2.1626 -0.078,0.21431 -0.1364,0.42859 -0.2046,0.63309 -0.058,0.21431 -0.1267,0.40919 -0.1948,0.59419 -0.1461,0.42862 -0.2338,0.71112 -0.263,0.85732 -0.029,0.14608 -0.1461,0.36039 -0.341,0.6623 -0.1948,0.29228 -0.5163,0.75008 -0.9741,1.3638 -0.8962,1.20788 -1.6852,2.24039 -2.3573,3.09768 -0.6722,0.85721 -1.2469,1.51962 -1.7145,2.0066 -0.1754,0.1754 -0.3799,0.36043 -0.6234,0.5553 -0.2435,0.20451 -0.4773,0.37991 -0.6916,0.52603 -0.2143,0.14609 -0.3507,0.22398 -0.4286,0.23379 -0.019,-0.01 -0.029,-0.078 -0.039,-0.21432 -0.01,-0.14608 -0.019,-0.31168 -0.019,-0.49678 0,-0.29231 0.01,-0.61369 0.029,-0.95472 0.01,-0.34089 0.039,-0.6526 0.088,-0.93507 0.1949,-1.06183 0.4968,-2.27941 0.8962,-3.6334 0.4091,-1.35403 0.9157,-2.85422 1.5294,-4.50042 0.1266,-0.3507 0.2532,-0.68189 0.3604,-0.9839 0.1071,-0.30191 0.1851,-0.52599 0.2338,-0.66231 0.049,-0.16559 0.078,-0.32148 0.088,-0.49678 0.019,-0.1754 0.029,-0.35069 0.029,-0.5358 0,-0.22401 -0.019,-0.43832 -0.039,-0.6429 -0.029,-0.20461 -0.078,-0.39941 -0.1364,-0.58452 -0.1266,-0.43829 -0.3214,-0.81819 -0.5942,-1.12017 -0.263,-0.30202 -0.6039,-0.5455 -1.0033,-0.73061 -0.1656,-0.0974 -0.3312,-0.16562 -0.4773,-0.1948 -0.1461,-0.0292 -0.3799,-0.039 -0.6916,-0.039 -0.3897,0 -0.7404,0.0487 -1.0521,0.14612 -0.3117,0.10718 -0.6331,0.27281 -0.97407,0.51629 -0.34089,0.20462 -0.65261,0.51629 -0.95459,0.91571 -0.2922,0.40908 -0.59421,0.94488 -0.89619,1.60729 -0.30202,0.67211 -0.62343,1.50982 -0.97413,2.52289 -0.62339,1.78262 -1.091,3.4289 -1.41248,4.93871 -0.31172,1.50989 -0.46751,2.86389 -0.46751,4.08161 0,1.1104 0.12662,2.104 0.37991,2.99049 0.25319,0.8961 0.6331,1.66572 1.12988,2.33779 0.50662,0.58452 1.03261,1.03262 1.58782,1.32482 0.5553,0.30198 1.13968,0.4481 1.75341,0.4481 0.0682,0 0.14619,0 0.22405,0 0.078,-0.01 0.1558,-0.0195 0.2338,-0.0292 0.6234,-0.0877 1.3053,-0.3702 2.0553,-0.85721 1.4222,-0.94488 2.9905,-2.76649 4.705,-5.47448 l 0.4286,-0.7209 0.058,0.94488 c 0.01,0.67222 0.078,1.2858 0.1949,1.84111 0.1071,0.56501 0.2727,1.07149 0.487,1.52929 0.3604,0.7988 0.8183,1.45151 1.393,1.93852 0.5747,0.49678 1.2468,0.828 2.0359,1.0033 z m 20.69,-25.38522 c -0.9546,0 -1.9092,0.23382 -2.8444,0.69162 -0.945,0.4578 -1.88,1.14938 -2.8054,2.07479 -1.0813,1.03262 -2.0164,2.25019 -2.786,3.65291 -0.7695,1.39298 -1.3929,2.9906 -1.8605,4.77319 -0.117,0.46761 -0.2144,0.9059 -0.2825,1.2858 -0.078,0.38961 -0.1364,0.74031 -0.1753,1.06179 -0.058,0.31172 -0.097,0.66241 -0.117,1.05202 -0.019,0.38968 -0.029,0.81831 -0.029,1.28581 v 0.5455 c 0,0.41889 0.01,0.78909 0.039,1.10077 0.029,0.32142 0.068,0.62343 0.1268,0.8962 0.049,0.2825 0.1168,0.57471 0.2045,0.88642 1.1104,3.4483 3.3704,5.48418 6.7602,6.0784 0.1754,0.0195 0.341,0.0293 0.5164,0.039 0.1656,0.01 0.3409,0.0195 0.5163,0.0195 2.2015,0 4.4223,-0.94488 6.6823,-2.82491 0.4092,-0.33118 0.8281,-0.7209 1.2566,-1.1787 0.4287,-0.44809 0.867,-0.96438 1.3054,-1.5391 0.8863,-1.1105 2.0261,-2.70799 3.4287,-4.79259 1.0522,-1.61699 1.8412,-2.90279 2.377,-3.84771 0.5259,-0.95469 0.7889,-1.56827 0.7889,-1.84108 0,-0.0195 -0.01,-0.0487 -0.019,-0.0682 -0.01,-0.01 -0.019,-0.0292 -0.039,-0.0389 h -0.058 c -0.1072,0 -0.3312,0.13628 -0.6624,0.42859 -0.3312,0.29221 -0.7793,0.7208 -1.3345,1.30531 -1.7534,1.85078 -3.2048,3.32169 -4.3543,4.4419 -1.1397,1.11051 -1.9969,1.86048 -2.5522,2.24039 -0.5065,0.3605 -1.0423,0.67221 -1.617,0.94491 -0.565,0.263 -1.1299,0.47731 -1.6852,0.6235 -0.5455,0.15579 -1.052,0.23368 -1.5196,0.23368 -0.302,0 -0.6039,-0.0389 -0.8962,-0.12658 -0.3019,-0.0779 -0.6039,-0.2045 -0.9059,-0.36039 -0.4676,-0.23383 -0.8085,-0.48712 -1.052,-0.75982 -0.2338,-0.2728 -0.3994,-0.6332 -0.4871,-1.06179 v -0.0292 c -0.029,-0.11691 -0.049,-0.21431 -0.068,-0.2825 -0.01,-0.0779 -0.019,-0.13639 -0.019,-0.1753 0,-0.0682 0.019,-0.12668 0.059,-0.15589 0.039,-0.039 0.097,-0.0584 0.1656,-0.0779 0,-0.01 0,-0.0195 0.01,-0.0195 0,0 0.01,-0.01 0.019,-0.01 0.5065,-0.25319 1.0228,-0.57471 1.5683,-0.96428 0.5455,-0.38972 1.1105,-0.84752 1.695,-1.37351 0.565,-0.52602 1.1007,-1.05202 1.578,-1.58781 0.4871,-0.5358 0.9157,-1.0813 1.3053,-1.63651 0.4871,-0.7403 0.906,-1.50008 1.2566,-2.2697 0.3507,-0.76948 0.6429,-1.5586 0.8572,-2.35729 0.068,-0.33119 0.1267,-0.65271 0.1656,-0.9839 0.039,-0.32138 0.059,-0.6429 0.059,-0.95458 0,-0.20461 -0.01,-0.38961 -0.019,-0.56501 -0.019,-0.1753 -0.039,-0.34089 -0.068,-0.49682 -0.2532,-1.03247 -0.7695,-1.841 -1.5488,-2.41579 -0.789,-0.565 -1.7631,-0.85721 -2.9321,-0.86691 z m 1.8898,4.13992 c 0.088,0 0.1364,0.0585 0.1656,0.1754 0.049,0.12661 0.078,0.25319 0.1071,0.38961 0.029,0.13638 0.039,0.2825 0.039,0.43839 0,0.35059 -0.058,0.75001 -0.185,1.18841 -0.1266,0.43829 -0.3117,0.90589 -0.5552,1.40267 -0.4578,0.87673 -1.052,1.7924 -1.7826,2.75672 -0.7306,0.96438 -1.5878,1.96768 -2.5912,3.01981 -0.3799,0.37987 -0.6624,0.65257 -0.8474,0.8182 -0.1754,0.15589 -0.2825,0.23378 -0.3215,0.23378 -0.019,0 -0.029,0 -0.029,0 0,-0.01 0,-0.01 0,-0.0292 0,-0.0682 0.029,-0.25329 0.097,-0.5358 0.058,-0.2922 0.1364,-0.60388 0.224,-0.94488 0.088,-0.34092 0.1656,-0.62339 0.2436,-0.85721 0.3799,-1.12998 0.8085,-2.17219 1.2858,-3.12688 0.487,-0.95462 1.0228,-1.81183 1.6073,-2.59112 0.2045,-0.263 0.4578,-0.5552 0.7403,-0.86699 0.2922,-0.31171 0.565,-0.58441 0.8182,-0.828 0.2533,-0.25319 0.4384,-0.39931 0.5553,-0.4675 0.1948,-0.11691 0.3409,-0.1754 0.4286,-0.1754 z m 19.4237,21.18688 c 0.2046,0.0584 0.4578,0.0877 0.7792,0.0877 0.3021,0 0.6138,-0.0195 0.9156,-0.0585 0.3119,-0.0389 0.5554,-0.0877 0.7307,-0.14609 0.6332,-0.20461 1.2468,-0.5552 1.8606,-1.03261 0.6137,-0.47731 1.2078,-1.091 1.7923,-1.85078 0.9449,-1.19811 1.919,-2.67882 2.9126,-4.45163 0.4967,-0.8865 0.9448,-1.72417 1.3443,-2.523 0.3994,-0.79869 0.7403,-1.5488 1.0228,-2.25019 0.2338,-0.57471 0.4189,-1.1007 0.5455,-1.56831 0.1265,-0.46757 0.1948,-0.7988 0.1948,-0.9936 0,-0.0487 0,-0.0779 -0.01,-0.1071 -0.019,-0.0292 -0.029,-0.039 -0.039,-0.039 -0.088,0.01 -0.302,0.22409 -0.6526,0.64291 -0.3507,0.40908 -0.7696,0.94488 -1.2371,1.58778 -0.5553,0.77932 -1.0618,1.47091 -1.5099,2.0749 -0.4481,0.59422 -0.8377,1.1007 -1.1689,1.51962 -0.341,0.42859 -0.6722,0.8182 -0.9839,1.1787 -0.3117,0.3604 -0.6039,0.68178 -0.8767,0.96429 -0.565,0.57471 -1.1007,1.03261 -1.5975,1.3735 -0.4968,0.33119 -0.8962,0.50652 -1.1982,0.50652 0,0 0,0 -0.01,0 -0.01,0 -0.01,0 -0.019,0 -0.068,0 -0.1266,-0.12661 -0.1656,-0.37991 -0.039,-0.26299 -0.058,-0.6429 -0.058,-1.15912 0,-0.2728 0.01,-0.5261 0.019,-0.75008 0.019,-0.23382 0.049,-0.48711 0.097,-0.76962 0.039,-0.27269 0.1072,-0.61358 0.1949,-1.0228 0.088,-0.40908 0.2045,-0.9156 0.3409,-1.5391 0.3117,-1.30528 0.5552,-2.367 0.7403,-3.1853 0.1851,-0.8182 0.3313,-1.47088 0.4287,-1.97739 0.088,-0.49679 0.1559,-0.92541 0.1948,-1.29558 0.039,-0.36043 0.068,-0.7403 0.078,-1.13972 v -0.48708 c 0,-0.73053 -0.068,-1.39291 -0.2143,-1.98713 -0.1364,-0.58448 -0.3409,-1.11047 -0.6136,-1.5489 -0.2242,-0.41879 -0.4969,-0.8085 -0.8378,-1.1689 -0.3312,-0.35069 -0.6819,-0.6429 -1.0423,-0.85718 -0.2045,-0.11691 -0.4189,-0.22412 -0.6623,-0.31171 -0.2339,-0.0877 -0.4676,-0.16559 -0.6918,-0.21431 -0.2239,-0.0487 -0.4188,-0.078 -0.5649,-0.078 h -0.1948 l 0.1363,-0.51619 c 0.1169,-0.4579 0.2046,-0.9157 0.263,-1.3735 0.059,-0.45791 0.088,-0.92541 0.088,-1.39298 0,-0.25333 -0.01,-0.50652 -0.029,-0.75011 -0.019,-0.24352 -0.049,-0.47731 -0.088,-0.70132 -0.1657,-0.92537 -0.4677,-1.7242 -0.8963,-2.39628 -0.4286,-0.66241 -0.9546,-1.1787 -1.578,-1.5391 -0.6235,-0.3604 -1.2956,-0.5455 -2.0359,-0.5455 -0.1754,0 -0.341,0.01 -0.5163,0.0195 -0.1656,0.0194 -0.3408,0.0487 -0.5163,0.0876 -1.2761,0.3507 -2.3671,1.19818 -3.2535,2.57168 -0.2921,0.5552 -0.526,1.11051 -0.6721,1.67541 -0.1558,0.55531 -0.2338,1.12029 -0.2338,1.695 0,0.24352 0.01,0.4676 0.039,0.69162 0.029,0.21427 0.068,0.43839 0.1268,0.65267 0.1363,0.49671 0.3408,0.98383 0.6136,1.4514 0.2825,0.4675 0.6331,0.92541 1.0423,1.3735 l 0.341,0.3701 -0.078,0.31172 c -0.1267,0.4676 -0.2923,1.0131 -0.5066,1.6268 -0.2045,0.60399 -0.448,1.24689 -0.7111,1.9287 -0.263,0.68189 -0.5455,1.36381 -0.8377,2.04569 -0.1851,0.40912 -0.409,0.88639 -0.6721,1.43189 -0.2533,0.5455 -0.5553,1.15923 -0.8962,1.85081 -0.3604,0.69159 -0.7014,1.3443 -1.013,1.92871 -0.3118,0.58448 -0.604,1.12028 -0.8768,1.60729 -0.3701,0.69159 -0.6623,1.21772 -0.8669,1.60729 -0.2046,0.37991 -0.3409,0.65271 -0.4189,0.82801 -0.078,0.17529 -0.1169,0.30201 -0.1071,0.3604 v 0.0585 c -0.01,0.11691 0.01,0.17533 0.058,0.2045 0.049,0.0195 0.1364,0.0292 0.2825,0.0292 0.1169,0 0.2533,-0.0292 0.3897,-0.0974 0.146,-0.0681 0.3604,-0.20451 0.6428,-0.41878 0.2825,-0.21432 0.7014,-0.5358 1.2469,-0.97413 0.7598,-0.6235 1.5488,-1.34429 2.3769,-2.1626 0.8279,-0.81819 1.6949,-1.7339 2.5911,-2.7469 1.052,-1.19818 1.88,-2.20148 2.4839,-3.00027 0.2923,-0.39942 0.5845,-0.80853 0.8572,-1.23712 0.2825,-0.41889 0.5553,-0.85718 0.828,-1.30531 l 0.5943,-0.9936 v 0.5455 c 0,0.47731 -0.029,0.9936 -0.088,1.5586 -0.068,0.55521 -0.1656,1.20792 -0.3117,1.94822 -0.1461,0.7403 -0.3312,1.61699 -0.565,2.6301 -0.019,0.0292 -0.029,0.0584 -0.029,0.0876 0,0.0293 0,0.0682 0,0.10721 -0.1949,0.78899 -0.3507,1.42219 -0.4676,1.9092 -0.1072,0.48708 -0.2046,0.87669 -0.263,1.169 -0.068,0.29221 -0.1169,0.53569 -0.1559,0.74031 -0.039,0.20457 -0.078,0.41888 -0.1169,0.6429 -0.058,0.37017 -0.1071,0.80849 -0.1461,1.33449 -0.039,0.51629 -0.058,1.03258 -0.058,1.5489 0,0.25319 0.01,0.48698 0.019,0.70129 0.01,0.21431 0.019,0.40919 0.039,0.58452 0.2143,1.41248 0.6624,2.55217 1.3443,3.41908 0.6916,0.86699 1.6072,1.46121 2.7567,1.77289 z m 15.3325,-26.73929 c 0.1559,0.0585 0.3214,0.0974 0.4871,0.12672 0.1753,0.0292 0.3409,0.0487 0.5162,0.0487 0.2825,0 0.565,-0.039 0.8572,-0.11691 0.2923,-0.0682 0.5845,-0.1851 0.8768,-0.34099 0.1753,-0.0974 0.3895,-0.22398 0.6429,-0.38961 0.263,-0.16559 0.5357,-0.3507 0.8182,-0.55527 0.2922,-0.20451 0.5553,-0.40912 0.7988,-0.60392 0.1851,-0.14609 0.4383,-0.3604 0.7501,-0.6332 0.3214,-0.2727 0.6234,-0.5357 0.9156,-0.79869 0.2921,-0.2631 0.4871,-0.4481 0.5845,-0.56501 0.2434,-0.2728 0.4285,-0.55531 0.5455,-0.84751 0.1169,-0.30198 0.1753,-0.60389 0.1753,-0.91567 0,-0.54551 -0.1753,-1.03251 -0.5163,-1.4611 -0.263,-0.28251 -0.5455,-0.49682 -0.8573,-0.64291 -0.3116,-0.13642 -0.6429,-0.21431 -1.0033,-0.21431 -0.2045,0 -0.4285,0.0292 -0.6429,0.0681 -0.224,0.0488 -0.4578,0.12671 -0.6915,0.22412 -0.078,0.0292 -0.1559,0.0584 -0.2533,0.0974 -0.097,0.039 -0.1948,0.0877 -0.2922,0.12658 -0.1462,0.0585 -0.2825,0.11691 -0.4092,0.16562 -0.1363,0.0585 -0.263,0.10718 -0.3896,0.1462 -0.2436,0.0779 -0.5552,0.21431 -0.9351,0.3896 -0.3898,0.1753 -0.7793,0.3604 -1.1787,0.5552 -0.4189,0.21428 -0.7403,0.37988 -0.9546,0.50659 -0.2241,0.11691 -0.3897,0.23379 -0.5164,0.34089 -0.1363,0.10721 -0.2629,0.24353 -0.409,0.40912 -0.2242,0.22408 -0.4093,0.42859 -0.5358,0.6235 -0.1266,0.1948 -0.2242,0.41878 -0.2728,0.66241 -0.059,0.24349 -0.078,0.5455 -0.078,0.9156 0,0.32149 0.01,0.56497 0.039,0.72087 0.029,0.15582 0.078,0.3019 0.1364,0.44813 0.1656,0.35059 0.3992,0.66227 0.7013,0.9156 0.302,0.25329 0.6624,0.4481 1.091,0.59418 z m 1.1689,3.39969 c -0.1948,0 -0.3994,0.0194 -0.5942,0.0584 -0.1948,0.039 -0.3896,0.0974 -0.5747,0.16559 -0.4092,0.15589 -0.789,0.38961 -1.1397,0.70139 -0.3409,0.30191 -0.6526,0.68182 -0.9449,1.12991 -0.2922,0.4481 -0.5943,1.02281 -0.8864,1.7145 -0.2825,0.68182 -0.5845,1.49031 -0.8768,2.41569 -0.6039,1.8996 -1.052,3.65301 -1.3539,5.24072 -0.302,1.59759 -0.4481,3.03929 -0.4481,4.32509 0,0.3604 0.01,0.70129 0.039,1.04232 0.029,0.33119 0.058,0.65257 0.1072,0.95458 0.2046,1.0813 0.5065,2.02622 0.935,2.84441 0.419,0.8085 0.9255,1.46121 1.5294,1.93848 0.604,0.48701 1.2858,0.77932 2.0457,0.86692 0.097,0.01 0.1851,0.0195 0.2825,0.0293 0.088,0 0.1754,0 0.2533,0 0.4967,0 0.9936,-0.0877 1.4904,-0.2533 0.487,-0.16559 0.9838,-0.41888 1.4805,-0.75007 0.1852,-0.12661 0.3995,-0.30191 0.643,-0.51622 0.2435,-0.22409 0.5259,-0.49678 0.8378,-0.81831 0.3116,-0.33118 0.5941,-0.6332 0.8377,-0.90589 0.2533,-0.27281 0.4676,-0.526 0.6526,-0.75008 0.5845,-0.81823 1.1495,-1.7242 1.7047,-2.7275 0.565,-1.0033 1.1008,-2.11381 1.6268,-3.32172 0.6137,-1.46121 1.0715,-2.62029 1.3735,-3.47761 0.3019,-0.85718 0.4578,-1.42219 0.4578,-1.69489 0,-0.039 0,-0.0779 0,-0.0974 -0.01,-0.0292 -0.019,-0.039 -0.029,-0.039 -0.01,0 -0.049,0.039 -0.1072,0.12657 -0.058,0.078 -0.1363,0.19491 -0.2337,0.36051 -0.1169,0.17529 -0.2728,0.41881 -0.4579,0.7306 -0.1851,0.31171 -0.3701,0.6429 -0.5455,0.97409 -0.2143,0.38961 -0.4091,0.7403 -0.5844,1.06172 -0.1754,0.32149 -0.341,0.61369 -0.4968,0.85728 -0.1559,0.25323 -0.341,0.5357 -0.5358,0.85722 -0.2046,0.31168 -0.4383,0.66241 -0.6916,1.05198 -0.4286,0.6332 -0.8183,1.18841 -1.1787,1.67552 -0.3701,0.48698 -0.7208,0.92541 -1.0618,1.32479 -0.3506,0.39931 -0.7013,0.78902 -1.0715,1.16889 -0.3896,0.38961 -0.6916,0.67211 -0.9156,0.84751 -0.2241,0.185 -0.4189,0.31172 -0.5942,0.40909 -0.2046,0.0974 -0.38,0.16562 -0.5163,0.20461 -0.1364,0.0292 -0.3117,0.0487 -0.5163,0.0487 h -0.5065 l -0.059,-0.25333 c -0.019,-0.0779 -0.029,-0.18507 -0.039,-0.32149 -0.01,-0.13631 -0.019,-0.31168 -0.019,-0.50648 0,-0.4578 0.019,-0.95462 0.058,-1.49042 0.039,-0.53569 0.078,-1.0033 0.1363,-1.42219 0.1754,-1.11051 0.4481,-2.38661 0.8182,-3.8088 0.3702,-1.42212 0.8378,-3.0002 1.4126,-4.7244 0.1851,-0.60392 0.3311,-1.06182 0.4285,-1.3637 0.097,-0.30201 0.1656,-0.5455 0.2144,-0.7306 0.049,-0.17529 0.088,-0.38971 0.1265,-0.61369 0.039,-0.20461 0.068,-0.39942 0.088,-0.58452 0.019,-0.185 0.029,-0.3799 0.029,-0.5649 -0.01,-0.7988 -0.1558,-1.49038 -0.4578,-2.05539 -0.2922,-0.55531 -0.7208,-0.95462 -1.2858,-1.19821 -0.1267,-0.0389 -0.2728,-0.0779 -0.4189,-0.0974 -0.1558,-0.0292 -0.302,-0.0389 -0.4676,-0.0389 z m 19.034,-1.7827 c -0.6234,0 -1.2566,0.0682 -1.8995,0.21432 -0.6429,0.13638 -1.276,0.34099 -1.919,0.61369 -0.9059,0.42859 -1.7435,1.0034 -2.5228,1.7339 -0.7793,0.7306 -1.4904,1.6171 -2.1333,2.65942 -0.6429,1.04228 -1.1884,2.182 -1.6365,3.40928 -0.4578,1.23719 -0.8085,2.57171 -1.0715,4.01341 -0.1169,0.67208 -0.1948,1.31498 -0.2534,1.93841 -0.058,0.61369 -0.088,1.21768 -0.088,1.80209 0,1.29558 0.1463,2.49379 0.4287,3.57498 0.2825,1.0813 0.7014,2.04562 1.2567,2.9029 1.052,1.43193 2.2501,2.14302 3.5944,2.14302 0.3702,0 0.7403,-0.0584 1.1105,-0.16559 0.3702,-0.11691 0.7403,-0.27273 1.1105,-0.48712 1.4611,-0.94481 3.195,-3.05869 5.2212,-6.34139 l 0.5455,-0.85721 0.029,0.97409 c 0.068,1.3832 0.2923,2.59111 0.6624,3.61392 0.3799,1.02288 0.9059,1.86059 1.5878,2.523 0.341,0.30198 0.7501,0.58441 1.2079,0.828 0.4578,0.23379 0.9059,0.38958 1.3345,0.4578 0.1169,0.0195 0.2241,0.0292 0.341,0.039 0.1169,0.01 0.2435,0.0194 0.3701,0.0194 0.7014,0 1.3735,-0.15579 2.0164,-0.4578 0.6527,-0.30198 1.2761,-0.75978 1.8898,-1.37351 0.5065,-0.4675 1.0618,-1.20787 1.6755,-2.20147 0.6137,-1.0033 1.2955,-2.26963 2.0359,-3.78922 0.3019,-0.6137 0.5747,-1.19821 0.8182,-1.74371 0.2532,-0.5455 0.487,-1.0715 0.6915,-1.56828 0.2143,-0.48711 0.4286,-1.0033 0.6332,-1.5391 0.2046,-0.5455 0.4189,-1.1007 0.6234,-1.68522 0.6332,-1.80209 0.9449,-2.9126 0.9449,-3.34119 0,-0.0779 -0.01,-0.12661 -0.019,-0.15589 -0.019,-0.0292 -0.039,-0.0487 -0.068,-0.0487 -0.039,0 -0.088,0.0293 -0.1461,0.0877 -0.068,0.0487 -0.1363,0.12661 -0.224,0.22412 -0.078,0.11681 -0.2241,0.34089 -0.448,0.68178 -0.2241,0.34103 -0.4677,0.7209 -0.7502,1.14953 -0.8572,1.35399 -1.6071,2.52289 -2.2501,3.49698 -0.6331,0.97409 -1.1689,1.77292 -1.5975,2.38661 -0.4286,0.61369 -0.828,1.14938 -1.1981,1.61699 -0.3702,0.46761 -0.7209,0.84751 -1.0326,1.14949 -0.2435,0.23372 -0.4968,0.44803 -0.7501,0.66231 -0.263,0.20461 -0.4968,0.3702 -0.7111,0.50662 -0.2045,0.12658 -0.3604,0.19477 -0.4481,0.19477 -0.068,0.01 -0.1266,-0.0779 -0.1753,-0.23379 -0.049,-0.15578 -0.097,-0.40911 -0.1364,-0.7306 -0.049,-0.33119 -0.078,-0.68181 -0.097,-1.05198 -0.01,-0.37021 -0.019,-0.75982 -0.019,-1.1787 0,-0.3701 0.01,-0.74031 0.019,-1.11051 0.019,-0.3701 0.049,-0.74031 0.097,-1.11041 0.039,-0.47731 0.1072,-0.96439 0.1949,-1.4515 0.078,-0.48701 0.185,-1.013 0.3214,-1.59748 0.1266,-0.57471 0.2922,-1.23713 0.4773,-1.97743 0.1559,-0.59418 0.2728,-1.10077 0.3604,-1.51959 0.088,-0.41889 0.1559,-0.79879 0.1949,-1.12998 0.039,-0.33123 0.068,-0.67211 0.078,-1.0033 v -0.51633 c 0,-0.7209 -0.078,-1.34429 -0.2338,-1.85078 -0.1558,-0.49681 -0.3799,-0.90589 -0.6819,-1.19821 -0.1851,-0.14608 -0.3799,-0.25318 -0.5844,-0.32141 -0.2046,-0.078 -0.4189,-0.10718 -0.6429,-0.10718 -0.302,0 -0.6137,0.0585 -0.9352,0.18511 -0.3312,0.13638 -0.6624,0.32148 -1.0033,0.58448 -0.1754,0.12661 -0.302,0.21431 -0.3897,0.26299 -0.088,0.0584 -0.1363,0.0779 -0.1558,0.0779 -0.01,0 -0.029,-0.01 -0.039,-0.0195 -0.019,-0.01 -0.029,-0.0195 -0.049,-0.0389 -0.565,-0.9157 -1.3345,-1.61709 -2.3086,-2.0944 -0.9644,-0.48701 -2.0554,-0.73061 -3.2536,-0.73061 z m -0.029,6.76043 c 0.1656,0 0.3507,0.01 0.5455,0.0487 0.1948,0.0292 0.4481,0.0779 0.7695,0.14612 0.2826,0.0779 0.5552,0.13628 0.8182,0.18507 0.263,0.0584 0.4774,0.0876 0.6429,0.1071 0.1754,0.01 0.3021,0.0195 0.3606,0.039 0.068,0.01 0.097,0.0487 0.087,0.0974 v 0.0292 c -0.097,0.34089 -0.2045,0.75978 -0.3213,1.23709 -0.1169,0.48708 -0.2242,0.96438 -0.3313,1.45139 -0.097,0.42859 -0.1851,0.75012 -0.263,0.95469 -0.078,0.21431 -0.1558,0.3701 -0.224,0.4675 -0.078,0.12672 -0.263,0.38972 -0.5552,0.7988 -0.2924,0.40911 -0.6137,0.89623 -0.9839,1.4612 -0.5261,0.79873 -1.0033,1.50982 -1.432,2.11381 -0.4286,0.61369 -0.8085,1.13002 -1.1396,1.5391 -0.3215,0.41882 -0.6332,0.78899 -0.9255,1.11051 -0.2825,0.33119 -0.5553,0.62339 -0.8183,0.85718 -0.1557,0.13642 -0.3116,0.26303 -0.4578,0.37991 -0.146,0.11691 -0.2434,0.2045 -0.3116,0.25322 -0.039,0.0293 -0.078,0.0488 -0.1169,0.0682 -0.039,0.01 -0.068,0.0195 -0.078,0.0195 -0.019,0 -0.029,-0.01 -0.049,-0.0195 -0.01,-0.01 -0.029,-0.0292 -0.039,-0.0389 -0.01,-0.039 -0.019,-0.12668 -0.029,-0.24359 0,-0.11681 0,-0.2727 0,-0.4675 0,-0.32149 0.01,-0.67222 0.019,-1.0715 0.01,-0.39941 0.019,-0.84751 0.039,-1.33459 0.01,-0.4675 0.039,-0.87672 0.058,-1.22742 0.029,-0.35059 0.058,-0.6429 0.088,-0.85721 0.3117,-2.56188 0.9936,-4.64648 2.0554,-6.2537 0.3799,-0.59418 0.7793,-1.05209 1.1884,-1.3638 0.4189,-0.31168 0.8377,-0.47727 1.2664,-0.48697 h 0.1363 z"
           style="fill:#ffffff;fill-opacity:1;fill-rule:nonzero;stroke:none;stroke-width:0.352778"
           id="path1882" /><path
           d="m 1126.964,425.44468 c 0.1266,0.01 0.263,0.0194 0.3993,0.0292 0.1365,0 0.263,0 0.3995,0 0.9838,0 1.9773,-0.15589 2.9808,-0.47731 0.9936,-0.31168 2.0066,-0.79879 3.0197,-1.432 0.6624,-0.50648 1.3247,-1.1007 1.9677,-1.80209 0.6526,-0.70129 1.2956,-1.50008 1.9385,-2.39631 0.3019,-0.42859 0.6137,-0.8962 0.9351,-1.39288 0.3215,-0.49681 0.6428,-1.02291 0.9741,-1.57811 0.3312,-0.5552 0.6235,-1.06179 0.8767,-1.51959 0.2532,-0.4578 0.4676,-0.86699 0.6332,-1.21762 0.049,-0.1072 0.1071,-0.21438 0.1655,-0.34099 0.068,-0.12661 0.1365,-0.263 0.2047,-0.39938 0.1363,-0.26303 0.2531,-0.50652 0.3505,-0.7306 0.1073,-0.23372 0.2144,-0.4578 0.3118,-0.67212 0.1559,-0.33118 0.2922,-0.62339 0.3896,-0.85721 0.097,-0.23379 0.1462,-0.37987 0.1559,-0.42859 -0.01,-0.039 -0.01,-0.0682 -0.019,-0.0877 -0.01,-0.0195 -0.029,-0.0292 -0.039,-0.0292 -0.049,0 -0.1071,0.0487 -0.1948,0.13642 -0.088,0.0876 -0.1947,0.22398 -0.3214,0.40908 -0.3701,0.57471 -0.7793,1.15923 -1.2274,1.75341 -0.4384,0.60389 -0.9254,1.21761 -1.4514,1.84111 -0.5358,0.6331 -1.0228,1.1786 -1.4806,1.64621 -0.4481,0.46757 -0.8671,0.85718 -1.2372,1.15919 -1.1104,0.86688 -2.2112,1.51959 -3.2924,1.95788 -1.0813,0.4384 -2.1432,0.66241 -3.1854,0.66241 h -0.2824 c -0.8574,-0.0292 -1.5489,-0.2045 -2.0749,-0.52599 -0.5163,-0.32142 -0.945,-0.85722 -1.2761,-1.58782 -0.1558,-0.30187 -0.2825,-0.61369 -0.3799,-0.93507 -0.097,-0.31172 -0.1656,-0.65271 -0.2144,-1.03262 -0.039,-0.3701 -0.058,-0.80849 -0.058,-1.31501 0,-1.01307 0.1169,-2.05539 0.3604,-3.13658 0.2434,-1.0813 0.6136,-2.18211 1.1007,-3.31202 0.3799,-0.9839 0.8085,-1.78259 1.2565,-2.40609 0.458,-0.61369 0.945,-1.05198 1.4613,-1.30531 0.097,-0.0584 0.1851,-0.0974 0.2727,-0.12658 0.078,-0.0292 0.1558,-0.0487 0.2046,-0.0487 0.097,0 0.1753,0.0487 0.2435,0.13642 0.058,0.0876 0.1169,0.22398 0.1851,0.40908 0.058,0.14612 0.1072,0.31172 0.1364,0.47731 0.029,0.1656 0.039,0.38961 0.039,0.66241 0,0.23379 -0.01,0.51629 -0.019,0.86699 -0.019,0.34089 -0.039,0.75 -0.068,1.21761 -0.039,0.47731 -0.068,0.8962 -0.088,1.2566 -0.019,0.3702 -0.029,0.67211 -0.019,0.9157 0,0.49668 0.049,0.85718 0.1461,1.07149 0.098,0.21432 0.2338,0.3701 0.4189,0.4675 0.078,0.0487 0.1559,0.078 0.2533,0.10721 0.088,0.0195 0.1851,0.039 0.2922,0.039 0.3507,0 0.7209,-0.1462 1.1105,-0.42859 0.3799,-0.28251 0.7793,-0.7014 1.1981,-1.2566 0.2631,-0.40922 0.4774,-0.8086 0.643,-1.169 0.1558,-0.3701 0.2825,-0.7403 0.3604,-1.12021 0.088,-0.37991 0.1364,-0.79879 0.1656,-1.24689 v -0.5455 c 0,-1.1592 -0.1754,-2.182 -0.5358,-3.0879 -0.3507,-0.9059 -0.8767,-1.67552 -1.578,-2.33782 -0.4676,-0.5261 -1.0326,-0.91567 -1.6852,-1.17867 -0.6527,-0.26303 -1.393,-0.38971 -2.221,-0.38971 -0.5553,0 -1.1008,0.0585 -1.6073,0.1754 -0.5163,0.11691 -1.0131,0.2922 -1.4806,0.53569 -1.8606,0.95469 -3.3802,2.4353 -4.5589,4.43219 -1.1884,1.99701 -2.0456,4.5199 -2.5716,7.55911 -0.059,0.39942 -0.1072,0.87669 -0.1364,1.4417 -0.019,0.56501 -0.039,1.13969 -0.039,1.7242 0,0.263 0.01,0.50649 0.019,0.7305 0.01,0.22412 0.019,0.4287 0.039,0.61369 0.1656,1.46121 0.5065,2.77622 1.0033,3.95492 0.5066,1.18841 1.1787,2.22099 2.0164,3.12688 0.6429,0.65271 1.354,1.17871 2.1431,1.56831 0.7793,0.37991 1.6365,0.64291 2.5716,0.76959 z m 24.6547,-25.21 c -0.6234,0 -1.2566,0.0682 -1.8995,0.21432 -0.6429,0.13638 -1.276,0.34099 -1.9191,0.61369 -0.9058,0.42859 -1.7436,1.0034 -2.5228,1.7339 -0.7793,0.7306 -1.4905,1.6171 -2.1334,2.65942 -0.6429,1.04228 -1.1884,2.182 -1.6365,3.40928 -0.4578,1.23719 -0.8085,2.57171 -1.0715,4.01341 -0.1168,0.67208 -0.1948,1.31498 -0.2532,1.93841 -0.058,0.61369 -0.088,1.21768 -0.088,1.80209 0,1.29558 0.1461,2.49379 0.4286,3.57498 0.2824,1.0813 0.7014,2.04562 1.2566,2.9029 1.0521,1.43193 2.2502,2.14302 3.5945,2.14302 0.3702,0 0.7403,-0.0584 1.1105,-0.16559 0.3701,-0.11691 0.7402,-0.27273 1.1104,-0.48712 1.4611,-0.94481 3.1952,-3.05869 5.2213,-6.34139 l 0.5455,-0.85721 0.029,0.97409 c 0.068,1.3832 0.2923,2.59111 0.6624,3.61392 0.3799,1.02288 0.9059,1.86059 1.5878,2.523 0.341,0.30198 0.7501,0.58441 1.2079,0.828 0.4578,0.23379 0.9059,0.38958 1.3345,0.4578 0.1169,0.0195 0.2241,0.0292 0.341,0.039 0.1169,0.01 0.2435,0.0194 0.3701,0.0194 0.7014,0 1.3735,-0.15579 2.0164,-0.4578 0.6527,-0.30198 1.2761,-0.75978 1.8898,-1.37351 0.5065,-0.4675 1.0618,-1.20787 1.6755,-2.20147 0.6137,-1.0033 1.2955,-2.26963 2.0359,-3.78922 0.3019,-0.6137 0.5747,-1.19821 0.8182,-1.74371 0.2533,-0.5455 0.4871,-1.0715 0.6916,-1.56828 0.2143,-0.48711 0.4286,-1.0033 0.6332,-1.5391 0.2046,-0.5455 0.4189,-1.1007 0.6234,-1.68522 0.6332,-1.80209 0.9449,-2.9126 0.9449,-3.34119 0,-0.0779 -0.01,-0.12661 -0.019,-0.15589 -0.019,-0.0292 -0.039,-0.0487 -0.068,-0.0487 -0.039,0 -0.088,0.0293 -0.1461,0.0877 -0.068,0.0487 -0.1363,0.12661 -0.224,0.22412 -0.078,0.11681 -0.2241,0.34089 -0.4481,0.68178 -0.224,0.34103 -0.4676,0.7209 -0.7501,1.14953 -0.8572,1.35399 -1.6072,2.52289 -2.2502,3.49698 -0.6331,0.97409 -1.1689,1.77292 -1.5975,2.38661 -0.4286,0.61369 -0.828,1.14938 -1.1981,1.61699 -0.3702,0.46761 -0.7209,0.84751 -1.0326,1.14949 -0.2435,0.23372 -0.4968,0.44803 -0.7501,0.66231 -0.263,0.20461 -0.4968,0.3702 -0.7111,0.50662 -0.2045,0.12658 -0.3604,0.19477 -0.4481,0.19477 -0.068,0.01 -0.1266,-0.0779 -0.1753,-0.23379 -0.049,-0.15578 -0.097,-0.40911 -0.1364,-0.7306 -0.049,-0.33119 -0.078,-0.68181 -0.097,-1.05198 -0.01,-0.37021 -0.019,-0.75982 -0.019,-1.1787 0,-0.3701 0.01,-0.74031 0.019,-1.11051 0.019,-0.3701 0.049,-0.74031 0.097,-1.11041 0.039,-0.47731 0.1072,-0.96439 0.1949,-1.4515 0.078,-0.48701 0.185,-1.013 0.3214,-1.59748 0.1266,-0.57471 0.2922,-1.23713 0.4773,-1.97743 0.1559,-0.59418 0.2728,-1.10077 0.3604,-1.51959 0.088,-0.41889 0.1559,-0.79879 0.1949,-1.12998 0.039,-0.33123 0.068,-0.67211 0.078,-1.0033 v -0.51633 c 0,-0.7209 -0.078,-1.34429 -0.2338,-1.85078 -0.1559,-0.49681 -0.3799,-0.90589 -0.6819,-1.19821 -0.1851,-0.14608 -0.3799,-0.25318 -0.5844,-0.32141 -0.2046,-0.078 -0.4189,-0.10718 -0.6429,-0.10718 -0.302,0 -0.6137,0.0585 -0.9352,0.18511 -0.3312,0.13638 -0.6624,0.32148 -1.0033,0.58448 -0.1754,0.12661 -0.302,0.21431 -0.3897,0.26299 -0.088,0.0584 -0.1363,0.0779 -0.1558,0.0779 -0.01,0 -0.029,-0.01 -0.039,-0.0195 -0.019,-0.01 -0.029,-0.0195 -0.049,-0.0389 -0.565,-0.9157 -1.3345,-1.61709 -2.3086,-2.0944 -0.9644,-0.48701 -2.0554,-0.73061 -3.2536,-0.73061 z m -0.029,6.76043 c 0.1656,0 0.3507,0.01 0.5455,0.0487 0.1948,0.0292 0.4481,0.0779 0.7696,0.14612 0.2825,0.0779 0.5552,0.13628 0.8182,0.18507 0.263,0.0584 0.4773,0.0876 0.6429,0.1071 0.1754,0.01 0.302,0.0195 0.3605,0.039 0.068,0.01 0.097,0.0487 0.088,0.0974 v 0.0292 c -0.097,0.34089 -0.2045,0.75978 -0.3214,1.23709 -0.1169,0.48708 -0.2241,0.96438 -0.3312,1.45139 -0.097,0.42859 -0.1851,0.75012 -0.263,0.95469 -0.078,0.21431 -0.1559,0.3701 -0.2241,0.4675 -0.078,0.12672 -0.263,0.38972 -0.5552,0.7988 -0.2923,0.40911 -0.6137,0.89623 -0.9839,1.4612 -0.526,0.79873 -1.0033,1.50982 -1.4319,2.11381 -0.4286,0.61369 -0.8085,1.13002 -1.1397,1.5391 -0.3215,0.41882 -0.6332,0.78899 -0.9254,1.11051 -0.2825,0.33119 -0.5553,0.62339 -0.8183,0.85718 -0.1558,0.13642 -0.3117,0.26303 -0.4578,0.37991 -0.1461,0.11691 -0.2435,0.2045 -0.3117,0.25322 -0.039,0.0293 -0.078,0.0488 -0.1169,0.0682 -0.039,0.01 -0.068,0.0195 -0.078,0.0195 -0.019,0 -0.029,-0.01 -0.049,-0.0195 -0.01,-0.01 -0.029,-0.0292 -0.039,-0.0389 -0.01,-0.039 -0.019,-0.12668 -0.029,-0.24359 0,-0.11681 0,-0.2727 0,-0.4675 0,-0.32149 0.01,-0.67222 0.019,-1.0715 0.01,-0.39941 0.019,-0.84751 0.039,-1.33459 0.01,-0.4675 0.039,-0.87672 0.058,-1.22742 0.029,-0.35059 0.058,-0.6429 0.088,-0.85721 0.3117,-2.56188 0.9936,-4.64648 2.0554,-6.2537 0.3799,-0.59418 0.7793,-1.05209 1.1884,-1.3638 0.4189,-0.31168 0.8377,-0.47727 1.2664,-0.48697 h 0.1363 z m 33.4216,18.39108 c 0.098,0.01 0.2046,0.0195 0.3118,0.0292 0.1071,0 0.2143,0 0.3117,0 0.828,0 1.617,-0.21431 2.3671,-0.66241 0.75,-0.43829 1.5001,-1.13969 2.2307,-2.0845 0.7305,-0.95468 1.4904,-2.1918 2.2794,-3.7114 0.1558,-0.2922 0.3312,-0.62339 0.5065,-1.0033 0.1754,-0.3799 0.3312,-0.74041 0.4676,-1.07149 0.1851,-0.4579 0.3994,-0.96442 0.6234,-1.52939 0.2338,-0.56501 0.4676,-1.14943 0.7111,-1.74371 0.2338,-0.60389 0.4676,-1.18841 0.6916,-1.75331 0.1559,-0.41889 0.2825,-0.77929 0.3994,-1.0716 0.1072,-0.30191 0.1948,-0.5455 0.2533,-0.73049 0.1169,-0.37021 0.2143,-0.7111 0.2825,-1.03262 0.078,-0.33119 0.1169,-0.57468 0.1169,-0.74027 0,-0.0585 -0.01,-0.0974 -0.019,-0.12672 -0.01,-0.0292 -0.019,-0.0389 -0.039,-0.0389 -0.058,-0.0195 -0.2143,0.13642 -0.4481,0.4675 -0.2435,0.33123 -0.6331,0.92541 -1.1786,1.78273 -0.4968,0.75978 -0.9352,1.42219 -1.3053,1.98709 -0.3799,0.56501 -0.6917,1.02288 -0.9449,1.38328 -0.263,0.3604 -0.5358,0.72083 -0.8183,1.091 -0.2922,0.3701 -0.5942,0.75 -0.9254,1.13972 -0.224,0.27269 -0.4773,0.5552 -0.75,0.85718 -0.2825,0.2922 -0.5748,0.61372 -0.906,0.93511 -0.3312,0.33122 -0.6234,0.60399 -0.8669,0.8183 -0.2533,0.22401 -0.4579,0.38961 -0.6137,0.49682 -0.1169,0.0779 -0.2241,0.14608 -0.3117,0.1948 -0.097,0.0585 -0.1656,0.0877 -0.2046,0.0974 0,-0.01 -0.01,-0.12658 -0.019,-0.3604 0,-0.22398 -0.01,-0.50648 -0.01,-0.84748 0,-0.4675 0.01,-0.92541 0.049,-1.3637 0.029,-0.4481 0.078,-0.87672 0.1461,-1.2858 0.1461,-0.82801 0.3994,-1.91901 0.7793,-3.2536 0.2922,-1.12021 0.5552,-2.11381 0.7793,-3.0002 0.224,-0.8962 0.3994,-1.67552 0.526,-2.33789 0.1364,-0.67212 0.2435,-1.32482 0.3409,-1.95792 0.088,-0.6332 0.1559,-1.24689 0.2046,-1.84111 0.019,-0.21428 0.029,-0.41889 0.039,-0.61369 0.01,-0.18511 0.019,-0.37991 0.019,-0.55521 0,-1.0131 -0.1266,-1.83137 -0.3702,-2.44499 -0.2435,-0.6235 -0.6137,-1.05209 -1.1104,-1.29561 -0.1267,-0.0682 -0.2533,-0.11688 -0.3896,-0.14609 -0.1268,-0.0292 -0.2729,-0.0487 -0.4384,-0.0487 -0.1753,0 -0.3409,0.0389 -0.4969,0.11687 -0.146,0.0682 -0.2922,0.1656 -0.4187,0.28251 -0.098,0.0681 -0.2047,0.13631 -0.3216,0.2045 -0.1071,0.0682 -0.2239,0.11691 -0.3312,0.1656 -0.3117,0.0974 -0.7501,0.3702 -1.315,0.8183 -0.5649,0.4481 -1.2078,1.17859 -1.9092,2.17219 -0.2241,0.28251 -0.4578,0.58452 -0.6917,0.91571 -0.2337,0.33119 -0.4481,0.6526 -0.6624,0.97409 -0.2045,0.31171 -0.3896,0.58452 -0.5358,0.8183 -0.263,0.42863 -0.5551,0.87662 -0.8473,1.32472 -0.3021,0.4579 -0.6041,0.9157 -0.9157,1.39298 -0.4286,0.67211 -0.8671,1.34433 -1.3152,2.0164 -0.4383,0.68192 -0.8961,1.36381 -1.3734,2.06513 -0.3701,0.56497 -0.6917,1.02277 -0.9644,1.36377 -0.2825,0.34092 -0.4285,0.51632 -0.4578,0.51632 0,-0.0195 0.049,-0.19491 0.1364,-0.51632 0.078,-0.32149 0.1851,-0.74027 0.3214,-1.2469 0.263,-0.94488 0.4774,-1.7339 0.6429,-2.34759 0.1753,-0.62339 0.3021,-1.12991 0.3897,-1.51959 0.097,-0.38961 0.1558,-0.7111 0.1948,-0.96439 0.097,-0.61362 0.1657,-1.21761 0.2143,-1.81183 0.049,-0.59418 0.068,-1.1689 0.068,-1.7242 0,-0.41879 -0.01,-0.78899 -0.039,-1.11048 -0.029,-0.32141 -0.078,-0.58441 -0.1267,-0.79872 -0.1461,-0.4481 -0.341,-0.78909 -0.5747,-1.03258 -0.2436,-0.24352 -0.5261,-0.38961 -0.8573,-0.42859 h -0.146 c -0.5261,0 -1.091,0.26299 -1.6853,0.79879 -0.6039,0.526 -1.237,1.32479 -1.9093,2.39628 -0.3018,0.4481 -0.5746,0.93511 -0.8279,1.4514 -0.2631,0.52603 -0.4967,1.091 -0.7111,1.69503 -0.2143,0.59418 -0.4579,1.37347 -0.7404,2.31828 -0.2824,0.94491 -0.6039,2.06509 -0.9448,3.3607 -0.2532,0.95462 -0.4774,1.8313 -0.6624,2.61059 -0.1851,0.77932 -0.3311,1.46121 -0.448,2.04562 -0.1268,0.58448 -0.2242,1.13979 -0.2826,1.66578 -0.068,0.51632 -0.1072,1.0033 -0.1169,1.44173 v 0.4578 c 0,0.5455 0.029,0.9936 0.097,1.3637 0.068,0.36047 0.1851,0.74037 0.3604,1.12028 0.068,0.22401 0.156,0.40912 0.263,0.5649 0.1072,0.1656 0.2631,0.341 0.4773,0.55531 0.3507,0.3507 0.7306,0.62339 1.1204,0.8085 0.3896,0.17529 0.8085,0.27269 1.2467,0.27269 0.078,0 0.1462,0 0.2339,0 0.078,-0.01 0.1559,-0.0194 0.2239,-0.0292 0.6332,-0.0876 1.1983,-0.32138 1.695,-0.70128 0.5066,-0.37021 1.0131,-0.95469 1.5294,-1.72421 0.1168,-0.17529 0.2337,-0.36039 0.3507,-0.565 0.1168,-0.19481 0.2825,-0.49679 0.5065,-0.8962 0.2144,-0.40908 0.5357,-1.013 0.9644,-1.8118 0.4189,-0.80849 1.0033,-1.9093 1.7436,-3.29251 0.3021,-0.56497 0.5845,-1.1007 0.867,-1.6268 0.2728,-0.51618 0.5358,-1.013 0.789,-1.49027 0.4871,-0.94492 0.8281,-1.56842 1.0326,-1.88013 0.146,-0.28247 0.341,-0.6331 0.5941,-1.07149 0.2436,-0.43829 0.4969,-0.87669 0.7599,-1.32479 0.2532,-0.4481 0.4676,-0.8182 0.6527,-1.12991 0.1753,-0.30201 0.263,-0.45791 0.2727,-0.47738 0,0.01 -0.049,0.16559 -0.1364,0.45787 -0.098,0.30191 -0.224,0.68181 -0.3799,1.14942 -0.643,1.84108 -1.1202,3.54581 -1.432,5.11408 -0.3214,1.55861 -0.4773,2.9905 -0.4773,4.2763 -0.01,0.16563 -0.019,0.33122 -0.029,0.49682 0,0.15589 0,0.31168 0,0.47731 0,0.59418 0.029,1.12998 0.078,1.58778 0.058,0.4579 0.146,0.88649 0.2629,1.2664 0.117,0.37991 0.2728,0.75981 0.4578,1.13972 0.1462,0.29217 0.2924,0.52599 0.4287,0.73057 0.1461,0.1948 0.3215,0.40911 0.5455,0.6429 0.4286,0.41882 0.8767,0.75981 1.3442,1.0033 0.4676,0.24352 0.9449,0.40912 1.4514,0.47731 z m 17.4559,-34.6782 c -0.039,0 -0.088,0 -0.1363,0 -0.059,0 -0.097,0 -0.1461,0 -0.068,0.0194 -0.1462,0.0292 -0.2143,0.0292 -0.068,0 -0.1462,0 -0.2144,0 -0.3409,0.0195 -0.6039,0.0487 -0.7987,0.0877 -0.1851,0.0487 -0.3604,0.0974 -0.5358,0.1753 -0.565,0.2922 -0.9936,0.69158 -1.2858,1.1981 -0.302,0.49678 -0.4578,1.04228 -0.4578,1.6268 0,0.5358 0.1461,1.05198 0.4286,1.5391 0.2532,0.38961 0.5552,0.71109 0.8962,0.98379 0.3409,0.2631 0.7305,0.46761 1.1591,0.61369 0.098,0.0293 0.2143,0.0487 0.3507,0.0682 0.1364,0.01 0.2923,0.0195 0.4773,0.0195 h 0.2533 c 0.2338,0 0.4189,0 0.5552,-0.01 0.1267,-0.01 0.2533,-0.0293 0.3605,-0.0682 0.1071,-0.039 0.2435,-0.0974 0.3994,-0.1851 0.3506,-0.1753 0.6916,-0.42859 1.0228,-0.75011 0.3312,-0.32138 0.5747,-0.65257 0.7403,-0.9838 0.058,-0.12668 0.1071,-0.24348 0.1364,-0.34099 0.029,-0.0974 0.049,-0.21431 0.058,-0.35059 0.01,-0.13642 0.01,-0.32152 0.01,-0.56501 0,-0.2728 0,-0.46761 -0.019,-0.60399 -0.01,-0.13631 -0.029,-0.25322 -0.068,-0.35059 -0.039,-0.10721 -0.097,-0.24363 -0.1656,-0.41893 -0.1655,-0.32148 -0.3603,-0.60399 -0.6039,-0.8377 -0.2338,-0.23379 -0.5162,-0.41889 -0.828,-0.55527 -0.224,-0.11691 -0.4383,-0.19481 -0.6429,-0.23382 -0.2046,-0.0487 -0.4481,-0.0682 -0.7307,-0.0876 z m -2.3963,11.30939 c -0.1948,0 -0.3993,0.0194 -0.5942,0.0584 -0.1948,0.039 -0.3896,0.0974 -0.5747,0.16559 -0.4091,0.15589 -0.7889,0.38961 -1.1396,0.70139 -0.3409,0.30191 -0.6526,0.68182 -0.9449,1.12991 -0.2922,0.4481 -0.5942,1.02281 -0.8864,1.7145 -0.2825,0.68182 -0.5845,1.49031 -0.8767,2.41569 -0.604,1.8996 -1.0521,3.65301 -1.354,5.24072 -0.302,1.59759 -0.4481,3.03929 -0.4481,4.32509 0,0.3604 0.01,0.70129 0.039,1.04232 0.029,0.33119 0.059,0.65257 0.1072,0.95458 0.2046,1.0813 0.5065,2.02622 0.9351,2.84441 0.4189,0.8085 0.9254,1.46121 1.5294,1.93848 0.6039,0.48701 1.2858,0.77932 2.0456,0.86692 0.097,0.01 0.1851,0.0195 0.2825,0.0293 0.088,0 0.1753,0 0.2532,0 0.4968,0 0.9936,-0.0877 1.4904,-0.2533 0.487,-0.16559 0.9838,-0.41888 1.4806,-0.75007 0.1851,-0.12661 0.3994,-0.30191 0.6429,-0.51622 0.2436,-0.22409 0.526,-0.49678 0.8378,-0.81831 0.3117,-0.33118 0.5942,-0.6332 0.8377,-0.90589 0.2533,-0.27281 0.4676,-0.526 0.6526,-0.75008 0.5845,-0.81823 1.1495,-1.7242 1.7047,-2.7275 0.565,-1.0033 1.1008,-2.11381 1.6268,-3.32172 0.6137,-1.46121 1.0715,-2.62029 1.3735,-3.47761 0.302,-0.85718 0.4578,-1.42219 0.4578,-1.69489 0,-0.039 0,-0.0779 0,-0.0974 -0.01,-0.0292 -0.019,-0.039 -0.029,-0.039 -0.01,0 -0.049,0.039 -0.1072,0.12657 -0.058,0.078 -0.1363,0.19491 -0.2337,0.36051 -0.1169,0.17529 -0.2728,0.41881 -0.4579,0.7306 -0.1851,0.31171 -0.3701,0.6429 -0.5455,0.97409 -0.2143,0.38961 -0.4091,0.7403 -0.5844,1.06172 -0.1754,0.32149 -0.341,0.61369 -0.4968,0.85728 -0.1559,0.25323 -0.341,0.5357 -0.5358,0.85722 -0.2046,0.31168 -0.4383,0.66241 -0.6916,1.05198 -0.4286,0.6332 -0.8183,1.18841 -1.1787,1.67552 -0.3701,0.48698 -0.7208,0.92541 -1.0618,1.32479 -0.3506,0.39931 -0.7013,0.78902 -1.0715,1.16889 -0.3896,0.38961 -0.6916,0.67211 -0.9156,0.84751 -0.2241,0.185 -0.4189,0.31172 -0.5942,0.40909 -0.2046,0.0974 -0.38,0.16562 -0.5163,0.20461 -0.1364,0.0292 -0.3117,0.0487 -0.5163,0.0487 h -0.5065 l -0.058,-0.25333 c -0.019,-0.0779 -0.029,-0.18507 -0.039,-0.32149 -0.01,-0.13631 -0.019,-0.31168 -0.019,-0.50648 0,-0.4578 0.019,-0.95462 0.058,-1.49042 0.039,-0.53569 0.078,-1.0033 0.1364,-1.42219 0.1753,-1.11051 0.4481,-2.38661 0.8182,-3.8088 0.3702,-1.42212 0.8378,-3.0002 1.4125,-4.7244 0.1851,-0.60392 0.3312,-1.06182 0.4286,-1.3637 0.097,-0.30201 0.1656,-0.5455 0.2143,-0.7306 0.049,-0.17529 0.088,-0.38971 0.1266,-0.61369 0.039,-0.20461 0.068,-0.39942 0.088,-0.58452 0.019,-0.185 0.029,-0.3799 0.029,-0.5649 -0.01,-0.7988 -0.1558,-1.49038 -0.4578,-2.05539 -0.2922,-0.55531 -0.7208,-0.95462 -1.2858,-1.19821 -0.1267,-0.0389 -0.2728,-0.0779 -0.4189,-0.0974 -0.1558,-0.0292 -0.302,-0.0389 -0.4676,-0.0389 z m 25.3171,23.36881 c 0.098,0.01 0.2046,0.0195 0.3118,0.0292 0.1071,0 0.2143,0 0.3117,0 0.828,0 1.617,-0.21431 2.3671,-0.66241 0.75,-0.43829 1.5001,-1.13969 2.2307,-2.0845 0.7305,-0.95468 1.4904,-2.1918 2.2794,-3.7114 0.1558,-0.2922 0.3312,-0.62339 0.5065,-1.0033 0.1754,-0.3799 0.3312,-0.74041 0.4676,-1.07149 0.1851,-0.4579 0.3994,-0.96442 0.6234,-1.52939 0.2338,-0.56501 0.4676,-1.14943 0.7111,-1.74371 0.2338,-0.60389 0.4676,-1.18841 0.6916,-1.75331 0.1559,-0.41889 0.2825,-0.77929 0.3994,-1.0716 0.1072,-0.30191 0.1948,-0.5455 0.2533,-0.73049 0.1169,-0.37021 0.2143,-0.7111 0.2825,-1.03262 0.078,-0.33119 0.1169,-0.57468 0.1169,-0.74027 0,-0.0585 -0.01,-0.0974 -0.019,-0.12672 -0.01,-0.0292 -0.019,-0.0389 -0.039,-0.0389 -0.058,-0.0195 -0.2143,0.13642 -0.448,0.4675 -0.2435,0.33123 -0.6331,0.92541 -1.1786,1.78273 -0.4969,0.75978 -0.9353,1.42219 -1.3054,1.98709 -0.3799,0.56501 -0.6916,1.02288 -0.9448,1.38328 -0.263,0.3604 -0.5358,0.72083 -0.8183,1.091 -0.2922,0.3701 -0.5943,0.75 -0.9254,1.13972 -0.2241,0.27269 -0.4774,0.5552 -0.7501,0.85718 -0.2825,0.2922 -0.5747,0.61372 -0.906,0.93511 -0.3311,0.33122 -0.6234,0.60399 -0.8668,0.8183 -0.2533,0.22401 -0.4579,0.38961 -0.6138,0.49682 -0.1168,0.0779 -0.2241,0.14608 -0.3116,0.1948 -0.097,0.0585 -0.1656,0.0877 -0.2047,0.0974 0,-0.01 -0.01,-0.12658 -0.019,-0.3604 0,-0.22398 -0.01,-0.50648 -0.01,-0.84748 0,-0.4675 0.01,-0.92541 0.049,-1.3637 0.029,-0.4481 0.078,-0.87672 0.1461,-1.2858 0.1461,-0.82801 0.3994,-1.91901 0.7793,-3.2536 0.2922,-1.12021 0.5552,-2.11381 0.7793,-3.0002 0.224,-0.8962 0.3994,-1.67552 0.526,-2.33789 0.1364,-0.67212 0.2435,-1.32482 0.3409,-1.95792 0.088,-0.6332 0.1559,-1.24689 0.2046,-1.84111 0.019,-0.21428 0.029,-0.41889 0.039,-0.61369 0.01,-0.18511 0.019,-0.37991 0.019,-0.55521 0,-1.0131 -0.1267,-1.83137 -0.3702,-2.44499 -0.2435,-0.6235 -0.6137,-1.05209 -1.1105,-1.29561 -0.1266,-0.0682 -0.2533,-0.11688 -0.3896,-0.14609 -0.1267,-0.0292 -0.2728,-0.0487 -0.4384,-0.0487 -0.1753,0 -0.3409,0.0389 -0.4968,0.11687 -0.1461,0.0682 -0.2922,0.1656 -0.4188,0.28251 -0.097,0.0681 -0.2046,0.13631 -0.3215,0.2045 -0.1072,0.0682 -0.224,0.11691 -0.3312,0.1656 -0.3117,0.0974 -0.7501,0.3702 -1.315,0.8183 -0.565,0.4481 -1.2079,1.17859 -1.9093,2.17219 -0.224,0.28251 -0.4578,0.58452 -0.6916,0.91571 -0.2338,0.33119 -0.4481,0.6526 -0.6624,0.97409 -0.2046,0.31171 -0.3897,0.58452 -0.5358,0.8183 -0.263,0.42863 -0.5552,0.87662 -0.8474,1.32472 -0.302,0.4579 -0.604,0.9157 -0.9157,1.39298 -0.4286,0.67211 -0.867,1.34433 -1.3151,2.0164 -0.4383,0.68192 -0.8961,1.36381 -1.3734,2.06513 -0.3702,0.56497 -0.6917,1.02277 -0.9644,1.36377 -0.2825,0.34092 -0.4286,0.51632 -0.4578,0.51632 0,-0.0195 0.049,-0.19491 0.1363,-0.51632 0.078,-0.32149 0.1851,-0.74027 0.3215,-1.2469 0.263,-0.94488 0.4773,-1.7339 0.6429,-2.34759 0.1753,-0.62339 0.302,-1.12991 0.3896,-1.51959 0.098,-0.38961 0.1559,-0.7111 0.1949,-0.96439 0.097,-0.61362 0.1656,-1.21761 0.2143,-1.81183 0.049,-0.59418 0.068,-1.1689 0.068,-1.7242 0,-0.41879 -0.01,-0.78899 -0.039,-1.11048 -0.029,-0.32141 -0.078,-0.58441 -0.1266,-0.79872 -0.1462,-0.4481 -0.341,-0.78909 -0.5748,-1.03258 -0.2435,-0.24352 -0.526,-0.38961 -0.8572,-0.42859 h -0.1461 c -0.526,0 -1.091,0.26299 -1.6852,0.79879 -0.604,0.526 -1.2371,1.32479 -1.9093,2.39628 -0.3019,0.4481 -0.5747,0.93511 -0.8279,1.4514 -0.2631,0.52603 -0.4968,1.091 -0.7111,1.69503 -0.2144,0.59418 -0.4579,1.37347 -0.7404,2.31828 -0.2825,0.94491 -0.6039,2.06509 -0.9449,3.3607 -0.2532,0.95462 -0.4773,1.8313 -0.6623,2.61059 -0.1851,0.77932 -0.3312,1.46121 -0.4481,2.04562 -0.1267,0.58448 -0.2241,1.13979 -0.2825,1.66578 -0.068,0.51632 -0.1072,1.0033 -0.1169,1.44173 v 0.4578 c 0,0.5455 0.029,0.9936 0.097,1.3637 0.068,0.36047 0.1851,0.74037 0.3604,1.12028 0.068,0.22401 0.1559,0.40912 0.263,0.5649 0.1072,0.1656 0.263,0.341 0.4773,0.55531 0.3507,0.3507 0.7306,0.62339 1.1203,0.8085 0.3896,0.17529 0.8085,0.27269 1.2468,0.27269 0.078,0 0.1461,0 0.2338,0 0.078,-0.01 0.1559,-0.0194 0.224,-0.0292 0.6332,-0.0876 1.1982,-0.32138 1.695,-0.70128 0.5065,-0.37021 1.0131,-0.95469 1.5293,-1.72421 0.1169,-0.17529 0.2338,-0.36039 0.3507,-0.565 0.1169,-0.19481 0.2825,-0.49679 0.5066,-0.8962 0.2143,-0.40908 0.5357,-1.013 0.9643,-1.8118 0.4189,-0.80849 1.0034,-1.9093 1.7437,-3.29251 0.302,-0.56497 0.5844,-1.1007 0.8669,-1.6268 0.2728,-0.51618 0.5358,-1.013 0.7891,-1.49027 0.487,-0.94492 0.828,-1.56842 1.0325,-1.88013 0.1461,-0.28247 0.341,-0.6331 0.5942,-1.07149 0.2436,-0.43829 0.4968,-0.87669 0.7598,-1.32479 0.2533,-0.4481 0.4676,-0.8182 0.6527,-1.12991 0.1753,-0.30201 0.263,-0.45791 0.2727,-0.47738 0,0.01 -0.049,0.16559 -0.1363,0.45787 -0.098,0.30191 -0.2241,0.68181 -0.3799,1.14942 -0.643,1.84108 -1.1203,3.54581 -1.432,5.11408 -0.3214,1.55861 -0.4773,2.9905 -0.4773,4.2763 -0.01,0.16563 -0.019,0.33122 -0.029,0.49682 0,0.15589 0,0.31168 0,0.47731 0,0.59418 0.029,1.12998 0.078,1.58778 0.059,0.4579 0.1461,0.88649 0.263,1.2664 0.1169,0.37991 0.2728,0.75981 0.4578,1.13972 0.1462,0.29217 0.2923,0.52599 0.4287,0.73057 0.1461,0.1948 0.3214,0.40911 0.5455,0.6429 0.4286,0.41882 0.8767,0.75981 1.3442,1.0033 0.4676,0.24352 0.9449,0.40912 1.4514,0.47731"
           style="fill:#ffffff;fill-opacity:1;fill-rule:nonzero;stroke:none;stroke-width:0.352778"
           id="path1884" /><path
           d="m 1245.357,400.23468 c -0.6234,0 -1.2566,0.0682 -1.8995,0.21432 -0.6429,0.13638 -1.276,0.34099 -1.919,0.61369 -0.9059,0.42859 -1.7436,1.0034 -2.5229,1.7339 -0.7794,0.7306 -1.4904,1.6171 -2.1334,2.65942 -0.6429,1.04228 -1.1884,2.182 -1.6365,3.40928 -0.4578,1.23719 -0.8084,2.57171 -1.0714,4.01341 -0.117,0.67208 -0.1948,1.31498 -0.2533,1.93841 -0.059,0.61369 -0.088,1.21768 -0.088,1.80209 0,1.29558 0.1462,2.49379 0.4287,3.57498 0.2824,1.0813 0.7012,2.04562 1.2566,2.9029 1.0519,1.43193 2.25,2.14302 3.5944,2.14302 0.3701,0 0.7402,-0.0584 1.1104,-0.16559 0.3702,-0.11691 0.7403,-0.27273 1.1106,-0.48712 1.4611,-0.94481 3.1951,-3.05869 5.2212,-6.34139 l 0.5455,-0.85721 0.029,0.97409 c 0.068,1.3832 0.2924,2.59111 0.6625,3.61392 0.3799,1.02288 0.9059,1.86059 1.5877,2.523 0.3411,0.30198 0.7502,0.58441 1.208,0.828 0.4578,0.23379 0.9059,0.38958 1.3344,0.4578 0.117,0.0195 0.2242,0.0292 0.3411,0.039 0.1168,0.01 0.2435,0.0194 0.3701,0.0194 0.7014,0 1.3734,-0.15579 2.0163,-0.4578 0.6528,-0.30198 1.2761,-0.75978 1.8899,-1.37351 0.5065,-0.4675 1.0618,-1.20787 1.6755,-2.20147 0.6136,-1.0033 1.2955,-2.26963 2.0359,-3.78922 0.3018,-0.6137 0.5746,-1.19821 0.8182,-1.74371 0.2533,-0.5455 0.487,-1.0715 0.6916,-1.56828 0.2143,-0.48711 0.4285,-1.0033 0.6332,-1.5391 0.2046,-0.5455 0.4188,-1.1007 0.6233,-1.68522 0.6332,-1.80209 0.945,-2.9126 0.945,-3.34119 0,-0.0779 -0.01,-0.12661 -0.019,-0.15589 -0.019,-0.0292 -0.039,-0.0487 -0.068,-0.0487 -0.039,0 -0.088,0.0293 -0.1462,0.0877 -0.068,0.0487 -0.1362,0.12661 -0.2239,0.22412 -0.078,0.11681 -0.2242,0.34089 -0.4481,0.68178 -0.224,0.34103 -0.4676,0.7209 -0.7501,1.14953 -0.8573,1.35399 -1.6072,2.52289 -2.2502,3.49698 -0.6331,0.97409 -1.1689,1.77292 -1.5976,2.38661 -0.4285,0.61369 -0.8279,1.14938 -1.198,1.61699 -0.3702,0.46761 -0.7209,0.84751 -1.0326,1.14949 -0.2435,0.23372 -0.4969,0.44803 -0.7501,0.66231 -0.263,0.20461 -0.4968,0.3702 -0.7111,0.50662 -0.2045,0.12658 -0.3604,0.19477 -0.4481,0.19477 -0.068,0.01 -0.1267,-0.0779 -0.1753,-0.23379 -0.049,-0.15578 -0.097,-0.40911 -0.1365,-0.7306 -0.049,-0.33119 -0.078,-0.68181 -0.097,-1.05198 -0.01,-0.37021 -0.019,-0.75982 -0.019,-1.1787 0,-0.3701 0.01,-0.74031 0.019,-1.11051 0.019,-0.3701 0.049,-0.74031 0.097,-1.11041 0.039,-0.47731 0.1073,-0.96439 0.195,-1.4515 0.078,-0.48701 0.185,-1.013 0.3214,-1.59748 0.1265,-0.57471 0.2922,-1.23713 0.4773,-1.97743 0.1559,-0.59418 0.2727,-1.10077 0.3604,-1.51959 0.088,-0.41889 0.1559,-0.79879 0.1949,-1.12998 0.039,-0.33123 0.068,-0.67211 0.078,-1.0033 v -0.51633 c 0,-0.7209 -0.078,-1.34429 -0.2337,-1.85078 -0.1559,-0.49681 -0.3799,-0.90589 -0.6819,-1.19821 -0.1851,-0.14608 -0.3799,-0.25318 -0.5844,-0.32141 -0.2046,-0.078 -0.4189,-0.10718 -0.6429,-0.10718 -0.3021,0 -0.6137,0.0585 -0.9353,0.18511 -0.3311,0.13638 -0.6623,0.32148 -1.0033,0.58448 -0.1754,0.12661 -0.3019,0.21431 -0.3896,0.26299 -0.088,0.0584 -0.1363,0.0779 -0.1559,0.0779 -0.01,0 -0.029,-0.01 -0.039,-0.0195 -0.019,-0.01 -0.029,-0.0195 -0.049,-0.0389 -0.5649,-0.9157 -1.3344,-1.61709 -2.3085,-2.0944 -0.9644,-0.48701 -2.0554,-0.73061 -3.2536,-0.73061 z m -0.029,6.76043 c 0.1656,0 0.3507,0.01 0.5455,0.0487 0.1948,0.0292 0.4481,0.0779 0.7696,0.14612 0.2825,0.0779 0.5552,0.13628 0.8182,0.18507 0.263,0.0584 0.4773,0.0876 0.6429,0.1071 0.1754,0.01 0.302,0.0195 0.3605,0.039 0.068,0.01 0.097,0.0487 0.088,0.0974 v 0.0292 c -0.097,0.34089 -0.2045,0.75978 -0.3214,1.23709 -0.1169,0.48708 -0.2241,0.96438 -0.3312,1.45139 -0.097,0.42859 -0.1851,0.75012 -0.263,0.95469 -0.078,0.21431 -0.1559,0.3701 -0.2241,0.4675 -0.078,0.12672 -0.263,0.38972 -0.5552,0.7988 -0.2923,0.40911 -0.6137,0.89623 -0.9839,1.4612 -0.526,0.79873 -1.0033,1.50982 -1.4319,2.11381 -0.4286,0.61369 -0.8085,1.13002 -1.1397,1.5391 -0.3215,0.41882 -0.6332,0.78899 -0.9254,1.11051 -0.2825,0.33119 -0.5553,0.62339 -0.8183,0.85718 -0.1558,0.13642 -0.3117,0.26303 -0.4578,0.37991 -0.1461,0.11691 -0.2435,0.2045 -0.3117,0.25322 -0.039,0.0293 -0.078,0.0488 -0.1169,0.0682 -0.039,0.01 -0.068,0.0195 -0.078,0.0195 -0.019,0 -0.029,-0.01 -0.049,-0.0195 -0.01,-0.01 -0.029,-0.0292 -0.039,-0.0389 -0.01,-0.039 -0.019,-0.12668 -0.029,-0.24359 0,-0.11681 0,-0.2727 0,-0.4675 0,-0.32149 0.01,-0.67222 0.019,-1.0715 0.01,-0.39941 0.019,-0.84751 0.039,-1.33459 0.01,-0.4675 0.039,-0.87672 0.058,-1.22742 0.029,-0.35059 0.058,-0.6429 0.088,-0.85721 0.3117,-2.56188 0.9936,-4.64648 2.0554,-6.2537 0.3799,-0.59418 0.7793,-1.05209 1.1884,-1.3638 0.4189,-0.31168 0.8377,-0.47727 1.2664,-0.48697 h 0.1363 z"
           style="fill:#ffffff;fill-opacity:1;fill-rule:nonzero;stroke:none;stroke-width:0.352778"
           id="path1886" /></g></g></g></svg>
